<svg width="86" height="87" viewBox="0 0 86 87" fill="none" xmlns="http://www.w3.org/2000/svg">
<path d="M76.5253 60.2432H81.9452V57.9528H76.5253V60.2432Z" fill="#EBEBEB"/>
<path d="M79.5505 63.1313L82.283 63.074L83.6298 63.0515C84.078 63.0412 84.5242 63.0515 84.9704 63.0392L84.8783 63.1313V60.8409L84.9807 60.9432L82.2707 60.931C81.368 60.931 80.4634 60.9064 79.5607 60.8962L79.616 60.8409C79.616 61.2155 79.5996 61.5921 79.5894 61.9728L79.5505 63.1313ZM79.5505 63.1313L79.5136 62.0076C79.5034 61.6269 79.4891 61.24 79.487 60.8511V60.7795H79.5443C80.447 60.7672 81.3517 60.7467 82.2543 60.7447L84.9643 60.7324H85.0666V60.8348L85.0544 63.1252V63.2173H84.9643C84.5079 63.2173 84.0494 63.2173 83.5929 63.207L82.2297 63.1845L79.5505 63.1313Z" fill="#EBEBEB"/>
<path d="M39.6293 40.6346L42.3639 40.5772L43.7086 40.5547C44.1569 40.5445 44.6031 40.5547 45.0493 40.5445L44.9572 40.6346L44.947 38.3442L45.0493 38.4465L42.3393 38.4342C41.4367 38.4342 40.532 38.4117 39.6293 38.3994L39.6846 38.3442C39.6846 38.7187 39.6682 39.0954 39.658 39.4781L39.6293 40.6346ZM39.6293 40.6346L39.6007 39.4924C39.5904 39.1117 39.5782 38.7249 39.5741 38.336V38.2807H39.6314C40.534 38.2705 41.4387 38.248 42.3414 38.2459L45.0514 38.2336H45.1537V38.336L45.1435 40.6264V40.7205H45.0534C44.597 40.7205 44.1385 40.7205 43.6841 40.7082L42.3188 40.6857L39.6293 40.6346Z" fill="#EBEBEB"/>
<path d="M42.6525 43.5227H48.0725V41.2323H42.6525V43.5227Z" fill="#EBEBEB"/>
<path d="M36.5591 43.5229L39.2937 43.4655L40.6405 43.443C41.0887 43.4328 41.5329 43.443 41.9791 43.4328L41.889 43.5229L41.8767 41.2325L41.9791 41.3348L39.2691 41.3225C38.3664 41.3225 37.4638 41.3 36.5591 41.2877L36.6164 41.2325C36.6164 41.607 36.598 41.9836 36.5898 42.3664L36.5591 43.5229ZM36.5591 43.5229L36.5305 42.3889C36.5305 42.0082 36.5079 41.6214 36.5038 41.2325V41.1772H36.5591C37.4638 41.1772 38.3664 41.1445 39.2691 41.1424L41.9791 41.1301H42.0835V41.2325L42.0732 43.5229V43.615H41.9811C41.5247 43.615 41.0662 43.615 40.6118 43.6027L39.2486 43.5802L36.5591 43.5229Z" fill="#EBEBEB"/>
<path d="M47.9742 14.5132H53.3942V12.2228H47.9742V14.5132Z" fill="#EBEBEB"/>
<path d="M1.59946 63.1313L4.33401 63.074L5.68082 63.0515C6.12702 63.0412 6.57323 63.0515 7.01943 63.0392L6.92937 63.1313L6.91709 60.8409L7.01943 60.9432L4.30945 60.931C3.4068 60.931 2.50211 60.9064 1.59946 60.8962L1.65473 60.8409C1.65473 61.2155 1.63835 61.5921 1.62812 61.9728L1.59946 63.1313ZM1.59946 63.1313L1.57081 62.0076C1.56057 61.6269 1.54829 61.24 1.5442 60.8511V60.7795H1.59946C2.50211 60.7672 3.4068 60.7467 4.30945 60.7447L7.01943 60.7324H7.12178V60.8348V63.1252V63.2173H7.02967C6.57323 63.2173 6.11474 63.2173 5.66035 63.207L4.29717 63.1845L1.59946 63.1313Z" fill="#EBEBEB"/>
<path d="M4.62261 5.14688L7.35716 5.08957L8.70397 5.06706C9.15222 5.05682 9.59638 5.06705 10.0426 5.05477L9.95252 5.14688L9.94024 2.85444L10.0426 2.95679L7.3326 2.9445C6.42995 2.9445 5.5273 2.91994 4.62261 2.90971L4.67992 2.85444C4.67992 3.22901 4.6615 3.60563 4.65127 3.98838L4.62261 5.14688ZM4.62261 5.14688L4.6001 4.01294C4.6001 3.63224 4.57758 3.24539 4.57349 2.85649V2.80123H4.62875C5.53344 2.79099 6.43609 2.76848 7.33874 2.76643L10.0487 2.75415H10.1531V2.85444L10.1265 5.14688V5.23899H10.0344C9.57796 5.23899 9.11947 5.23899 8.66508 5.22671L7.30189 5.20419L4.62261 5.14688Z" fill="#EBEBEB"/>
<path d="M1.59946 8.03491H7.01943V5.74452H1.59946V8.03491Z" fill="#EBEBEB"/>
<path d="M79.5505 5.14688L82.283 5.08957L83.6298 5.06706C84.078 5.05682 84.5242 5.06705 84.9704 5.05477L84.8783 5.14688V2.85649L84.9807 2.95883L82.2707 2.94655C81.368 2.94655 80.4634 2.92199 79.5607 2.91176L79.616 2.85649C79.616 3.23106 79.5996 3.60767 79.5894 3.99043L79.5505 5.14688ZM79.5505 5.14688L79.5136 4.01294C79.5034 3.63224 79.4891 3.24539 79.487 2.85649V2.80123H79.5443C80.447 2.79099 81.3517 2.76848 82.2543 2.76643L84.9643 2.75415H85.0666V2.85444L85.0605 5.14688V5.23899H84.9704C84.514 5.23899 84.0555 5.23899 83.5991 5.22671L82.2359 5.20419L79.5505 5.14688Z" fill="#EBEBEB"/>
<path d="M26.761 70.5571H12.0341V86.8641H26.761V70.5571Z" fill="#EBEBEB"/>
<path d="M4.43225 86.866H12.0362L12.0362 70.5569H4.43225L4.43225 86.866Z" fill="#DBDBDB"/>
<path d="M4.95419 85.7505C5.51911 84.5906 6.07721 83.4308 6.62849 82.2709L8.28437 78.7442L9.92182 75.2217C10.4676 74.0454 11.0025 72.8651 11.5265 71.6807C10.9616 72.8405 10.4035 74.0038 9.85223 75.1705L8.20249 78.6787L6.56504 82.2013C6.02058 83.3789 5.48364 84.562 4.95419 85.7505Z" fill="#EBEBEB"/>
<path d="M4.95419 71.6807C5.48364 72.8665 6.01854 74.0468 6.5589 75.2217L8.19635 78.7442L9.84609 82.2525C10.3987 83.4192 10.9568 84.579 11.5204 85.7321C10.9909 84.5476 10.456 83.3673 9.91568 82.1911L8.27823 78.6685L6.62849 75.1603C6.07585 74.0004 5.51775 72.8405 4.95419 71.6807Z" fill="#EBEBEB"/>
<path d="M26.761 45.9277H12.0341V61.111H26.761V45.9277Z" fill="#EBEBEB"/>
<path d="M4.43225 61.113H12.0362L12.0362 45.9277H4.43225L4.43225 61.113Z" fill="#DBDBDB"/>
<path d="M18.148 49.4524H18.4611H18.6945L18.8275 49.1801L19.0158 49.4524L19.2696 48.8936L19.5112 49.4524H20.2009H20.5141L20.6287 49.0798L20.7352 49.4524H20.9398V45.9277H18.148V49.4524Z" fill="#DBDBDB"/>
<path d="M4.95419 60.1446C5.51911 59.0667 6.07721 57.9818 6.62849 56.8902L8.27823 53.6153L9.91568 50.3404C10.4615 49.2488 10.9964 48.1496 11.5204 47.043C10.9555 48.1237 10.3974 49.2071 9.84609 50.2933L8.19635 53.558L6.5589 56.8329C6.01854 57.9368 5.48364 59.0407 4.95419 60.1446Z" fill="#EBEBEB"/>
<path d="M4.95419 47.0515C5.48364 48.1527 6.01854 49.2491 6.5589 50.3408L8.19635 53.6157L9.84609 56.8906C10.3987 57.9822 10.9568 59.0657 11.5204 60.1409C10.9909 59.0384 10.456 57.9392 9.91568 56.8435L8.27823 53.5686L6.62849 50.3039C6.07585 49.2164 5.51775 48.1322 4.95419 47.0515Z" fill="#EBEBEB"/>
<path d="M13.0043 60.1694H14.6397V58.534H13.0043V60.1694Z" fill="white"/>
<path d="M25.7806 61.113H11.0537V70.5571H25.7806V61.113Z" fill="#DBDBDB"/>
<path d="M3.44978 70.5571H11.0537L11.0537 61.1131H3.44978L3.44978 70.5571Z" fill="#C7C7C7"/>
<path d="M17.1676 64.6377H17.4787H17.7141L17.8471 64.3654L18.0354 64.6377L18.2892 64.0789L18.5307 64.6377H19.2185H19.5337L19.6462 64.2651L19.7547 64.6377H19.9594V61.113H17.1676V64.6377Z" fill="white"/>
<path d="M3.97377 69.9901C4.53733 69.3078 5.09543 68.6194 5.64807 67.9248L7.2978 65.8494L8.93526 63.7637C9.47289 63.0677 10.0071 62.3691 10.5379 61.6677C9.97572 62.35 9.41762 63.0384 8.86362 63.733L7.21388 65.8105L5.57643 67.8941C5.03743 68.5942 4.50321 69.2928 3.97377 69.9901Z" fill="#DBDBDB"/>
<path d="M3.97377 61.6738C4.50458 62.3752 5.03948 63.0738 5.57848 63.7698L7.21593 65.8555L8.86566 67.931C9.41148 68.6214 9.96822 69.3078 10.5359 69.9901C10.0078 69.2887 9.47357 68.59 8.93321 67.8941L7.29576 65.8104L5.64602 63.7329C5.09474 63.0479 4.53733 62.3616 3.97377 61.6738Z" fill="#DBDBDB"/>
<path d="M83.1201 72.5999H68.3933V86.8662H83.1201V72.5999Z" fill="#DBDBDB"/>
<path d="M60.7914 86.866H68.3953V72.5996H60.7914V86.866Z" fill="#C7C7C7"/>
<path d="M74.5071 76.1245H74.8182H75.0536L75.1866 75.8523L75.375 76.1245L75.6288 75.5657L75.8703 76.1245H76.558H76.8732L76.9879 75.7499L77.0943 76.1245H77.299V72.5999H74.5071V76.1245Z" fill="white"/>
<path d="M61.3133 86.0167C61.8769 84.981 62.435 83.9412 62.9876 82.8973L64.6374 79.7616L66.2748 76.6136C66.8206 75.5615 67.3548 74.5067 67.8775 73.4492C67.3153 74.4849 66.7572 75.5247 66.2032 76.5686L64.5534 79.7023L62.9262 82.8523C62.3858 83.9044 61.8482 84.9592 61.3133 86.0167Z" fill="#DBDBDB"/>
<path d="M61.3133 73.4492C61.8441 74.5067 62.379 75.5615 62.918 76.6136L64.5452 79.7616L66.195 82.8973C66.7476 83.9412 67.3057 84.981 67.8693 86.0167C67.3412 84.9578 66.807 83.903 66.2666 82.8523L64.6292 79.7023L62.9794 76.5686C62.4322 75.5247 61.8769 74.4849 61.3133 73.4492Z" fill="#DBDBDB"/>
<path d="M57.5144 2.03564V36.852H81.4745V2.03564H57.5144ZM80.5903 35.9576H58.3987V2.90964H80.5903V35.9576Z" fill="#EBEBEB"/>
<path d="M80.5902 2.90967H58.3986V35.9576H80.5902V2.90967Z" fill="white"/>
<path d="M58.3986 20.8992L80.5902 20.8992V20.0149L58.3986 20.0149V20.8992Z" fill="#EBEBEB"/>
<path d="M55.8852 39.3777H83.1017V36.8396H55.8852V39.3777Z" fill="#DBDBDB"/>
<path d="M56.6077 40.3929L82.3812 40.9333V39.3777H56.6077V40.3929Z" fill="#EBEBEB"/>
<path d="M58.3986 2.90967H80.5902V25.615H58.3986V2.90967ZM79.7715 3.7284H59.2174V24.7963H79.7715V3.7284Z" fill="#DBDBDB"/>
<path d="M73.5083 2.90967H73.0661V24.7963H73.5083V2.90967Z" fill="#DBDBDB"/>
<path d="M65.9228 2.90967H65.4806V24.7963H65.9228V2.90967Z" fill="#DBDBDB"/>
<path d="M5.09543 2.03564V36.852H29.0555V2.03564H5.09543ZM28.1713 35.9576H5.97965V2.90964H28.1713V35.9576Z" fill="#EBEBEB"/>
<path d="M28.1713 2.90967H5.97965V35.9576H28.1713V2.90967Z" fill="white"/>
<path d="M5.97965 20.8992L28.1712 20.8992V20.0149L5.97965 20.0149V20.8992Z" fill="#EBEBEB"/>
<path d="M3.46615 39.3777H30.6827V36.8396H3.46615V39.3777Z" fill="#DBDBDB"/>
<path d="M4.18868 40.3929L29.9622 40.9333V39.3777H4.18868V40.3929Z" fill="#EBEBEB"/>
<path d="M5.97965 2.90967H28.1713V25.615H5.97965V2.90967ZM27.3525 3.7284H6.79838V24.7963H27.3525V3.7284Z" fill="#DBDBDB"/>
<path d="M21.0893 2.90967H20.6471V24.7963H21.0893V2.90967Z" fill="#DBDBDB"/>
<path d="M13.5038 2.90967H13.0616V24.7963H13.5038V2.90967Z" fill="#DBDBDB"/>
<path d="M61.4423 70.0005H41.0396V86.8581H61.4423V70.0005Z" fill="#0AAD0A"/>
<path opacity="0.1" d="M61.4423 70.0005H41.0396V86.8581H61.4423V70.0005Z" fill="black"/>
<path d="M69.5272 70.0024H61.4423V86.86H69.5272V70.0024Z" fill="#0AAD0A"/>
<path opacity="0.2" d="M69.5272 70.0024H61.4423V86.86H69.5272V70.0024Z" fill="black"/>
<path d="M68.9684 85.6973C68.3707 84.4992 67.7779 83.2971 67.1897 82.0908L65.4356 78.4638L63.704 74.8225C63.1309 73.6067 62.5626 72.3868 61.999 71.1628C62.5994 72.3623 63.193 73.5644 63.7797 74.7693L65.5318 78.3963L67.2634 82.0376C67.8393 83.2534 68.4076 84.4733 68.9684 85.6973Z" fill="#0AAD0A"/>
<path d="M68.9684 71.1628C68.4062 72.3909 67.8379 73.6108 67.2634 74.8225L65.5318 78.4638L63.7797 82.0908C63.1916 83.2957 62.598 84.4979 61.999 85.6973C62.5626 84.4692 63.1309 83.2493 63.704 82.0376L65.4356 78.3963L67.1897 74.7714C67.7779 73.5638 68.3707 72.3609 68.9684 71.1628Z" fill="#0AAD0A"/>
<path d="M52.6839 73.6437H52.3626H52.119L51.9819 73.3633L51.7874 73.6437L51.5234 73.0665L51.2757 73.6437H50.5634H50.238L50.1193 73.2589L50.0087 73.6437H49.7979V70.0024H52.6839V73.6437Z" fill="white"/>
<path d="M62.6724 53.145H47.4502V70.0006H62.6724V53.145Z" fill="#0AAD0A"/>
<path d="M70.5322 53.145H62.6724V70.0026H70.5322V53.145Z" fill="#0AAD0A"/>
<path opacity="0.1" d="M70.5322 53.145H62.6724V70.0026H70.5322V53.145Z" fill="black"/>
<g opacity="0.1">
<path d="M61.5569 68.84C60.4393 67.6406 59.3313 66.4384 58.2329 65.2335L54.9518 61.5984L51.7199 57.9571C50.6473 56.7413 49.5857 55.5214 48.535 54.2974C49.654 55.4968 50.762 56.6996 51.8591 57.9059L55.134 61.5308L58.3659 65.1721C59.4425 66.3934 60.5062 67.616 61.5569 68.84Z" fill="black"/>
<path d="M61.5569 54.3054C60.5048 55.5335 59.4432 56.7534 58.372 57.9651L55.1401 61.5982L51.8652 65.2252C50.7736 66.4301 49.6656 67.6323 48.5412 68.8317C49.5932 67.6036 50.6549 66.3837 51.726 65.172L54.9518 61.5389L58.2267 57.914C59.3279 56.7063 60.438 55.5035 61.5569 54.3054Z" fill="black"/>
</g>
<path d="M69.4269 67.1494H68.0494V69.0939H69.4269V67.1494Z" fill="white"/>
<path d="M0.598564 86.866L11.2707 86.8148L21.9428 86.7985L43.285 86.7637L64.6271 86.7985L75.2992 86.8148L85.9713 86.866L75.2992 86.9151L64.6271 86.9336L43.285 86.9684L21.9428 86.9336L11.2707 86.9151L0.598564 86.866Z" fill="#263238"/>
<path d="M51.4149 28.8082C51.3003 28.7345 51.1857 28.6628 51.071 28.5932L51.1509 28.4602L51.4988 28.6792L51.4149 28.8082Z" fill="#263238"/>
<path d="M46.4166 49.3172H46.2692V49.1637C46.5425 49.1697 46.8159 49.1595 47.0879 49.1329L47.1043 49.2865C46.8812 49.3028 46.6479 49.3172 46.4166 49.3172ZM47.9353 49.1493L47.9026 48.9999C48.1688 48.9396 48.4301 48.8596 48.6845 48.7604L48.7397 48.9037C48.478 49.0041 48.2091 49.0848 47.9353 49.1452V49.1493ZM49.497 48.5353L49.4213 48.4022C49.6566 48.2649 49.8804 48.1088 50.0906 47.9356L50.1889 48.0522C49.9722 48.233 49.7408 48.3953 49.497 48.5373V48.5353ZM50.7927 47.4709L50.6801 47.3665C50.8638 47.1647 51.0327 46.9499 51.1857 46.7238L51.3126 46.8098C51.1557 47.0439 50.9819 47.2662 50.7927 47.475V47.4709ZM51.7301 46.0811L51.5909 46.0156C51.7076 45.7691 51.8028 45.513 51.8754 45.2501L52.0228 45.2911C51.9485 45.5631 51.8505 45.8282 51.7301 46.0832V46.0811ZM52.1722 44.4601L52.0187 44.4478C52.0187 44.3373 52.033 44.2247 52.033 44.1162C52.0325 43.9644 52.0236 43.8127 52.0064 43.6618C51.8471 43.6511 51.6886 43.6313 51.5316 43.6024L51.5582 43.451C51.8081 43.4961 52.0615 43.5194 52.3155 43.5206H52.3687V43.6741H52.3135H52.1599C52.1763 43.8223 52.1846 43.9712 52.1845 44.1203C52.1866 44.2308 52.1804 44.3475 52.1722 44.4621V44.4601ZM53.21 43.5717L53.1752 43.4223C53.4384 43.36 53.6934 43.2665 53.9345 43.144L54.0041 43.2811C53.7519 43.4097 53.4853 43.508 53.21 43.5738V43.5717ZM50.7169 43.3814C50.4523 43.2859 50.1956 43.1696 49.9494 43.0334L50.0251 42.9004C50.2634 43.032 50.5119 43.1443 50.7681 43.2361L50.7169 43.3814ZM51.8181 42.841C51.7283 42.5851 51.6103 42.34 51.4661 42.1103L51.595 42.0284C51.7467 42.2673 51.8703 42.5228 51.9635 42.7899L51.8181 42.841ZM54.7082 42.8083L54.61 42.6916C54.8176 42.5162 55.0075 42.3208 55.177 42.1083L55.2957 42.2045C55.1208 42.427 54.924 42.6313 54.7082 42.8144V42.8083ZM49.2555 42.5627L49.2125 42.5217C49.0099 42.3437 48.8486 42.1237 48.7397 41.877L48.883 41.8197C48.9828 42.0455 49.1309 42.2467 49.3169 42.4092L49.3579 42.446L49.2555 42.5627ZM55.7705 41.5167L55.6395 41.4369C55.7828 41.1995 55.9159 40.9559 56.0325 40.7164L56.1717 40.784C56.053 41.0275 55.9179 41.2752 55.7705 41.5167ZM50.9564 41.486C50.7694 41.3049 50.5636 41.1444 50.3424 41.0071L50.3117 40.9866L50.3915 40.8556L50.4243 40.8761C50.6524 41.0201 50.8645 41.1882 51.0567 41.3776L50.9564 41.486ZM48.9239 41.091L48.797 41.005C48.8847 40.8819 49.0008 40.7818 49.1356 40.7134C49.2703 40.6449 49.4196 40.6102 49.5707 40.612V40.7656C49.4449 40.7648 49.3206 40.7939 49.2082 40.8505C49.0958 40.9071 48.9983 40.9895 48.9239 41.091ZM56.4972 40.0123L56.3539 39.9591C56.4487 39.7022 56.53 39.4406 56.5975 39.1752L56.7448 39.212C56.6788 39.4834 56.5968 39.7506 56.4992 40.0123H56.4972ZM56.9065 38.3892L56.753 38.3687C56.7896 38.0972 56.8107 37.8239 56.8165 37.55H56.97C56.9644 37.8307 56.9432 38.1109 56.9065 38.3892ZM56.7878 36.7313C56.7632 36.4565 56.7242 36.1832 56.6711 35.9126L56.8226 35.8818C56.876 36.156 56.9157 36.4327 56.9413 36.7108L56.7878 36.7313ZM56.4706 35.1225C56.3928 34.8646 56.3007 34.6046 56.1942 34.3467L56.3375 34.2894C56.4439 34.5494 56.5422 34.8155 56.6179 35.0774L56.4706 35.1225ZM55.8565 33.5976C55.7337 33.3581 55.5966 33.1166 55.4471 32.8792L55.5781 32.7993C55.7255 33.0388 55.8647 33.2844 55.9875 33.528L55.8565 33.5976ZM54.9948 32.1935C54.8372 31.9724 54.6673 31.7534 54.4913 31.5405L54.61 31.4423C54.7881 31.6572 54.96 31.8803 55.1197 32.1034L54.9948 32.1935ZM53.9468 30.9204C53.7606 30.7157 53.5641 30.5253 53.3635 30.337L53.4679 30.2244C53.6725 30.4168 53.8772 30.6154 54.0574 30.816L53.9468 30.9204ZM52.7453 29.7885C52.5407 29.6145 52.3176 29.4426 52.0985 29.2788L52.1886 29.156C52.4117 29.3198 52.6328 29.4937 52.8436 29.6718L52.7453 29.7885Z" fill="#263238"/>
<path d="M45.4116 49.2434C45.2739 49.2263 45.1372 49.2017 45.0022 49.1697L45.0391 49.0203C45.0391 49.0203 45.1864 49.0571 45.4321 49.0919L45.4116 49.2434Z" fill="#263238"/>
<path d="M43.3464 48.9384C43.2502 49.7571 44.9224 50.2156 45.0493 49.143C45.1762 48.0705 43.4426 48.1135 43.3464 48.9384Z" fill="#263238"/>
<path d="M45.5364 50.2935C45.3809 50.6026 44.8303 50.6456 44.2613 50.2485C43.8748 49.9535 43.5483 49.5874 43.2993 49.1698C43.7805 49.1197 44.2668 49.1621 44.732 49.2947C45.4055 49.5219 45.7002 49.9804 45.5364 50.2935Z" fill="#EBEBEB"/>
<path d="M43.3054 49.1697C43.6288 49.315 43.9461 49.4726 44.2633 49.6282C44.5806 49.7837 44.8937 49.9495 45.2028 50.1214C44.8794 49.9761 44.5622 49.8185 44.2449 49.663C43.9277 49.5074 43.6145 49.3416 43.3054 49.1697Z" fill="#263238"/>
<path d="M44.7914 50.2872C44.7179 50.202 44.6496 50.1124 44.5867 50.0191C44.5249 49.9264 44.4689 49.83 44.4189 49.7305C44.4924 49.8157 44.5607 49.9052 44.6236 49.9986C44.6858 50.091 44.7419 50.1874 44.7914 50.2872Z" fill="#263238"/>
<path d="M44.1037 49.569C44.2163 49.5398 44.3304 49.5165 44.4455 49.4995C44.5615 49.483 44.6784 49.4728 44.7955 49.4688C44.5688 49.5252 44.3371 49.5588 44.1037 49.569Z" fill="#263238"/>
<path d="M43.9256 49.7039C43.8552 49.6163 43.8049 49.5142 43.7782 49.405C43.8486 49.4926 43.899 49.5947 43.9256 49.7039Z" fill="#263238"/>
<path d="M45.8066 48.1505C45.7268 47.8127 45.2028 47.6449 44.5581 47.8987C44.1131 48.0968 43.7102 48.3782 43.3709 48.7277C43.831 48.887 44.3174 48.9565 44.8037 48.9323C45.4935 48.875 45.8885 48.4984 45.8066 48.1505Z" fill="#EBEBEB"/>
<path d="M43.3709 48.7277C43.7189 48.6622 44.0648 48.5803 44.4087 48.5005C44.7525 48.4207 45.0964 48.3347 45.4321 48.2385C45.0861 48.304 44.7402 48.3859 44.3964 48.4657C44.0525 48.5455 43.7127 48.6315 43.3709 48.7277Z" fill="#263238"/>
<path d="M45.0759 47.9827C44.9868 48.046 44.9014 48.1144 44.8201 48.1873C44.7388 48.2638 44.6616 48.3444 44.5888 48.4289C44.6788 48.3667 44.7642 48.2983 44.8446 48.2242C44.9264 48.1483 45.0036 48.0676 45.0759 47.9827Z" fill="#263238"/>
<path d="M44.2367 48.5232C44.4441 48.6311 44.6623 48.7169 44.8876 48.779C44.6807 48.6702 44.4624 48.5844 44.2367 48.5232Z" fill="#263238"/>
<path d="M44.1037 48.3511C44.0591 48.3844 44.0186 48.4229 43.9829 48.4657C43.9475 48.5096 43.9167 48.5569 43.8908 48.6069C43.9354 48.5728 43.976 48.5337 44.0116 48.4903C44.0487 48.4485 44.0798 48.4016 44.1037 48.3511Z" fill="#263238"/>
<path d="M43.3464 48.9386C43.405 48.9454 43.4603 48.9694 43.5053 49.0076C43.5503 49.0459 43.5829 49.0965 43.5991 49.1533C43.6153 49.2101 43.6144 49.2703 43.5964 49.3266C43.5784 49.3828 43.5441 49.4324 43.4979 49.4692C43.4518 49.5059 43.3957 49.5282 43.3369 49.5332C43.2781 49.5381 43.2191 49.5256 43.1674 49.497C43.1158 49.4685 43.0737 49.4254 43.0465 49.3729C43.0193 49.3205 43.0083 49.2613 43.0148 49.2026C43.024 49.1237 43.0641 49.0517 43.1262 49.0023C43.1883 48.9528 43.2674 48.9299 43.3464 48.9386Z" fill="#455A64"/>
<path d="M43.4159 48.3428C43.4551 48.3474 43.4929 48.3596 43.5273 48.3788C43.5617 48.398 43.5919 48.4238 43.6163 48.4547C43.6408 48.4856 43.6589 48.521 43.6696 48.5588C43.6804 48.5967 43.6835 48.6363 43.679 48.6755C43.6744 48.7146 43.6622 48.7524 43.643 48.7868C43.6238 48.8212 43.598 48.8514 43.5671 48.8759C43.5362 48.9003 43.5009 48.9184 43.463 48.9291C43.4251 48.9399 43.3855 48.943 43.3464 48.9385C43.2674 48.9292 43.1953 48.889 43.146 48.8266C43.0966 48.7643 43.0741 48.6848 43.0833 48.6059C43.0926 48.5269 43.1328 48.4548 43.1952 48.4055C43.2575 48.3561 43.337 48.3336 43.4159 48.3428Z" fill="#455A64"/>
<path d="M24.8636 68.2114C24.8636 68.2114 20.4998 76.9493 20.4977 76.9493C20.1375 78.7525 19.855 80.3429 19.7834 81.178C19.7823 81.1827 19.7823 81.1876 19.7834 81.1923C19.7456 81.3859 19.7533 81.5856 19.8059 81.7757C19.8048 81.7804 19.8048 81.7853 19.8059 81.79C20.2705 82.2608 34.6105 85.5623 35.157 85.5091C35.7035 85.4559 35.5869 83.9146 35.1325 83.3435C34.6781 82.7725 29.7514 79.0452 29.7514 79.0452L34.017 70.293L24.8636 68.2114Z" fill="#D3766A"/>
<path d="M34.9401 85.5175C34.4018 85.5707 20.2767 82.2671 19.8141 81.7984C19.8134 81.7936 19.8134 81.7888 19.8141 81.7841C19.7605 81.5942 19.7521 81.3944 19.7895 81.2007C19.7878 81.1961 19.7878 81.191 19.7895 81.1864C19.8591 80.3513 20.1436 78.7609 20.5018 76.9556L21.5457 74.8638L30.5947 77.3445L29.7596 79.0597C29.7596 79.0597 34.4673 82.7788 34.9237 83.3581C35.3801 83.9373 35.4804 85.4663 34.9401 85.5175Z" fill="#EBEBEB"/>
<path d="M35.1366 85.2882C34.5901 85.3291 20.2153 81.6653 19.7568 81.1782C19.5807 80.996 19.9922 78.8694 20.5632 76.3149L20.5816 76.2351L29.8824 78.4968L29.8394 78.6524C29.8394 78.6524 34.7129 82.5168 35.1611 83.1063C35.6094 83.6958 35.681 85.2493 35.1366 85.2882Z" fill="#263238"/>
<path d="M35.1141 84.6884C32.707 84.013 22.9314 81.5077 20.4998 81.0205C20.4793 81.0205 20.4752 81.0307 20.4998 81.0369C22.872 81.7594 32.6681 84.1849 35.11 84.7212C35.157 84.7396 35.1652 84.7027 35.1141 84.6884Z" fill="white"/>
<path d="M30.611 78.8795C29.7023 78.4579 28.4987 78.3064 27.5981 78.8017C27.5633 78.8201 27.5981 78.8693 27.6227 78.8672C28.6091 78.8054 29.5992 78.8493 30.5763 78.9982C30.5906 78.9991 30.6048 78.9951 30.6166 78.9868C30.6283 78.9785 30.6369 78.9665 30.641 78.9527C30.645 78.9389 30.6442 78.9242 30.6388 78.9109C30.6334 78.8976 30.6236 78.8865 30.611 78.8795Z" fill="white"/>
<path d="M31.1923 79.469C30.2856 79.0494 29.0821 78.898 28.1794 79.3913C28.1446 79.4097 28.1794 79.4588 28.206 79.4588C29.1924 79.3959 30.1827 79.4398 31.1596 79.5898C31.1745 79.5913 31.1895 79.5874 31.2018 79.5789C31.2141 79.5704 31.2231 79.5577 31.227 79.5433C31.2309 79.5288 31.2296 79.5134 31.2232 79.4998C31.2169 79.4862 31.206 79.4753 31.1923 79.469Z" fill="white"/>
<path d="M31.7757 80.0603C30.8669 79.6386 29.6634 79.4872 28.7628 79.9804C28.728 80.0009 28.7628 80.05 28.7894 80.048C29.7751 79.9862 30.7646 80.0301 31.7409 80.179C31.7552 80.1799 31.7695 80.1758 31.7812 80.1676C31.793 80.1593 31.8016 80.1473 31.8056 80.1335C31.8097 80.1197 31.8089 80.105 31.8035 80.0917C31.798 80.0784 31.7882 80.0673 31.7757 80.0603Z" fill="white"/>
<path d="M35.4866 84.8295C35.7179 84.9933 35.4415 85.8427 35.2389 85.8652C35.0363 85.8877 19.3802 81.8227 19.1325 81.6938C18.8848 81.5648 19.2246 80.6356 19.5419 80.6704C19.8591 80.7052 35.4866 84.8295 35.4866 84.8295Z" fill="#0AAD0A"/>
<path d="M22.5445 78.4495C21.6358 77.6636 20.4118 79.0759 21.3164 79.8639C22.2211 80.6519 23.4554 79.2376 22.5445 78.4495Z" fill="white"/>
<path d="M21.5723 74.1656L32.0602 76.8101C32.0602 76.8101 41.8358 59.1686 41.6168 54.684C41.3159 48.4985 34.0538 29.4795 34.0538 29.4795H25.3589C25.3589 29.4795 31.1289 50.0398 31.2087 53.4989C31.2435 55.3083 21.5723 74.1656 21.5723 74.1656Z" fill="#455A64"/>
<path d="M32.5084 74.6815C31.9497 74.4584 26.9575 73.0175 23.2323 72.2253C23.2282 72.2267 23.2246 72.2293 23.2221 72.2328C23.2196 72.2363 23.2182 72.2405 23.2182 72.2448C23.2182 72.2491 23.2196 72.2533 23.2221 72.2568C23.2246 72.2603 23.2282 72.2629 23.2323 72.2642C24.4051 72.6736 31.8064 74.6242 32.5003 74.7204C32.5166 74.7265 32.533 74.6979 32.5084 74.6815Z" fill="#263238"/>
<path d="M31.9292 49.082C31.2374 46.1796 30.4964 43.2854 29.7186 40.4096C28.9408 37.5338 28.1078 34.6315 27.1929 31.7782C27.0823 31.4282 26.9657 31.0823 26.8531 30.7343C26.8498 30.7232 26.8423 30.7138 26.8321 30.7082C26.8219 30.7027 26.81 30.7014 26.7988 30.7046C26.7877 30.7079 26.7783 30.7154 26.7728 30.7256C26.7672 30.7358 26.7659 30.7478 26.7692 30.7589C27.5879 33.6019 28.4066 36.4388 29.1824 39.2921C29.9581 42.1453 30.697 45.0068 31.3929 47.8887C31.5669 48.601 31.7368 49.3112 31.9026 50.0256C32.0953 50.7577 32.2443 51.5007 32.3488 52.2505C32.4349 52.9669 32.3856 53.6932 32.2035 54.3914C32.006 55.0776 31.7477 55.7447 31.4318 56.385C30.1778 59.1073 28.9245 61.8303 27.6718 64.5539C26.4192 67.2844 26.2165 67.9066 25.011 70.6596C24.8615 71.0014 24.7121 71.3432 24.5688 71.683C24.5688 71.7055 24.5914 71.7259 24.6036 71.7014C25.975 69.0037 26.1858 68.3548 27.4692 65.608C28.7525 62.8612 30.0277 60.0816 31.3008 57.3163C31.8739 56.0678 32.5473 54.7947 32.6333 53.3987C32.7193 51.9414 32.2608 50.48 31.9292 49.082Z" fill="#263238"/>
<path d="M32.4041 71.6666L32.7397 81.2866C32.795 83.1287 32.8748 84.7396 32.9956 85.5685C32.9946 85.5733 32.9946 85.5781 32.9956 85.5829C33.0025 85.7796 33.0543 85.9721 33.1471 86.1457L33.1593 86.158C33.7181 86.5121 48.4327 86.5039 48.9464 86.33C49.4602 86.156 49.0058 84.6823 48.4347 84.2258C47.8637 83.7694 42.2267 81.2539 42.2267 81.2539L41.799 71.644L32.4041 71.6666Z" fill="#D3766A"/>
<path d="M32.6702 79.3173C32.6702 79.3173 32.7397 81.2863 32.7397 81.2924C32.795 83.1346 32.8748 84.7454 32.9956 85.5744C32.9946 85.5791 32.9946 85.584 32.9956 85.5887C33.0236 85.7817 33.0744 85.9706 33.1471 86.1516L33.1593 86.1639C33.7181 86.518 48.4327 86.5098 48.9464 86.3358C49.4602 86.1618 49.0058 84.6881 48.4347 84.2317C47.8637 83.7752 42.2267 81.2597 42.2267 81.2597L42.1838 79.2559L32.6702 79.3173Z" fill="#EBEBEB"/>
<path d="M48.9546 86.3197C48.4347 86.4855 33.6035 86.2562 33.0427 85.8878C32.838 85.7507 32.7356 83.5892 32.6988 80.9754V80.8936L42.2697 80.9345V81.0982C42.2697 81.0982 47.9087 83.7243 48.4798 84.193C49.0508 84.6618 49.4766 86.16 48.9546 86.3197Z" fill="#263238"/>
<path d="M48.797 85.7506C46.2979 85.6503 36.207 85.4824 33.7284 85.5745C33.7079 85.5745 33.7079 85.5889 33.7284 85.5889C36.203 85.7424 46.2958 85.8304 48.797 85.7936C48.8482 85.7813 48.8502 85.7506 48.797 85.7506Z" fill="white"/>
<path d="M43.068 81.1352C42.0876 80.9305 40.8799 81.0677 40.1185 81.7492C40.0878 81.7759 40.1185 81.8168 40.1594 81.8086C41.1044 81.5202 42.0773 81.3329 43.0618 81.2498C43.0737 81.246 43.0841 81.2387 43.0917 81.2288C43.0993 81.219 43.1038 81.2071 43.1044 81.1946C43.1051 81.1822 43.102 81.1698 43.0955 81.1592C43.0889 81.1486 43.0794 81.1402 43.068 81.1352Z" fill="white"/>
<path d="M43.7721 81.5729C42.7896 81.3682 41.584 81.5074 40.8226 82.1972C40.7919 82.2238 40.8226 82.2647 40.8615 82.2545C41.807 81.9657 42.7807 81.7791 43.7659 81.6977C43.7808 81.6959 43.7945 81.6889 43.8046 81.6779C43.8148 81.667 43.8207 81.6528 43.8215 81.6379C43.8222 81.623 43.8177 81.6083 43.8086 81.5964C43.7996 81.5845 43.7867 81.5762 43.7721 81.5729Z" fill="white"/>
<path d="M44.4741 82.0131C43.4937 81.8084 42.2881 81.9456 41.5247 82.6272C41.496 82.6538 41.5247 82.6947 41.5656 82.6865C42.5106 82.3983 43.4835 82.211 44.468 82.1277C44.4799 82.124 44.4903 82.1166 44.4979 82.1068C44.5055 82.0969 44.5099 82.085 44.5106 82.0726C44.5113 82.0601 44.5081 82.0478 44.5016 82.0372C44.4951 82.0266 44.4855 82.0182 44.4741 82.0131Z" fill="white"/>
<path d="M49.19 85.7915C49.4541 85.8979 49.3824 86.7883 49.19 86.8558C48.9976 86.9233 32.8155 86.602 32.5514 86.5365C32.2874 86.471 32.3938 85.4865 32.7152 85.4394C33.0365 85.3923 49.19 85.7915 49.19 85.7915Z" fill="#0AAD0A"/>
<path d="M35.1222 82.5883C34.0558 82.0336 33.1921 83.6915 34.2605 84.2462C35.329 84.8009 36.1907 83.143 35.1222 82.5883Z" fill="white"/>
<path d="M33.9453 29.4633C33.9064 29.6413 31.7388 38.2114 31.4687 38.371C31.1616 38.5532 39.3448 49.563 40.315 54.9687C40.9291 58.4257 42.3618 78.5767 42.3618 78.5767H31.9271C31.9271 78.5767 30.9037 61.4632 30.564 55.8242C30.4309 53.6362 22.2232 43.5208 21.4433 36.7765C21.1977 34.6519 22.7247 29.4551 22.7247 29.4551L33.9453 29.4633Z" fill="#455A64"/>
<path d="M31.6631 70.4343C31.5403 67.5995 31.4277 64.7585 31.221 61.9277C31.1043 60.323 30.8751 58.7695 30.7154 57.1709C30.7154 57.087 30.6397 57.0665 30.6417 57.1525C30.7154 59.9996 30.9508 62.816 31.1023 65.6611C31.2537 68.5062 31.3991 69.1694 31.5608 72.0063C31.6508 73.611 31.7307 75.2157 31.8555 76.8183C31.8569 76.8224 31.8595 76.826 31.863 76.8285C31.8664 76.831 31.8706 76.8324 31.875 76.8324C31.8793 76.8324 31.8835 76.831 31.887 76.8285C31.8905 76.826 31.8931 76.8224 31.8944 76.8183C31.9005 73.9691 31.788 73.2794 31.6631 70.4343Z" fill="#263238"/>
<path d="M40.3252 55.1036C40.236 54.3549 40.0909 53.614 39.8913 52.8869C39.6764 52.1822 39.3933 51.5001 39.046 50.8503C38.3357 49.4871 37.5272 48.169 36.7474 46.8447C35.9676 45.5204 35.155 44.1674 34.3322 42.8452C33.8696 42.1029 33.405 41.3613 32.9383 40.6203C32.4634 39.8732 31.9619 39.1405 31.4728 38.4036C31.469 38.3974 31.4628 38.3929 31.4557 38.3912C31.4486 38.3894 31.4411 38.3906 31.4349 38.3944C31.4286 38.3982 31.4242 38.4043 31.4224 38.4114C31.4207 38.4185 31.4219 38.426 31.4257 38.4323C32.2239 39.7709 33.014 41.1115 33.8123 42.4502C34.6105 43.7888 35.3965 45.1315 36.1825 46.4742C36.9685 47.8169 37.7319 49.1187 38.4729 50.4614C38.8377 51.0989 39.1518 51.7641 39.4124 52.4509C39.6547 53.1625 39.8308 53.895 39.9384 54.639C40.2168 56.3726 40.444 58.1186 40.7919 59.8358C40.7933 59.8399 40.7959 59.8435 40.7994 59.846C40.8029 59.8486 40.8071 59.8499 40.8114 59.8499C40.8157 59.8499 40.8199 59.8486 40.8234 59.846C40.8269 59.8435 40.8295 59.8399 40.8308 59.8358C40.7223 58.2557 40.534 56.6735 40.3252 55.1036Z" fill="#263238"/>
<path d="M41.4428 76.7876C40.8472 76.7098 36.3012 76.5522 32.4982 76.7159C32.4737 76.7159 32.4757 76.7528 32.4982 76.7548C33.7365 76.8633 40.7387 76.9124 41.4367 76.8305C41.4551 76.8285 41.4633 76.7916 41.4428 76.7876Z" fill="#263238"/>
<path d="M32.8298 37.7855C31.7667 38.1729 30.7393 38.6523 29.7596 39.2183C29.7512 39.2221 29.7446 39.2291 29.7413 39.2377C29.7381 39.2464 29.7384 39.256 29.7422 39.2644C29.746 39.2728 29.753 39.2793 29.7616 39.2826C29.7702 39.2859 29.7798 39.2856 29.7882 39.2818C30.8239 38.8356 31.8821 38.4098 32.8932 37.9084C32.9095 37.8999 32.9218 37.8854 32.9274 37.8679C32.9329 37.8505 32.9313 37.8315 32.9229 37.8152C32.9145 37.7989 32.9 37.7867 32.8825 37.7811C32.865 37.7755 32.8461 37.7771 32.8298 37.7855Z" fill="#263238"/>
<path d="M33.143 30.6911C33.143 30.6563 33.0775 30.6481 33.0775 30.6911C33.0777 31.8477 33.0196 33.0036 32.9035 34.1543C32.8544 34.6885 32.4245 37.6339 31.4994 37.4292C31.3438 37.3924 31.266 37.2409 31.2415 37.0055C31.244 36.7 31.2853 36.396 31.3643 36.1009C31.4666 35.4868 31.5485 34.8728 31.6017 34.2403C31.7102 33.0782 31.6979 31.908 31.5649 30.7484C31.5631 30.7419 31.5593 30.7361 31.5539 30.732C31.5485 30.7278 31.542 30.7256 31.5352 30.7256C31.5284 30.7256 31.5218 30.7278 31.5165 30.732C31.5111 30.7361 31.5072 30.7419 31.5055 30.7484C31.5323 32.3593 31.4379 33.9699 31.223 35.5666C31.1064 36.3342 30.7195 37.4906 31.5239 37.6135C32.3283 37.7363 32.8707 35.7979 32.969 35.2678C33.225 33.7562 33.2835 32.2178 33.143 30.6911Z" fill="#263238"/>
<path d="M31.5239 37.4929C31.4419 37.6927 31.3735 37.8978 31.3192 38.1069C31.2603 38.2674 31.2312 38.4374 31.2333 38.6084C31.2343 38.6154 31.2374 38.6219 31.2422 38.6271C31.2469 38.6323 31.2532 38.6359 31.2601 38.6374C31.267 38.639 31.2741 38.6384 31.2807 38.6358C31.2872 38.6331 31.2928 38.6286 31.2967 38.6227C31.3934 38.4718 31.4659 38.3068 31.5116 38.1335C31.5833 37.9432 31.657 37.7569 31.7163 37.5645C31.7258 37.539 31.7248 37.5107 31.7135 37.486C31.7022 37.4612 31.6815 37.442 31.6559 37.4325C31.6304 37.423 31.6022 37.424 31.5774 37.4353C31.5527 37.4466 31.5334 37.4673 31.5239 37.4929Z" fill="#263238"/>
<path d="M31.9599 58.5751C31.8617 57.1178 31.8678 55.5806 31.2476 54.2297C30.9182 53.5714 30.5391 52.9392 30.1137 52.3385C29.6907 51.6917 29.2731 51.0415 28.861 50.3879C27.2236 47.7741 25.6434 45.1071 24.2045 42.3746C23.5106 41.0585 22.872 39.6994 22.5241 38.2461C22.1847 36.7169 22.1203 35.1394 22.3337 33.5876C22.3828 33.2007 22.4361 32.8159 22.4995 32.4311C22.4997 32.4259 22.4981 32.4208 22.495 32.4166C22.4918 32.4125 22.4873 32.4095 22.4822 32.4083C22.4771 32.4071 22.4718 32.4077 22.4671 32.41C22.4624 32.4123 22.4587 32.4161 22.4565 32.4209C22.1198 33.8966 22.0046 35.4142 22.1147 36.9239C22.2722 38.3672 22.6787 39.7724 23.3162 41.0769C23.9507 42.4503 24.706 43.7725 25.451 45.0886C26.2193 46.4532 27.01 47.7979 27.8233 49.1229C28.642 50.4452 29.4853 51.7408 30.3306 53.0426C30.7618 53.6566 31.0979 54.3321 31.3274 55.0464C31.5135 55.7918 31.6206 56.5547 31.6467 57.3225C31.8514 60.5442 32.6701 71.2552 32.9608 74.4605C32.9956 74.8698 33.0324 75.2792 33.0713 75.6886C33.0702 75.6928 33.07 75.6973 33.0708 75.7016C33.0717 75.7059 33.0735 75.71 33.0762 75.7135C33.0788 75.717 33.0823 75.7199 33.0862 75.7218C33.0902 75.7238 33.0945 75.7248 33.099 75.7248C33.1034 75.7248 33.1077 75.7238 33.1117 75.7218C33.1156 75.7199 33.1191 75.717 33.1217 75.7135C33.1244 75.71 33.1262 75.7059 33.1271 75.7016C33.1279 75.6973 33.1278 75.6928 33.1266 75.6886C33.0038 72.471 32.1707 61.7866 31.9599 58.5751Z" fill="#263238"/>
<path d="M26.9513 32.2879C26.9513 32.2654 26.9145 32.2736 26.9145 32.2879C26.8838 33.1824 26.9145 34.1075 26.5645 34.9488C26.2493 35.7245 25.6148 36.269 24.9045 36.6763C24.4915 36.9081 24.0657 37.1165 23.6294 37.3006C23.5987 37.3149 23.6109 37.364 23.6457 37.3538C24.4645 37.0918 25.3098 36.8073 25.9955 36.2587C26.7282 35.6693 27.0496 34.8157 27.0844 33.8947C27.0969 33.3559 27.0523 32.8173 26.9513 32.2879Z" fill="#263238"/>
<path d="M31.4932 17.7083C32.664 21.3025 35.8263 27.4245 36.9562 28.1634C37.9571 28.8164 42.6668 28.0877 44.7341 27.5903C45.5037 27.404 43.7721 21.5379 42.9513 21.7528C41.9668 22.0107 39.0337 22.6718 38.8208 22.5081C38.608 22.3443 35.6503 18.701 33.5544 16.5559C31.6467 14.6135 31.0511 16.3492 31.4932 17.7083Z" fill="#D3766A"/>
<path d="M44.2817 27.6354C44.6768 27.5863 48.0192 27.4307 49.5523 26.5977C50.371 26.1535 52.4608 24.6839 52.2521 24.1558C52.0617 23.6748 51.3903 23.9368 51.3903 23.9368C51.3903 23.9368 52.3135 23.2675 52.0433 22.6003C51.7731 21.933 50.6576 22.4345 50.6576 22.4345C50.6576 22.4345 51.5561 21.6771 51.2389 21.0324C50.9216 20.3876 49.8859 21.0774 49.8859 21.0774C49.8859 21.0774 50.7395 20.4245 50.2544 20.0028C49.669 19.4952 48.2301 20.8789 47.2578 21.2023C47.0368 21.276 42.6811 22.3771 42.6811 22.3771L44.2817 27.6354Z" fill="#D3766A"/>
<path d="M49.8491 21.059C48.7888 22.0721 48.1482 22.3321 46.7318 22.6186C46.7052 22.6186 46.7072 22.6678 46.7318 22.6637C48.1441 22.5102 48.9935 22.2993 49.8962 21.1081C49.9453 21.0487 49.8982 21.0098 49.8491 21.059Z" fill="#263238"/>
<path d="M50.6228 22.4095C49.4295 23.3675 48.7377 23.654 47.2762 24.0634C47.2558 24.0634 47.264 24.1064 47.2865 24.1023C48.752 23.8198 49.5953 23.5906 50.6617 22.4771C50.7108 22.428 50.6781 22.3666 50.6228 22.4095Z" fill="#263238"/>
<path d="M51.3187 23.9531C50.0906 24.7964 49.3517 25.1464 47.8821 25.3613C47.875 25.3613 47.8683 25.3641 47.8633 25.3691C47.8583 25.3741 47.8555 25.3809 47.8555 25.3879C47.8555 25.395 47.8583 25.4017 47.8633 25.4067C47.8683 25.4117 47.875 25.4145 47.8821 25.4145C49.4029 25.3408 50.3383 24.9131 51.3351 23.994C51.4088 23.9367 51.3944 23.9019 51.3187 23.9531Z" fill="#263238"/>
<path d="M41.539 22.5653C41.539 22.5653 42.7569 21.1878 43.4241 20.7006C44.0914 20.2135 47.2517 19.3129 47.485 19.9842C47.7859 20.8521 46.0645 21.7302 45.166 22.0495C45.166 22.0495 45.8639 24.0554 44.7566 24.9519C43.6493 25.8484 41.539 22.5653 41.539 22.5653Z" fill="#D3766A"/>
<path d="M47.4912 20.2524C47.1944 21.2411 45.9867 21.5849 45.1373 21.9595C45.1247 21.9649 45.1136 21.9732 45.1048 21.9837C45.096 21.9941 45.0898 22.0065 45.0866 22.0199C45.0834 22.0332 45.0834 22.047 45.0865 22.0604C45.0896 22.0737 45.0958 22.0861 45.1046 22.0966C45.342 22.9563 45.4239 24.2376 44.8221 24.9622C44.8057 24.9826 44.8323 25.0113 44.8528 24.9929C45.604 24.3051 45.6245 23.0382 45.3052 22.113C46.1832 21.7425 47.3786 21.3434 47.4993 20.2565C47.5014 20.2524 47.4932 20.2524 47.4912 20.2524Z" fill="#263238"/>
<path d="M44.2797 28.6444L42.7364 21.6156L38.917 22.3095C37.4106 20.584 34.3997 17.1351 33.1859 16.0994C31.7532 14.8836 30.8157 15.7965 31.3438 17.6386C32.5371 21.8489 36.0269 28.0303 36.9398 28.6137C38.2641 29.4631 44.2797 28.6444 44.2797 28.6444Z" fill="#0AAD0A"/>
<path opacity="0.1" d="M38.827 24.4485C39.0161 24.4896 39.2087 24.5122 39.4021 24.516C39.8115 24.5713 39.9916 25.1751 39.6191 25.4043C39.4235 25.5248 39.2023 25.5978 38.9734 25.6173C38.7445 25.6369 38.5142 25.6025 38.3009 25.5169C37.8916 25.3573 37.5457 24.9602 37.6337 24.4935C37.6489 24.4065 37.6864 24.3249 37.7425 24.2567C37.7986 24.1885 37.8714 24.136 37.9539 24.1043C38.0363 24.0725 38.1255 24.0627 38.2129 24.0756C38.3003 24.0886 38.3828 24.124 38.4524 24.1783C38.5658 24.2832 38.6916 24.374 38.827 24.4485ZM37.7708 22.7762C37.6234 23.4721 38.7001 24.0698 39.2507 23.6993C39.2951 23.6657 39.3313 23.6226 39.3567 23.573C39.3821 23.5235 39.396 23.4688 39.3974 23.4132C39.3987 23.3575 39.3876 23.3023 39.3646 23.2515C39.3417 23.2008 39.3077 23.1559 39.265 23.1201C39.1033 22.9891 38.9682 22.9686 38.8249 22.8499C38.7748 22.8108 38.7307 22.7646 38.6939 22.7128C38.6128 22.6009 38.5088 22.5074 38.389 22.4385C38.3266 22.4119 38.259 22.3997 38.1913 22.403C38.1235 22.4062 38.0574 22.4248 37.9979 22.4573C37.9384 22.4899 37.8871 22.5354 37.8477 22.5907C37.8084 22.6459 37.7821 22.7094 37.7708 22.7762ZM36.0535 22.8131C35.8325 23.1017 35.9983 23.5356 36.1927 23.7976C36.2803 23.9281 36.4008 24.033 36.5421 24.1017C36.6834 24.1704 36.8404 24.2003 36.9971 24.1885C37.0542 24.1805 37.1078 24.1561 37.1513 24.1183C37.1949 24.0806 37.2266 24.031 37.2426 23.9756C37.2586 23.9202 37.2582 23.8614 37.2415 23.8062C37.2249 23.751 37.1926 23.7018 37.1486 23.6645C37.0255 23.5709 36.9271 23.4487 36.862 23.3084C36.7658 23.0914 36.7024 22.811 36.4527 22.7169C36.3845 22.6888 36.3092 22.683 36.2375 22.7003C36.1658 22.7176 36.1015 22.757 36.0535 22.8131ZM40.5872 27.3652C40.2986 27.9485 41.1767 28.6117 41.7089 28.4971C41.887 28.4582 42.0589 28.2249 41.9013 28.057C41.7744 27.9219 41.6229 27.8155 41.5042 27.6722C41.3589 27.4982 41.2791 27.2751 41.0519 27.1871C40.9664 27.1513 40.8704 27.1499 40.7839 27.1831C40.6973 27.2162 40.6269 27.2815 40.5872 27.3652ZM32.3427 20.2116C32.2923 20.1157 32.2226 20.0314 32.138 19.9639C32.2526 20.2573 32.3734 20.5513 32.5003 20.8461C32.5071 20.6241 32.4525 20.4046 32.3427 20.2116ZM33.4827 19.5975C33.4427 19.0919 33.2451 18.6116 32.9178 18.2241C32.6722 17.9069 32.2465 17.4054 31.7962 17.5139C31.7483 17.5288 31.7065 17.5588 31.677 17.5993C31.6475 17.6399 31.6319 17.6889 31.6324 17.739C31.6038 18.0849 32.0008 18.4554 32.1728 18.7317C32.3775 19.0797 32.5392 19.4645 32.7602 19.8104C32.8064 19.8815 32.8744 19.9358 32.954 19.9651C33.0336 19.9944 33.1205 19.9971 33.2018 19.973C33.2831 19.9488 33.3544 19.8989 33.405 19.8309C33.4556 19.7629 33.4829 19.6803 33.4827 19.5955V19.5975ZM33.3497 21.7979C33.4297 21.7937 33.5062 21.7641 33.5681 21.7132C33.63 21.6624 33.674 21.593 33.6936 21.5154C33.7254 21.3565 33.7148 21.192 33.6629 21.0385C33.6323 20.8923 33.5614 20.7576 33.4582 20.6496C33.4212 20.6154 33.376 20.5914 33.327 20.5799C33.278 20.5685 33.2269 20.5699 33.1786 20.5841C33.1303 20.5984 33.0865 20.6249 33.0516 20.6611C33.0166 20.6974 32.9917 20.7421 32.9792 20.7908C32.9628 20.9103 32.9628 21.0315 32.9792 21.1511C32.9792 21.2022 32.9792 21.2534 32.9792 21.3066C32.9782 21.3837 32.9864 21.4607 33.0038 21.5359C33.0258 21.6106 33.0714 21.6763 33.1337 21.7231C33.196 21.77 33.2717 21.7955 33.3497 21.7958V21.7979Z" fill="#030402"/>
<path d="M42.9431 28.0303C42.7671 27.621 42.3291 25.8034 42.2329 25.351C42.1367 24.8987 41.7805 23.0688 41.6761 22.6042C41.6761 22.5776 41.7048 22.5633 41.7109 22.5878C41.8215 23.0463 42.3148 24.8516 42.4232 25.3019C42.5317 25.7522 42.939 27.5678 42.9677 28.0242C42.9681 28.0258 42.9682 28.0275 42.9679 28.0291C42.9677 28.0308 42.9671 28.0323 42.9663 28.0338C42.9645 28.0367 42.9617 28.0387 42.9585 28.0395C42.9552 28.0404 42.9518 28.0398 42.9489 28.0381C42.946 28.0364 42.9439 28.0336 42.9431 28.0303Z" fill="#263238"/>
<path opacity="0.1" d="M39.396 28.9964C38.3214 28.9964 37.3778 28.8941 36.9398 28.6137C36.0208 28.0201 32.531 21.8592 31.3295 17.6407C31.0266 16.5845 31.2087 15.8313 31.6877 15.6123L39.396 28.9964Z" fill="black"/>
<path d="M22.0758 30.4273C22.1024 30.4662 34.8746 32.1036 35.0117 31.9849C35.0839 31.6293 35.1352 31.2698 35.1652 30.9083C35.1652 30.9083 33.9944 17.0022 33.3886 16.1855C32.8585 15.4732 31.2497 14.9574 30.1546 15.422C27.856 16.3963 22.3521 28.8205 22.4115 29.3404C22.4074 29.3343 22.0431 30.3781 22.0758 30.4273Z" fill="#0AAD0A"/>
<path opacity="0.1" d="M26.6812 28.7344C26.8781 28.8301 27.0837 28.9069 27.2952 28.9637C27.7209 29.1336 27.7598 29.8438 27.2952 29.9871C27.0482 30.0655 26.7863 30.085 26.5304 30.0441C26.2746 30.0032 26.0318 29.9031 25.8215 29.7517C25.4121 29.4652 25.1481 28.933 25.3691 28.4581C25.4097 28.3678 25.4728 28.2894 25.5525 28.2305C25.6321 28.1716 25.7256 28.1341 25.8238 28.1218C25.9221 28.1095 26.0219 28.1226 26.1136 28.16C26.2053 28.1974 26.2859 28.2578 26.3475 28.3353C26.4621 28.4684 26.5317 28.6444 26.6812 28.7344ZM25.9811 26.6201C25.6311 27.3426 26.6443 28.2862 27.3464 28.0303C27.4052 28.0068 27.4577 27.97 27.4999 27.9227C27.542 27.8754 27.5727 27.819 27.5893 27.7579C27.606 27.6968 27.6083 27.6327 27.5959 27.5706C27.5836 27.5084 27.557 27.45 27.5183 27.3999C27.3791 27.2137 27.2358 27.1543 27.1089 26.9905C27.0651 26.934 27.03 26.8712 27.0046 26.8043C26.944 26.6614 26.8557 26.532 26.7446 26.4236C26.501 26.1882 26.1101 26.354 25.9811 26.6201ZM24.7981 25.8505C24.4153 25.9938 24.3171 26.5095 24.3457 26.8739C24.3516 27.0509 24.4044 27.2231 24.4986 27.3731C24.5928 27.523 24.7251 27.6453 24.882 27.7274C24.9412 27.7539 25.0068 27.7626 25.0709 27.7525C25.135 27.7425 25.1948 27.7141 25.243 27.6708C25.2913 27.6275 25.326 27.5712 25.343 27.5085C25.3599 27.4459 25.3583 27.3798 25.3384 27.318C25.2735 27.1544 25.2509 26.9769 25.2729 26.8022C25.3077 26.5402 25.4121 26.2332 25.2381 25.9978C25.1897 25.93 25.1211 25.8792 25.042 25.8527C24.963 25.8263 24.8776 25.8255 24.7981 25.8505ZM28.9941 28.2862C28.8972 28.2779 28.8008 28.307 28.7247 28.3675C28.6485 28.428 28.5985 28.5154 28.5847 28.6116C28.5742 28.7151 28.6002 28.8189 28.6581 28.9052C28.716 28.9915 28.8023 29.0549 28.902 29.0844C29.0415 29.1305 29.1922 29.1305 29.3318 29.0844C29.4032 29.0562 29.4621 29.0032 29.4976 28.935C29.5387 28.8691 29.5553 28.7909 29.5447 28.714C29.5333 28.6422 29.5004 28.5756 29.4504 28.5229C29.4003 28.4703 29.3354 28.4341 29.2642 28.4192C29.2514 28.4022 29.2362 28.3871 29.2192 28.3742C29.1542 28.3237 29.076 28.2932 28.9941 28.2862ZM25.8563 23.3472C25.5124 23.6993 25.6516 24.4996 26.0446 24.7698C26.0952 24.8082 26.155 24.8328 26.218 24.841C26.281 24.8492 26.3451 24.8408 26.4039 24.8166C26.4626 24.7924 26.514 24.7532 26.553 24.703C26.5919 24.6528 26.6171 24.5932 26.6259 24.5303C26.6319 24.4492 26.6319 24.3678 26.6259 24.2867C26.6259 24.1987 26.6136 24.1434 26.6259 24.082C26.6565 23.907 26.6627 23.7286 26.6443 23.5519C26.6284 23.4681 26.589 23.3905 26.5307 23.3282C26.4725 23.2659 26.3977 23.2215 26.3151 23.2C26.2325 23.1786 26.1456 23.181 26.0644 23.2071C25.9831 23.2331 25.911 23.2817 25.8563 23.3472ZM23.6355 28.4397C23.1627 29.0005 23.9425 29.9625 24.5545 29.981C24.7592 29.981 25.011 29.7763 24.8841 29.5511C24.7817 29.371 24.6446 29.2113 24.5545 29.0251C24.444 28.7958 24.4174 28.5277 24.1922 28.3722C24.1083 28.3104 24.0039 28.2831 23.9005 28.2956C23.797 28.3082 23.7023 28.3597 23.6355 28.4397ZM34.9278 28.2616C34.8507 28.2732 34.7789 28.3073 34.7213 28.3598C34.6637 28.4123 34.623 28.4807 34.6044 28.5564C34.5389 28.7836 34.5307 28.9862 34.3608 29.1704C34.1769 29.315 34.0119 29.4821 33.8696 29.6678C33.8458 29.7141 33.8345 29.7659 33.8368 29.8179C33.839 29.87 33.8547 29.9205 33.8823 29.9647C33.91 30.0088 33.9486 30.045 33.9945 30.0698C34.0403 30.0945 34.0918 30.1069 34.1439 30.1058C34.5013 30.0619 34.8285 29.8833 35.0588 29.6064C35.0178 29.2175 34.9769 28.761 34.9298 28.2534L34.9278 28.2616ZM33.9044 26.573C33.7898 26.8514 33.8102 27.1666 33.714 27.4572C33.6296 27.7237 33.5291 27.9848 33.4131 28.2391C33.3272 28.4233 33.4991 28.714 33.7222 28.6157C34.085 28.4764 34.3819 28.2052 34.5532 27.8564C34.7088 27.535 34.8807 26.9946 34.7313 26.6528C34.5819 26.311 34.0743 26.1616 33.9003 26.5648L33.9044 26.573ZM32.7377 29.3628C32.5676 29.5826 32.35 29.761 32.1011 29.8848C32.0418 29.9032 31.9871 29.934 31.9406 29.9751C31.8942 30.0163 31.8569 30.0668 31.8315 30.1234C31.806 30.1801 31.7929 30.2415 31.793 30.3035C31.793 30.3656 31.8063 30.427 31.8319 30.4836C31.8574 30.5401 31.8948 30.5906 31.9413 30.6317C31.9879 30.6727 32.0427 30.7034 32.102 30.7217C32.1613 30.74 32.2239 30.7454 32.2855 30.7377C32.3471 30.73 32.4063 30.7092 32.4593 30.6769C32.6711 30.5861 32.8604 30.45 33.0139 30.2781C33.1674 30.1062 33.2813 29.9028 33.3476 29.6821C33.4438 29.328 32.9649 29.0967 32.7336 29.3546L32.7377 29.3628ZM30.8669 19.3334C30.9813 19.3576 31.1005 19.3366 31.1998 19.2748C31.299 19.213 31.3704 19.1151 31.3991 19.0018C31.5137 18.5618 31.1207 18.1094 30.8096 17.8351C30.4985 17.5609 30.0605 17.3111 29.6245 17.4524C29.5664 17.4712 29.5142 17.5045 29.4726 17.5492C29.4311 17.5939 29.4016 17.6484 29.3871 17.7077C29.3725 17.7669 29.3733 17.8289 29.3894 17.8877C29.4056 17.9466 29.4364 18.0003 29.4792 18.0439C29.6695 18.2813 29.9335 18.4533 30.1362 18.6866C30.3388 18.9199 30.5067 19.2659 30.8628 19.3252L30.8669 19.3334ZM32.4368 21.0712C32.6087 20.8235 32.4757 20.4571 32.3529 20.2217C32.2875 20.0919 32.1858 19.9838 32.0602 19.9106C31.9757 19.8565 31.8732 19.838 31.775 19.8591C31.6769 19.8802 31.5911 19.9391 31.5362 20.0232C31.4804 20.1396 31.4716 20.273 31.5116 20.3957C31.5287 20.4599 31.5521 20.5223 31.5812 20.582V20.6004V20.6168C31.6178 20.8122 31.7006 20.9961 31.8228 21.153C31.865 21.1956 31.9166 21.2278 31.9734 21.2471C32.0301 21.2665 32.0906 21.2724 32.1501 21.2645C32.2096 21.2565 32.2664 21.235 32.3161 21.2014C32.3659 21.1679 32.4072 21.1233 32.4368 21.0712ZM33.493 19.6056C33.4529 19.1 33.2553 18.6197 32.928 18.2322C32.6824 17.915 32.2567 17.4135 31.8064 17.522C31.7585 17.5369 31.7168 17.5669 31.6873 17.6074C31.6578 17.648 31.6421 17.697 31.6426 17.7471C31.614 18.093 32.0111 18.4635 32.183 18.7398C32.3877 19.0878 32.5494 19.4726 32.7704 19.8185C32.8186 19.8857 32.8868 19.936 32.9652 19.9622C33.0436 19.9884 33.1283 19.9892 33.2072 19.9645C33.2862 19.9398 33.3553 19.8908 33.4047 19.8245C33.4542 19.7583 33.4815 19.6781 33.4827 19.5954L33.493 19.6056ZM31.9476 23.1098C32.0225 23.1261 32.1 23.1261 32.1748 23.1098C32.2883 23.0749 32.3842 22.998 32.4429 22.8949C32.4979 22.7851 32.5253 22.6635 32.5228 22.5408C32.5191 22.4245 32.4875 22.3107 32.4307 22.2092L32.3631 22.1253L32.2731 22.0598C32.2167 22.0307 32.1546 22.0147 32.0912 22.013C32.0278 22.0113 31.9649 22.0239 31.9071 22.0498C31.8492 22.0758 31.798 22.1145 31.7572 22.163C31.7164 22.2115 31.687 22.2685 31.6713 22.3299C31.6372 22.4492 31.6133 22.571 31.5997 22.6943L31.6181 22.8069C31.6324 22.8633 31.6605 22.9154 31.7 22.9583C31.7618 23.0298 31.8451 23.0793 31.9374 23.0995L31.9476 23.1098ZM33.3599 21.806C33.4399 21.8018 33.5165 21.7722 33.5783 21.7213C33.6402 21.6705 33.6842 21.6012 33.7038 21.5235C33.7356 21.3646 33.725 21.2001 33.6731 21.0466C33.6425 20.9004 33.5716 20.7657 33.4684 20.6577C33.4315 20.6235 33.3863 20.5995 33.3372 20.588C33.2882 20.5766 33.2371 20.578 33.1888 20.5923C33.1405 20.6065 33.0968 20.633 33.0618 20.6692C33.0269 20.7055 33.0019 20.7502 32.9894 20.7989C32.9731 20.9184 32.9731 21.0396 32.9894 21.1592C32.9894 21.2103 32.9894 21.2615 32.9894 21.3147C32.9884 21.3918 32.9966 21.4688 33.014 21.544C33.0369 21.6156 33.0815 21.6783 33.1417 21.7234C33.2018 21.7685 33.2745 21.7938 33.3497 21.7957L33.3599 21.806Z" fill="#030402"/>
<path d="M32.6415 18.3651C31.8617 18.2935 30.8628 16.6274 30.6725 15.5692C30.6602 15.4955 30.9713 14.8794 31.3131 14.1139C31.5178 13.6493 31.7388 13.1253 31.9026 12.634L34.7354 14.4168C34.3532 14.9729 34.0404 15.5737 33.8041 16.2057C33.7829 16.2725 33.7679 16.341 33.7591 16.4104C33.7598 16.422 33.7598 16.4336 33.7591 16.4452C33.6874 16.8546 33.3968 18.4347 32.6415 18.3651Z" fill="#D3766A"/>
<path d="M33.7591 16.4146C33.7597 16.4262 33.7597 16.4378 33.7591 16.4494C33.6499 16.428 33.5425 16.3986 33.4377 16.3614C31.6652 15.7228 31.9783 13.3976 32.1032 12.7549L32.8093 13.2011L34.7436 14.4292C34.3615 14.985 34.0494 15.5859 33.8143 16.2181C33.79 16.2818 33.7715 16.3475 33.7591 16.4146Z" fill="#263238"/>
<path d="M32.1994 9.3531C31.614 10.4072 31.5116 13.7926 32.1605 14.6912C33.0979 15.993 34.981 16.5006 36.1743 15.3052C37.3308 14.1345 37.384 9.71948 36.6307 8.868C35.5173 7.60307 33.0631 7.79547 32.1994 9.3531Z" fill="#D3766A"/>
<path d="M34.9176 12.0898C34.9176 12.0898 34.8991 12.0898 34.8991 12.1103C34.8991 12.3436 34.8582 12.6097 34.6453 12.6793V12.6937C34.9053 12.665 34.9544 12.3109 34.9176 12.0898Z" fill="#263238"/>
<path d="M34.719 11.84C34.3444 11.7991 34.2892 12.5482 34.6351 12.5871C34.981 12.626 35.0322 11.8748 34.719 11.84Z" fill="#263238"/>
<path d="M36.2603 12.1694C36.2603 12.1694 36.2766 12.1817 36.2766 12.1919C36.25 12.4232 36.2603 12.6934 36.4629 12.7855C36.4629 12.7855 36.4629 12.8019 36.4629 12.7999C36.2071 12.7425 36.1989 12.3843 36.2603 12.1694Z" fill="#263238"/>
<path d="M36.4875 11.9446C36.862 11.9446 36.8313 12.6958 36.4875 12.6958C36.1436 12.6958 36.1723 11.9425 36.4875 11.9446Z" fill="#263238"/>
<path d="M35.0219 11.6884C34.9176 11.711 34.8173 11.713 34.7149 11.7253C34.6089 11.753 34.4967 11.7451 34.3956 11.7028C34.3662 11.6834 34.344 11.6548 34.3325 11.6215C34.3211 11.5881 34.3209 11.552 34.3322 11.5186C34.3657 11.4575 34.4148 11.4064 34.4745 11.3705C34.5342 11.3345 34.6023 11.315 34.6719 11.3139C34.8133 11.2867 34.9597 11.3145 35.0813 11.3917C35.1066 11.4107 35.126 11.4364 35.1373 11.466C35.1485 11.4956 35.1512 11.5277 35.145 11.5587C35.1388 11.5898 35.124 11.6184 35.1022 11.6413C35.0804 11.6643 35.0526 11.6806 35.0219 11.6884Z" fill="#263238"/>
<path d="M36.8231 11.2465C36.7238 11.2186 36.626 11.1851 36.5304 11.1462C36.4228 11.1259 36.3249 11.0705 36.2521 10.9886C36.2339 10.9586 36.2262 10.9234 36.2303 10.8885C36.2344 10.8537 36.25 10.8212 36.2746 10.7962C36.3305 10.7535 36.397 10.7267 36.4669 10.7188C36.5368 10.7109 36.6076 10.722 36.6717 10.7512C36.8099 10.789 36.9294 10.8765 37.0074 10.9968C37.0235 11.0253 37.0311 11.058 37.0291 11.0907C37.0272 11.1235 37.0158 11.155 36.9963 11.1814C36.9768 11.2078 36.9501 11.228 36.9193 11.2396C36.8886 11.2511 36.8552 11.2535 36.8231 11.2465Z" fill="#263238"/>
<path d="M34.7477 13.9361C35.0491 13.864 35.3632 13.864 35.6646 13.9361C35.6913 13.9361 35.7179 13.8829 35.724 13.8584L35.7404 13.3671C35.8038 13.404 36.1231 13.5718 36.1231 13.4817C36.1564 12.6833 36.1078 11.8836 35.9778 11.0952C35.9764 11.0906 35.9735 11.0866 35.9697 11.0837C35.9658 11.0809 35.9611 11.0793 35.9563 11.0793C35.9515 11.0793 35.9468 11.0809 35.943 11.0837C35.9391 11.0866 35.9363 11.0906 35.9348 11.0952C35.9021 11.8341 35.9962 12.5709 35.9737 13.3139C35.8608 13.2513 35.7395 13.2051 35.6135 13.1768C35.5869 13.1768 35.6135 13.6987 35.6135 13.7765C35.3317 13.6794 35.0233 13.6963 34.7538 13.8236C34.6474 13.8911 34.6044 13.9812 34.7477 13.9361Z" fill="#263238"/>
<path d="M34.1418 14.4231C34.193 14.4804 34.2442 14.5582 34.326 14.5705C34.4121 14.5746 34.498 14.5599 34.5778 14.5275C34.5778 14.5275 34.5921 14.5275 34.5778 14.5397C34.5425 14.5832 34.496 14.6161 34.4433 14.6349C34.3906 14.6537 34.3337 14.6576 34.2789 14.6462C34.2342 14.6319 34.1946 14.6049 34.1648 14.5686C34.135 14.5323 34.1164 14.4882 34.1111 14.4415C34.1152 14.419 34.1336 14.4149 34.1418 14.4231Z" fill="#263238"/>
<path opacity="0.2" d="M33.188 8.27856C33.1573 8.8046 33.0324 10.4359 32.7786 10.7675C32.5248 11.0991 31.9886 11.8707 31.7163 11.9956C31.7532 10.9087 31.921 9.87508 32.2014 9.33472C32.4313 8.90178 32.7717 8.53739 33.188 8.27856Z" fill="#263238"/>
<path d="M36.1047 9.87286C35.9616 10.0185 35.7836 10.1251 35.5876 10.1825C35.3916 10.2398 35.1842 10.2459 34.9851 10.2004C34.7814 10.155 34.5928 10.0579 34.4375 9.91847C34.2823 9.779 34.1656 9.60185 34.0988 9.40414C34.0988 9.39186 34.0763 9.40414 34.0804 9.40414C34.1324 9.6176 34.242 9.81271 34.3972 9.96825C34.5523 10.1238 34.7472 10.2338 34.9605 10.2863C35.1735 10.327 35.3935 10.3105 35.598 10.2386C35.8026 10.1667 35.9845 10.0419 36.1252 9.87695C36.1375 9.879 36.1211 9.86058 36.1047 9.87286Z" fill="#263238"/>
<path d="M35.0772 6.83973C34.7626 6.81846 34.4478 6.87667 34.1616 7.00902C33.8755 7.14136 33.6272 7.34358 33.4397 7.59706C33.28 7.85502 33.2122 8.15943 33.2473 8.46081H33.274C33.2778 8.19636 33.3531 7.93787 33.4918 7.71269C33.6306 7.4875 33.8275 7.30399 34.062 7.18155C34.3182 7.0381 34.6042 6.95588 34.8975 6.94132C35.1908 6.92676 35.4835 6.98026 35.7527 7.09763C36.0174 7.2068 36.235 7.40621 36.3667 7.66051C36.379 7.68712 36.4322 7.67483 36.422 7.64823C36.2541 7.20202 35.7117 6.87044 35.0772 6.83973Z" fill="#263238"/>
<path d="M38.9866 8.62469C38.8976 8.27817 38.6888 7.97435 38.3971 7.76707C37.9878 7.47438 37.5088 7.47847 37.0299 7.49484C37.0155 7.49484 37.0176 7.51531 37.0299 7.51327C37.4371 7.47075 37.8479 7.5468 38.2129 7.73228C38.51 7.91057 38.7363 8.18607 38.8536 8.51211C38.9651 8.84653 38.9522 9.20996 38.8172 9.53562C38.6822 9.86127 38.4342 10.1272 38.1188 10.2847C37.9352 10.3709 37.7359 10.4187 37.5331 10.4251C37.3303 10.4314 37.1284 10.3962 36.9398 10.3215C36.9255 10.3215 36.9132 10.3358 36.9275 10.344C37.1828 10.4567 37.4644 10.4959 37.7407 10.457C38.017 10.4181 38.2769 10.3027 38.4911 10.1239C38.7052 9.94503 38.8651 9.70988 38.9527 9.44497C39.0403 9.18005 39.052 8.89593 38.9866 8.62469Z" fill="#263238"/>
<path d="M31.9947 10.0184C31.9947 10.0184 31.4298 8.73095 32.0336 8.0555C32.3754 7.67479 33.4029 7.80578 33.4029 7.80578C33.7098 7.41616 34.1589 7.16437 34.6515 7.10577C35.5296 6.96863 36.5304 7.56221 36.5304 7.56221C36.5304 7.56221 37.386 7.15285 38.1208 7.65023C39.1442 8.3441 38.8884 9.96722 37.7708 10.4093C36.9848 10.7225 36.0065 9.97336 36.0065 9.97336C35.9082 9.97336 34.848 10.5137 34.15 9.55172C34.15 9.55172 33.4868 10.0573 32.9567 9.62745C32.8559 9.78351 32.7095 9.90474 32.5374 9.97469C32.3653 10.0446 32.1758 10.0599 31.9947 10.0184Z" fill="#263238"/>
<path d="M32.3283 12.1571C32.3283 12.1571 31.7921 10.9557 31.2619 11.1337C30.7318 11.3118 30.9897 12.9452 31.5137 13.2645C31.5776 13.3089 31.6497 13.34 31.7258 13.356C31.8019 13.3721 31.8805 13.3726 31.9568 13.3578C32.0332 13.3429 32.1057 13.3128 32.1703 13.2694C32.2348 13.2259 32.2899 13.17 32.3324 13.1048L32.3283 12.1571Z" fill="#D3766A"/>
<path d="M31.3479 11.5964V11.6108C31.7122 11.8461 31.8494 12.2535 31.921 12.6608C31.9056 12.6169 31.8809 12.5769 31.8485 12.5435C31.8161 12.5101 31.7768 12.4841 31.7334 12.4674C31.69 12.4507 31.6435 12.4435 31.5971 12.4465C31.5507 12.4495 31.5055 12.4626 31.4646 12.4848C31.4523 12.4848 31.4646 12.5073 31.4646 12.5073C31.5391 12.4987 31.6145 12.5138 31.6799 12.5506C31.7453 12.5873 31.7975 12.6438 31.8289 12.712C31.8845 12.8227 31.927 12.9394 31.9558 13.0599C31.9558 13.0988 32.0336 13.0927 32.0295 13.0599C32.1339 12.5318 31.878 11.752 31.3479 11.5964Z" fill="#263238"/>
<path d="M60.6988 14.5419L38.6623 21.2917L42.6355 34.2632L64.672 27.5133L60.6988 14.5419Z" fill="#0AAD0A"/>
<path opacity="0.2" d="M60.6988 14.5419L38.6623 21.2917L42.6355 34.2632L64.672 27.5133L60.6988 14.5419Z" fill="black"/>
<path opacity="0.2" d="M60.6978 14.542L53.2923 16.8103L57.2655 29.7818L64.671 27.5134L60.6978 14.542Z" fill="black"/>
<path d="M60.3431 15.2031C60.0934 16.3521 59.8505 17.501 59.6145 18.65L58.9165 22.105L58.241 25.5744C58.02 26.7288 57.8044 27.8852 57.5942 29.0437C57.844 27.8961 58.0868 26.7472 58.3229 25.5969L59.0209 22.1418L59.6963 18.6807C59.9174 17.5208 60.133 16.3616 60.3431 15.2031Z" fill="#0AAD0A"/>
<path d="M63.9803 27.0787C63.1616 26.2381 62.3354 25.401 61.5016 24.5672L59.0045 22.0783L56.491 19.6078C55.6505 18.7891 54.8058 17.9703 53.9571 17.1516C54.7758 17.9935 55.602 18.8307 56.4358 19.6631L58.9329 22.152L61.4464 24.6225C62.2883 25.4494 63.1329 26.2681 63.9803 27.0787Z" fill="#0AAD0A"/>
<path d="M42.8947 22.9634L43.016 22.9263L42.4939 21.2217L42.3725 21.2588L42.8947 22.9634Z" fill="#263238"/>
<path d="M42.6064 23.0499L42.7278 23.0127L42.2056 21.3081L42.0843 21.3453L42.6064 23.0499Z" fill="#263238"/>
<path d="M42.3155 23.1429L42.4369 23.1057L41.9148 21.4011L41.7934 21.4383L42.3155 23.1429Z" fill="#263238"/>
<path d="M42.0277 23.2264L42.149 23.1892L41.6272 21.4845L41.5058 21.5217L42.0277 23.2264Z" fill="#263238"/>
<path d="M41.7371 23.3165L41.8585 23.2793L41.3363 21.5747L41.215 21.6119L41.7371 23.3165Z" fill="#263238"/>
<path d="M41.4483 23.4031L41.5696 23.366L41.0475 21.6614L40.9262 21.6985L41.4483 23.4031Z" fill="#263238"/>
<path d="M41.1561 23.4986L41.2774 23.4614L40.7553 21.7568L40.6339 21.794L41.1561 23.4986Z" fill="#263238"/>
<path d="M40.8668 23.5846L40.9882 23.5474L40.4658 21.8428L40.3444 21.88L40.8668 23.5846Z" fill="#263238"/>
<path d="M40.575 23.6766L40.6963 23.6394L40.1742 21.9348L40.0529 21.972L40.575 23.6766Z" fill="#263238"/>
<path d="M43.7209 20.9873L43.2174 20.9996L44.3084 20.6619L43.8826 20.9361L44.075 21.5625C44.4209 21.5031 44.6543 21.7917 44.8303 22.3648L43.7393 22.7087C43.5633 22.1376 43.594 21.7671 43.9133 21.6218L43.7209 20.9873Z" fill="#263238"/>
<path d="M44.818 21.4233L45.1025 21.3353L44.8467 20.5002L45.5753 20.2771L45.8312 21.1122L46.1177 21.0242L45.7329 22.0926L44.818 21.4233Z" fill="#263238"/>
<path opacity="0.1" d="M38.6632 21.2923L38.9887 22.3566L54.2211 19.8431L53.2918 16.8118L38.6632 21.2923Z" fill="black"/>
<path d="M67.5275 28.9841L60.12 31.252L57.2647 29.7824L64.6721 27.5125L67.5275 28.9841Z" fill="#0AAD0A"/>
<path opacity="0.2" d="M67.5275 28.9841L60.12 31.252L57.2647 29.7824L64.6721 27.5125L67.5275 28.9841Z" fill="black"/>
<path d="M41.0928 37.0812L48.5002 34.8113L50.0415 31.9949L42.6341 34.2627L41.0928 37.0812Z" fill="#0AAD0A"/>
<path opacity="0.1" d="M41.0928 37.0812L48.5002 34.8113L50.0415 31.9949L42.6341 34.2627L41.0928 37.0812Z" fill="black"/>
<path d="M28.902 19.2904C29.9847 22.9113 32.9956 29.1152 34.1132 29.8725C35.0977 30.55 39.8238 29.9339 41.8911 29.4856C42.6648 29.3199 41.0723 23.4127 40.2536 23.6072C39.2629 23.8426 36.3135 24.4259 36.1047 24.2642C35.8959 24.1025 33.0345 20.3753 30.9877 18.1893C29.1292 16.1998 28.4926 17.9211 28.902 19.2904Z" fill="#D3766A"/>
<path d="M39.8279 24.088C39.8279 24.088 41.3937 22.3236 42.5031 21.6502C43.6741 20.98 44.9904 20.6042 46.3388 20.5552C47.7941 20.4979 51.3535 21.3616 51.2819 22.4301C51.2184 23.3982 47.6262 22.3298 47.6262 22.3298C47.6262 22.3298 51.4681 22.8149 51.1775 23.9672C50.8868 25.1196 46.787 23.6397 46.787 23.6397C46.787 23.6397 50.7231 24.2251 50.2441 25.3693C49.8757 26.231 46.087 25.1012 46.087 25.1012C46.087 25.1012 49.4684 25.6292 49.1266 26.5339C48.7499 27.5307 45.1864 26.7079 45.1864 26.7079C43.9358 28.853 42.4601 29.3688 41.3691 29.6001C41.0969 29.6472 39.8279 24.088 39.8279 24.088Z" fill="#D3766A"/>
<path d="M46.3081 22.0762C46.7604 22.1171 47.221 22.156 47.6692 22.2358C48.1175 22.3156 48.5616 22.4139 49.0017 22.5367C49.5782 22.6849 50.1358 22.8984 50.6637 23.1733C49.6915 22.7537 48.0909 22.4385 47.6426 22.3545C47.1944 22.2706 46.7502 22.1703 46.304 22.0905C46.2917 22.0946 46.2958 22.0762 46.3081 22.0762Z" fill="#263238"/>
<path d="M45.9867 23.6911C46.5619 23.7669 47.1391 23.8221 47.7122 23.9245C48.2853 24.0268 48.8154 24.1742 49.3783 24.3154C49.4213 24.3256 49.4008 24.3461 49.3579 24.3359C48.7888 24.2171 48.2567 24.1517 47.6877 24.0411C47.1186 23.9306 46.5537 23.7955 45.9826 23.7034C45.9745 23.7034 45.9765 23.6891 45.9867 23.6911Z" fill="#263238"/>
<path d="M45.4607 25.0255C46.3483 25.1218 47.2235 25.3098 48.0725 25.5863C48.1154 25.5986 48.0868 25.6211 48.0417 25.6109C47.178 25.4062 46.5005 25.2424 45.4587 25.0562C45.4423 25.0541 45.4423 25.0234 45.4607 25.0255Z" fill="#263238"/>
<path d="M41.4223 30.5336L40.0469 23.4679L36.2132 24.0697C34.7477 22.3094 31.8207 18.7889 30.6254 17.7246C29.2233 16.474 28.2634 17.3664 28.7444 19.2187C29.8455 23.4536 33.1859 29.7087 34.0906 30.3227C35.3883 31.2029 41.4223 30.5336 41.4223 30.5336Z" fill="#0AAD0A"/>
<path opacity="0.1" d="M38.827 24.4483C39.016 24.4894 39.2087 24.512 39.4021 24.5158C39.8115 24.5711 39.9916 25.1749 39.6191 25.4042C39.4235 25.5246 39.2023 25.5976 38.9734 25.6172C38.7445 25.6367 38.5142 25.6023 38.3009 25.5167C37.8916 25.3571 37.5457 24.96 37.6337 24.4933C37.6489 24.4063 37.6864 24.3248 37.7425 24.2565C37.7986 24.1883 37.8714 24.1358 37.9539 24.1041C38.0363 24.0723 38.1255 24.0625 38.2129 24.0755C38.3002 24.0884 38.3828 24.1238 38.4524 24.1781C38.5658 24.283 38.6916 24.3738 38.827 24.4483ZM38.4176 23.7237C38.546 23.7856 38.6875 23.8157 38.83 23.8114C38.9725 23.8072 39.1119 23.7686 39.2363 23.6992C39.2822 23.6685 39.319 23.6261 39.3428 23.5763L38.4176 23.7237ZM36.4261 24.0348C36.589 24.1539 36.7902 24.2085 36.991 24.1883C37.0602 24.1788 37.1239 24.1454 37.171 24.0938C37.2182 24.0422 37.2457 23.9757 37.2489 23.9059L36.4261 24.0348ZM40.7653 27.189C40.6843 27.2229 40.6187 27.2856 40.5811 27.365C40.4092 27.7109 40.6486 28.0834 40.9905 28.3065L40.7653 27.189ZM34.6003 28.5481C34.5348 28.7753 34.5266 28.9779 34.3567 29.1621C34.1738 29.3095 34.0101 29.4794 33.8696 29.6677C33.8458 29.714 33.8345 29.7658 33.8368 29.8178C33.839 29.8698 33.8547 29.9204 33.8823 29.9646C33.91 30.0087 33.9486 30.0449 33.9945 30.0697C34.0403 30.0944 34.0918 30.1068 34.1439 30.1057C34.5005 30.0618 34.8276 29.8856 35.0604 29.6118C35.2931 29.3381 35.4146 28.9869 35.4006 28.6279C35.3891 28.5359 35.3467 28.4505 35.2803 28.3857C35.214 28.321 35.1276 28.2806 35.0353 28.2714C34.9431 28.2621 34.8504 28.2844 34.7725 28.3347C34.6946 28.385 34.636 28.4602 34.6064 28.5481H34.6003ZM33.8941 26.5647C33.7795 26.8431 33.8 27.1583 33.7038 27.4489C33.6194 27.7154 33.5189 27.9765 33.4029 28.2308C33.3169 28.415 33.4889 28.7057 33.712 28.6074C34.0748 28.4681 34.3716 28.1969 34.543 27.8481C34.6985 27.5267 34.8705 26.9863 34.7211 26.6445C34.5716 26.3027 34.0743 26.1615 33.9003 26.5647H33.8941ZM30.8567 19.3251C30.971 19.3493 31.0903 19.3283 31.1895 19.2665C31.2887 19.2047 31.3602 19.1068 31.3888 18.9935C31.5035 18.5535 31.1105 18.1011 30.7994 17.8268C30.4882 17.5526 30.0502 17.3028 29.6142 17.4441C29.5562 17.4629 29.5039 17.4962 29.4624 17.5409C29.4208 17.5856 29.3914 17.6401 29.3768 17.6994C29.3623 17.7586 29.3631 17.8206 29.3792 17.8794C29.3953 17.9383 29.4262 17.992 29.4689 18.0356C29.6593 18.273 29.9233 18.445 30.126 18.6783C30.3286 18.9116 30.5067 19.2657 30.8628 19.3251H30.8567ZM32.4368 21.071C32.6087 20.8234 32.4757 20.457 32.3529 20.2216C32.2875 20.0918 32.1858 19.9837 32.0602 19.9105C31.9757 19.8564 31.8732 19.8379 31.775 19.859C31.6769 19.88 31.5911 19.939 31.5362 20.0231C31.4804 20.1395 31.4716 20.2729 31.5116 20.3956C31.5287 20.4598 31.5521 20.5222 31.5812 20.5818V20.6003V20.6166C31.6178 20.8121 31.7006 20.996 31.8228 21.1529C31.865 21.1955 31.9166 21.2277 31.9734 21.247C32.0302 21.2664 32.0906 21.2723 32.1501 21.2644C32.2096 21.2564 32.2664 21.2349 32.3161 21.2013C32.3659 21.1678 32.4072 21.1232 32.4368 21.071ZM31.9476 23.1179C32.0225 23.1342 32.1 23.1342 32.1748 23.1179C32.2883 23.0829 32.3842 23.0061 32.4429 22.9029C32.4979 22.7932 32.5253 22.6716 32.5228 22.5488C32.5191 22.4325 32.4875 22.3188 32.4307 22.2173L32.3631 22.1333L32.2731 22.0678C32.2167 22.0388 32.1546 22.0228 32.0912 22.0211C32.0278 22.0194 31.9649 22.032 31.9071 22.0579C31.8492 22.0839 31.798 22.1225 31.7572 22.171C31.7164 22.2195 31.687 22.2766 31.6713 22.338C31.6372 22.4572 31.6133 22.5791 31.5997 22.7024L31.6181 22.8149C31.6324 22.8714 31.6605 22.9235 31.7 22.9664C31.763 23.0348 31.8461 23.0814 31.9374 23.0994L31.9476 23.1179ZM33.6649 21.0403L33.2555 20.5798C33.1901 20.572 33.1241 20.5886 33.0701 20.6263C33.0162 20.6641 32.978 20.7204 32.9628 20.7845C32.9465 20.904 32.9465 21.0252 32.9628 21.1447C32.9628 21.1959 32.9628 21.2471 32.9628 21.3003C32.9618 21.3774 32.97 21.4544 32.9874 21.5295C33.0098 21.6074 33.0576 21.6756 33.1233 21.7231C33.189 21.7706 33.2687 21.7947 33.3497 21.7915C33.4297 21.7874 33.5062 21.7577 33.5681 21.7069C33.63 21.6561 33.674 21.5867 33.6936 21.5091C33.7243 21.3529 33.7144 21.1915 33.6649 21.0403Z" fill="#030402"/>
<path d="M40.1001 29.8847C39.9343 29.4651 39.5454 27.6434 39.4533 27.187C39.3612 26.7306 39.0562 24.8966 38.9641 24.4279C38.9641 24.4033 38.9928 24.3869 38.9989 24.4136C39.0972 24.8741 39.5495 26.6896 39.6457 27.144C39.7419 27.5984 40.1083 29.4201 40.1247 29.8786C40.1255 29.8818 40.125 29.8853 40.1232 29.8881C40.1215 29.891 40.1187 29.8931 40.1154 29.8939C40.1122 29.8947 40.1087 29.8942 40.1059 29.8925C40.103 29.8908 40.1009 29.888 40.1001 29.8847Z" fill="#263238"/>
<path d="M38.8352 30.7322C38.2068 30.769 37.5784 30.7833 36.95 30.7792C36.3194 30.782 35.6891 30.7458 35.0629 30.6707C34.742 30.639 34.4283 30.5561 34.1336 30.4251C33.8687 30.2381 33.6387 30.006 33.4541 29.7394C33.083 29.2273 32.7473 28.6904 32.4491 28.1327C31.835 27.0295 31.307 25.8812 30.7912 24.7391C30.2754 23.5969 29.8066 22.4221 29.3768 21.239C29.8988 22.3832 30.4146 23.5294 30.9508 24.6654C31.4871 25.8014 32.0295 26.9333 32.6149 28.0406C32.907 28.5929 33.2296 29.1286 33.581 29.6453C33.745 29.9025 33.9528 30.129 34.195 30.3146C34.4741 30.4433 34.7719 30.5269 35.0772 30.5623C36.3238 30.7133 37.58 30.7701 38.8352 30.7322Z" fill="#263238"/>
<path d="M29.7759 22.2381C29.6919 22.1531 29.6158 22.0606 29.5487 21.9617C29.4793 21.8638 29.4261 21.7553 29.3911 21.6404C29.422 21.6912 29.4555 21.7404 29.4914 21.7878L29.5917 21.9331C29.6591 22.031 29.7206 22.1328 29.7759 22.2381Z" fill="#263238"/>
<path d="M33.0079 20.3403C33.5257 20.8602 33.9903 21.4313 34.4713 21.9778C34.9523 22.5243 35.4129 23.1015 35.9041 23.6459L36.0863 23.8506C36.119 23.8813 36.1497 23.9161 36.1804 23.9448C36.2111 23.9734 36.2111 23.9714 36.2255 23.9837C36.2255 23.9837 36.2398 23.9837 36.248 23.9837C36.4035 23.9837 36.6 23.9489 36.7761 23.9264L37.865 23.7647C38.5895 23.6582 39.3162 23.5477 40.0428 23.4494L40.0714 23.6296L40.0285 23.4515H40.0387C39.3203 23.605 38.6059 23.7421 37.8773 23.8752C37.515 23.9407 37.1527 23.998 36.7883 24.0533C36.6021 24.0856 36.4142 24.1075 36.2255 24.1188C36.2105 24.1207 36.1954 24.1207 36.1804 24.1188C36.1604 24.1127 36.1416 24.103 36.1252 24.0901C36.1045 24.0741 36.0847 24.057 36.0658 24.0389L35.9655 23.9407C35.9 23.8731 35.8386 23.8056 35.7772 23.736C35.2962 23.1772 34.8295 22.6123 34.3711 22.0392L33.6854 21.1775C33.4602 20.9093 33.2555 20.6146 33.0079 20.3403Z" fill="#263238"/>
<path d="M33.276 20.4019C33.3531 20.4966 33.4216 20.5979 33.4807 20.7048C33.5384 20.8103 33.5791 20.9243 33.6014 21.0425C33.5769 20.9872 33.5462 20.9381 33.5175 20.8849L33.4336 20.7273C33.3753 20.6217 33.3226 20.5131 33.276 20.4019Z" fill="#263238"/>
<path d="M8.72648 73.9239C8.65072 72.0087 8.67737 70.0908 8.80631 68.1785C9.08858 64.237 9.69027 60.325 10.6055 56.4809C11.1069 54.3154 11.7251 52.1826 12.3698 50.058C12.3882 49.9946 12.4906 50.013 12.4742 50.0785C10.4827 57.578 8.84724 65.3191 8.95982 73.1134C8.99257 75.2953 9.24433 77.4383 9.45105 79.6059C9.45105 79.6652 9.36099 79.6877 9.34871 79.6284C8.9373 77.7678 8.80426 75.8193 8.72648 73.9239Z" fill="#0AAD0A"/>
<path d="M12.4742 50.0681C12.4742 50.0681 15.4912 57.7273 14.8158 59.5265C14.1403 61.3256 12.7464 61.7104 12.7464 61.7104C12.7464 61.7104 14.5886 64.3467 13.3032 66.8275C12.0178 69.3082 9.14812 69.1813 8.95572 71.9854C8.95572 71.9773 8.79607 60.2572 12.4742 50.0681Z" fill="#0AAD0A"/>
<path d="M9.28526 67.1387C9.28022 67.1256 9.28022 67.111 9.28526 67.0978C9.68316 61.8691 10.6656 56.7014 12.2143 51.6914C12.2143 51.6771 12.2429 51.6812 12.2388 51.6914C11.6411 53.9306 11.1131 56.1821 10.6546 58.4459C11.0578 58.0631 11.5503 57.7873 12.0874 57.6435C12.0874 57.6435 12.1017 57.6435 12.0874 57.6579C11.5205 57.8676 11.0113 58.2085 10.6014 58.6526C10.514 59.0947 10.4287 59.5389 10.3455 59.9851C11.0189 59.2319 11.9543 58.8573 12.8897 58.5012C12.902 58.5012 12.9102 58.5175 12.8897 58.5216C11.9154 58.9187 10.9432 59.4304 10.2841 60.2696C10.0521 61.54 9.84745 62.8152 9.67006 64.0951C10.1579 63.5868 10.7829 63.2312 11.4692 63.0717C11.4897 63.0717 11.502 63.0983 11.4692 63.1045C10.7609 63.3091 10.1273 63.7152 9.6455 64.2732H9.63322C9.57318 64.7235 9.51655 65.1745 9.46333 65.6261C9.85213 65.3052 10.2913 65.0507 10.7631 64.8729C10.7753 64.8729 10.7815 64.8872 10.7631 64.8913C10.301 65.0962 9.87793 65.3794 9.51246 65.7285C9.51246 65.7285 9.51246 65.7285 9.49608 65.7285C9.44696 66.1563 9.39579 66.5861 9.3528 67.0159C10.0326 66.1949 10.9143 65.565 11.9113 65.1881C11.9133 65.1873 11.9155 65.1869 11.9177 65.1869C11.9198 65.187 11.922 65.1874 11.924 65.1883C11.926 65.1891 11.9278 65.1904 11.9293 65.1919C11.9308 65.1935 11.932 65.1953 11.9328 65.1973C11.9336 65.1993 11.934 65.2015 11.934 65.2037C11.934 65.2058 11.9335 65.208 11.9327 65.21C11.9318 65.212 11.9306 65.2138 11.929 65.2153C11.9275 65.2168 11.9256 65.218 11.9236 65.2188C10.9388 65.6527 10.0736 66.3184 9.40193 67.1592C9.39502 67.1691 9.38509 67.1764 9.37364 67.1801C9.36218 67.1838 9.34984 67.1836 9.33848 67.1797C9.27298 67.8387 9.21362 68.4999 9.16654 69.161H9.15017C9.18292 68.4917 9.22999 67.8142 9.28526 67.1387Z" fill="#263238"/>
<path d="M11.7087 56.8904C12.2549 56.55 12.8793 56.3555 13.5222 56.3254C13.5365 56.3254 13.5385 56.3459 13.5222 56.348C12.9012 56.4629 12.2983 56.6597 11.7292 56.9333C11.7238 56.9344 11.7182 56.9337 11.7134 56.9312C11.7085 56.9288 11.7046 56.9247 11.7022 56.9198C11.6999 56.9149 11.6992 56.9093 11.7004 56.904C11.7016 56.8986 11.7045 56.8939 11.7087 56.8904Z" fill="#263238"/>
<path d="M11.3423 64.9978C11.7624 64.758 12.2244 64.6003 12.7034 64.5332C12.7198 64.5332 12.7219 64.5557 12.7034 64.5578C12.2341 64.6521 11.7801 64.8113 11.3546 65.0306C11.3403 65.0388 11.3239 65.0081 11.3423 64.9978Z" fill="#263238"/>
<path d="M0.795055 59.6515C2.07075 60.5341 3.2422 61.5586 4.28693 62.7054C5.36717 63.9174 6.20139 65.3279 6.74311 66.8584C7.88795 70.048 8.50397 73.4033 8.56682 76.7916C8.60604 78.6681 8.42537 80.5428 8.02851 82.3773C8.02503 82.3901 8.01688 82.4012 8.00567 82.4083C7.99445 82.4154 7.98098 82.4181 7.9679 82.4158C7.95482 82.4135 7.94307 82.4064 7.93497 82.3958C7.92687 82.3853 7.923 82.3721 7.92412 82.3589C8.4185 79.1212 8.40192 75.8261 7.875 72.5935C7.35511 69.4251 6.54252 65.9782 4.52845 63.4033C3.42112 62.0074 2.05385 60.9001 0.711135 59.7559C0.63131 59.6986 0.72137 59.6003 0.795055 59.6515Z" fill="#0AAD0A"/>
<path d="M8.11653 74.5116C7.39088 73.3364 6.53764 72.245 5.57233 71.2571C4.06178 69.7486 2.79071 68.6761 2.59421 67.6773C2.39772 66.6784 4.10681 65.9456 4.10681 65.9456C4.10681 65.9456 2.01701 66.3202 1.44595 65.4421C0.874884 64.564 0.598564 59.49 0.598564 59.49C0.598564 59.49 4.39541 62.2123 6.17 66.005C7.94459 69.7978 8.11653 74.5116 8.11653 74.5116Z" fill="#0AAD0A"/>
<path d="M1.95561 64.2589C2.20571 64.2232 2.45898 64.2149 2.71088 64.2344C2.74158 64.2344 2.73954 64.2876 2.71088 64.2876C2.46117 64.2876 2.21146 64.2753 1.9597 64.2876C1.93923 64.2835 1.93923 64.2589 1.95561 64.2589Z" fill="#263238"/>
<path d="M4.69015 69.1711C5.09195 69.1795 5.48906 69.2592 5.86298 69.4065C5.86298 69.4065 5.86298 69.425 5.86298 69.4229C5.47613 69.3308 5.08519 69.2919 4.69425 69.2285C4.65536 69.2285 4.6574 69.1711 4.69015 69.1711Z" fill="#263238"/>
<path d="M5.51093 67.4745C5.6778 67.4731 5.8444 67.4882 6.00831 67.5195C6.02468 67.5195 6.02263 67.5502 6.00831 67.5502C5.84211 67.5585 5.6755 67.5502 5.51093 67.5256C5.50537 67.524 5.50048 67.5207 5.497 67.5161C5.49352 67.5114 5.49163 67.5058 5.49163 67.5C5.49163 67.4943 5.49352 67.4886 5.497 67.484C5.50048 67.4794 5.50537 67.476 5.51093 67.4745Z" fill="#263238"/>
<path d="M19.2553 65.0407C18.0194 65.4596 16.8349 66.0171 15.7245 66.7027C14.5748 67.4372 13.5775 68.3865 12.7874 69.4987C11.1236 71.8158 9.84938 74.3891 9.01508 77.1169C8.55082 78.6266 8.2637 80.1851 8.15951 81.7612C8.15951 81.7731 8.16425 81.7845 8.1727 81.793C8.18114 81.8014 8.1926 81.8062 8.20454 81.8062C8.21648 81.8062 8.22793 81.8014 8.23638 81.793C8.24482 81.7845 8.24957 81.7731 8.24957 81.7612C8.59544 79.0305 9.36689 76.3708 10.5359 73.8789C11.6882 71.435 13.1435 68.8335 15.3684 67.2165C16.5801 66.3343 17.9412 65.7591 19.2983 65.1492C19.3781 65.1164 19.3372 65.0161 19.2553 65.0407Z" fill="#0AAD0A"/>
<path d="M9.89726 75.373C10.7556 74.5891 11.6981 73.9027 12.7075 73.3262C14.2795 72.4543 15.5547 71.8791 15.9456 71.1177C16.3365 70.3563 15.1269 69.3656 15.1269 69.3656C15.1269 69.3656 16.7295 70.1516 17.3948 69.5703C18.06 68.989 19.4559 64.9465 19.4559 64.9465C19.4559 64.9465 15.7553 66.2647 13.4423 68.9337C11.1294 71.6028 9.89726 75.373 9.89726 75.373Z" fill="#0AAD0A"/>
<path d="M12.9695 71.6561C13.3328 71.6307 13.6976 71.6752 14.0441 71.7871C14.0441 71.7871 14.0441 71.8055 14.0441 71.8035C13.69 71.7441 13.3324 71.7072 12.9736 71.693C12.9687 71.6935 12.9638 71.6921 12.96 71.689C12.9562 71.6859 12.9537 71.6815 12.9532 71.6766C12.9526 71.6717 12.954 71.6668 12.9571 71.663C12.9602 71.6591 12.9646 71.6567 12.9695 71.6561Z" fill="#263238"/>
<path d="M16.1994 67.4193C16.3651 67.4073 16.5316 67.417 16.6947 67.4479C16.6979 67.4491 16.7006 67.4512 16.7025 67.4539C16.7044 67.4567 16.7054 67.4599 16.7054 67.4633C16.7054 67.4666 16.7044 67.4699 16.7025 67.4726C16.7006 67.4754 16.6979 67.4775 16.6947 67.4786C16.533 67.4602 16.3713 67.4664 16.2076 67.4623C16.2026 67.462 16.1977 67.4601 16.1939 67.4568C16.1901 67.4534 16.1876 67.4489 16.1866 67.444C16.1857 67.439 16.1864 67.4339 16.1887 67.4294C16.1911 67.4249 16.1948 67.4214 16.1994 67.4193Z" fill="#263238"/>
<path d="M5.12203 86.8658H13.4771L12.2859 78.1361L11.9809 75.8989H6.61826L6.31328 78.1361L5.12203 86.8658Z" fill="#455A64"/>
<path d="M6.31328 78.1361H12.2859L11.9809 75.8989H6.61825L6.31328 78.1361Z" fill="#263238"/>
<path d="M5.84865 77.0166H12.7485V75.1212H5.84865V77.0166Z" fill="#455A64"/>
<path d="M49.6301 4.85423C49.63 5.69657 49.3959 6.52232 48.9539 7.23936C48.5118 7.9564 47.8793 8.53652 47.1267 8.91501C46.3742 9.2935 45.5313 9.45546 44.6921 9.38284C43.8529 9.31021 43.0504 9.00585 42.3741 8.5037L40.1451 9.07272L41.0723 6.99929C40.746 6.38964 40.563 5.71361 40.5372 5.02259C40.5114 4.33157 40.6435 3.64377 40.9235 3.01149C41.2035 2.37921 41.624 1.8191 42.1529 1.37375C42.6819 0.928399 43.3055 0.609536 43.9763 0.441408C44.647 0.27328 45.3473 0.260314 46.0238 0.403497C46.7003 0.54668 47.3352 0.84224 47.8804 1.2677C48.4255 1.69317 48.8664 2.23733 49.1696 2.85881C49.4728 3.48029 49.6303 4.16273 49.6301 4.85423Z" fill="white"/>
<path d="M49.6301 4.85217C49.6298 5.69557 49.3976 6.52263 48.9587 7.24286C48.852 7.42441 48.7344 7.59939 48.6067 7.76684C48.4709 7.92718 48.3253 8.07893 48.1707 8.22124C47.8653 8.50911 47.5208 8.75236 47.1473 8.94376C46.7726 9.135 46.373 9.27279 45.9601 9.35313C45.7529 9.39439 45.5428 9.42038 45.3318 9.43091C45.1213 9.44831 44.9098 9.44831 44.6993 9.43091C43.8479 9.36485 43.0316 9.06369 42.3414 8.56101L42.4028 8.57329L40.1799 9.15868L39.9998 9.20576L40.0755 9.03382L40.9946 6.9563V7.04227C40.6603 6.42079 40.4735 5.73072 40.4486 5.02547C40.4238 4.32022 40.5615 3.61871 40.8513 2.97524C41.1414 2.33358 41.5732 1.76604 42.1142 1.31527C42.6545 0.871157 43.2884 0.55518 43.9683 0.391051C44.6483 0.226922 45.3565 0.218903 46.04 0.367597C46.7172 0.521666 47.3515 0.825171 47.8964 1.25592C48.4384 1.68535 48.876 2.23206 49.1763 2.85495C49.4765 3.47783 49.6317 4.16069 49.6301 4.85217ZM49.6301 4.85217C49.6297 3.81237 49.2695 2.80474 48.6106 2.00034C47.9517 1.19594 47.0348 0.644361 46.0154 0.439236C45.3447 0.305731 44.6525 0.32673 43.9911 0.50064C43.3319 0.670893 42.7206 0.990211 42.2042 1.43399C41.6926 1.88257 41.2847 2.43713 41.0089 3.05916C40.7369 3.67944 40.6095 4.35347 40.6364 5.03025C40.6679 5.70028 40.8468 6.35512 41.1604 6.94812L41.1829 6.9911L41.1624 7.03408L40.227 9.10546L40.1226 8.98265L42.3557 8.43001H42.3905L42.4171 8.45048C43.079 8.95319 43.8679 9.26151 44.6952 9.34085C44.8996 9.35589 45.1048 9.35589 45.3093 9.34085C45.9347 9.31935 46.5483 9.16369 47.1084 8.88441C47.482 8.70252 47.8268 8.46666 48.1318 8.1844C48.2863 8.0442 48.4319 7.89449 48.5678 7.73614C48.6981 7.57329 48.8191 7.40313 48.9301 7.22648C49.3769 6.51428 49.6191 5.69285 49.6301 4.85217Z" fill="#263238"/>
<path d="M45.3993 5.34552V5.84699C45.4007 5.8971 45.3919 5.94697 45.3734 5.99355C45.3548 6.04013 45.327 6.08244 45.2915 6.11789C45.2561 6.15334 45.2138 6.18118 45.1672 6.19971C45.1206 6.21824 45.0708 6.22707 45.0206 6.22565C44.971 6.22565 44.9219 6.21585 44.8761 6.19679C44.8302 6.17774 44.7886 6.14981 44.7536 6.11462C44.7186 6.07943 44.6909 6.03767 44.6721 5.99175C44.6533 5.94582 44.6438 5.89662 44.644 5.84699V5.04669C44.644 5.04669 44.644 5.04669 44.644 5.03031C44.644 5.01394 44.644 5.03031 44.644 5.01598C44.6466 4.91672 44.687 4.82219 44.7571 4.75178C44.8271 4.68138 44.9214 4.64043 45.0206 4.63732C45.1375 4.64302 45.2542 4.62492 45.3639 4.58413C45.4735 4.54334 45.5737 4.48072 45.6584 4.40004C45.7431 4.31937 45.8105 4.22234 45.8566 4.11482C45.9027 4.00731 45.9264 3.89156 45.9264 3.77459C45.9264 3.65762 45.9027 3.54187 45.8566 3.43436C45.8105 3.32684 45.7431 3.22981 45.6584 3.14914C45.5737 3.06846 45.4735 3.00583 45.3639 2.96505C45.2542 2.92426 45.1375 2.90616 45.0206 2.91186C44.8711 2.91138 44.7241 2.95029 44.5944 3.02467C44.4647 3.09905 44.3569 3.20627 44.2817 3.33555C44.2565 3.37915 44.223 3.41735 44.183 3.44796C44.143 3.47856 44.0973 3.50097 44.0486 3.5139C44 3.52683 43.9492 3.53003 43.8993 3.52331C43.8494 3.51658 43.8013 3.50008 43.7578 3.47473C43.715 3.44943 43.6778 3.41594 43.648 3.37618C43.6183 3.33642 43.5967 3.29118 43.5846 3.24305C43.5724 3.19492 43.5699 3.14487 43.5771 3.09576C43.5843 3.04664 43.6012 2.99945 43.6268 2.95689C43.7614 2.72503 43.9515 2.53024 44.18 2.39C44.4085 2.24977 44.6683 2.16848 44.936 2.15343C45.2037 2.13838 45.4709 2.19005 45.7137 2.30379C45.9565 2.41754 46.1672 2.58979 46.327 2.8051C46.4868 3.02041 46.5906 3.27202 46.6291 3.53735C46.6676 3.80269 46.6396 4.07343 46.5477 4.32527C46.4557 4.57712 46.3026 4.80218 46.1022 4.98026C45.9017 5.15833 45.6602 5.28384 45.3993 5.34552ZM45.3993 7.03415V7.17333C45.4004 7.22327 45.3914 7.27292 45.3727 7.31926C45.3541 7.3656 45.3262 7.40766 45.2908 7.44289C45.2554 7.47811 45.2132 7.50577 45.1667 7.52417C45.1203 7.54258 45.0706 7.55135 45.0206 7.54995C44.9208 7.54995 44.825 7.51027 44.7543 7.43964C44.6837 7.36901 44.644 7.27321 44.644 7.17333V7.03415C44.6451 6.9344 44.685 6.83901 44.7554 6.76828C44.8257 6.69755 44.9209 6.65708 45.0206 6.65549C45.0705 6.65494 45.12 6.66436 45.1662 6.68319C45.2124 6.70203 45.2544 6.7299 45.2896 6.76517C45.3249 6.80044 45.3528 6.8424 45.3716 6.88859C45.3904 6.93478 45.3999 6.98427 45.3993 7.03415Z" fill="#0AAD0A"/>
</svg>
