<svg width="31" height="25" viewBox="0 0 31 25" fill="none" xmlns="http://www.w3.org/2000/svg">
<path fill-rule="evenodd" clip-rule="evenodd" d="M7.76515 18.5451C7.25727 18.5451 6.84535 18.9567 6.84535 19.4649C6.84535 19.9729 7.25727 20.3846 7.76515 20.3846C8.27303 20.3846 8.68494 19.9729 8.68494 19.4649C8.68494 18.9567 8.27303 18.5451 7.76515 18.5451ZM7.91432 19.4649C7.91432 19.5473 7.84742 19.6141 7.76515 19.6141C7.68287 19.6141 7.61597 19.5473 7.61597 19.4649C7.61597 19.3823 7.68286 19.3156 7.76515 19.3156C7.84743 19.3156 7.91432 19.3823 7.91432 19.4649Z" fill="#0AAD0A"/>
<path fill-rule="evenodd" clip-rule="evenodd" d="M17.4639 18.5451C16.9559 18.5451 16.5441 18.9569 16.5441 19.4649C16.5441 19.9729 16.9559 20.3847 17.4639 20.3847C17.9716 20.3847 18.3836 19.973 18.3836 19.4649C18.3836 18.9568 17.9716 18.5451 17.4639 18.5451ZM17.613 19.4649C17.613 19.5473 17.5462 19.6141 17.4639 19.6141C17.3815 19.6141 17.3147 19.5474 17.3147 19.4649C17.3147 19.3824 17.3815 19.3157 17.4639 19.3157C17.5462 19.3157 17.613 19.3825 17.613 19.4649Z" fill="#0AAD0A"/>
<path fill-rule="evenodd" clip-rule="evenodd" d="M27.1369 1.28276C26.2649 1.28276 25.4898 1.83611 25.2066 2.66033L21.4391 13.6215C21.4368 13.6283 21.4345 13.6351 21.4321 13.6419L20.8986 15.1938C20.6508 15.9152 20.1712 16.5093 19.5604 16.9044C20.3006 17.5113 20.7729 18.433 20.7729 19.4649C20.7729 20.5472 20.2534 21.5081 19.45 22.1119C21.191 22.3561 23.0143 22.7021 24.9033 23.1758C25.2469 23.262 25.4556 23.6103 25.3695 23.9539C25.2833 24.2975 24.9349 24.5062 24.5914 24.42C17.7538 22.7055 11.8036 22.7061 7.56675 23.1341C5.44856 23.3481 3.76001 23.6688 2.60491 23.9347C2.02743 24.0677 1.58351 24.1869 1.28615 24.2721C1.13748 24.3147 1.02548 24.3488 0.951758 24.3719C0.914899 24.3834 0.887616 24.3922 0.87011 24.3979L0.851211 24.4041L0.847311 24.4054C0.511861 24.5187 0.147519 24.3389 0.0340143 24.0035C-0.0795247 23.668 0.100439 23.3039 0.435974 23.1904L0.641554 23.7979C0.435974 23.1904 0.435684 23.1905 0.435974 23.1904L0.439549 23.1892L0.446876 23.1867L0.472709 23.1782C0.494874 23.171 0.526892 23.1607 0.568561 23.1477C0.651895 23.1216 0.773839 23.0845 0.932758 23.039C1.25058 22.9479 1.7164 22.823 2.31713 22.6847C3.18285 22.4854 4.32923 22.2582 5.71709 22.0645C4.94888 21.4585 4.45574 20.5193 4.45574 19.4649C4.45574 17.9152 5.52091 16.6142 6.95908 16.2543C7.05841 16.1912 7.17628 16.1546 7.30269 16.1546H17.7554C18.6264 16.1546 19.4024 15.6011 19.6855 14.7771L19.9304 14.0645H6.78946C6.01267 14.0645 5.35959 13.5278 5.15905 12.792L2.77773 4.06921C2.55814 3.26584 3.1258 2.38965 4.02071 2.38965H22.0192C22.3734 2.38965 22.6605 2.6768 22.6605 3.03103C22.6605 3.38525 22.3734 3.67241 22.0192 3.67241H4.02632C4.02536 3.67342 4.02419 3.67479 4.02289 3.67659C4.01399 3.68899 4.00869 3.7076 4.015 3.73064L6.39653 12.4541C6.45435 12.6665 6.62634 12.7818 6.78946 12.7818H20.3713L21.2142 10.3294H8.03047C7.67625 10.3294 7.38909 10.0422 7.38909 9.68801C7.38909 9.33379 7.67625 9.04663 8.03047 9.04663H21.6551L22.3236 7.10185H6.61763C6.2634 7.10185 5.97625 6.8147 5.97625 6.46047C5.97625 6.10625 6.2634 5.81909 6.61763 5.81909H22.7562L22.7645 5.81915L23.9935 2.24351C24.4547 0.901191 25.7172 0 27.1369 0H30.2708C30.625 0 30.9121 0.287156 30.9121 0.64138C30.9121 0.995605 30.625 1.28276 30.2708 1.28276H27.1369ZM10.2435 21.6577C11.7048 21.596 13.3001 21.5939 15.0086 21.6838C14.4778 21.0969 14.1545 20.3186 14.1545 19.4649C14.1545 18.701 14.4133 17.9975 14.848 17.4374H10.3807C10.8155 17.9975 11.0743 18.701 11.0743 19.4649C11.0743 20.3061 10.7605 21.0739 10.2435 21.6577ZM7.76501 17.4383C6.64582 17.4383 5.7385 18.3456 5.7385 19.4649C5.7385 20.5841 6.64577 21.4913 7.76501 21.4913C8.88426 21.4913 9.79157 20.584 9.79157 19.4649C9.79157 18.3456 8.88422 17.4383 7.76501 17.4383ZM17.4638 17.4383C16.3445 17.4383 15.4372 18.3456 15.4372 19.4649C15.4372 20.5841 16.3445 21.4913 17.4638 21.4913C18.5829 21.4913 19.4902 20.5841 19.4902 19.4649C19.4902 18.3456 18.5829 17.4383 17.4638 17.4383Z" fill="#0AAD0A"/>
</svg>
