<svg width="85" height="82" viewBox="0 0 85 82" fill="none" xmlns="http://www.w3.org/2000/svg">
<path d="M42.7652 81.0677C66.0532 81.0677 84.9319 70.1677 84.9319 56.7219C84.9319 43.276 66.0532 32.376 42.7652 32.376C19.4772 32.376 0.598572 43.276 0.598572 56.7219C0.598572 70.1677 19.4772 81.0677 42.7652 81.0677Z" fill="#F5F5F5"/>
<path d="M70.5681 68.661C77.1747 68.661 82.5305 65.5687 82.5305 61.7542C82.5305 57.9397 77.1747 54.8474 70.5681 54.8474C63.9615 54.8474 58.6057 57.9397 58.6057 61.7542C58.6057 65.5687 63.9615 68.661 70.5681 68.661Z" fill="#E0E0E0"/>
<path d="M40.2939 65.4799L26.7993 57.686L42.224 48.781L55.7204 56.5731L40.2939 65.4799Z" fill="#E0E0E0"/>
<path d="M3.54839 63.0696L20.9534 73.118L35.552 64.6915L18.147 54.6431L3.54839 63.0696Z" fill="#E0E0E0"/>
<path d="M29.285 15.8383V14.8491C29.2775 14.7919 29.2555 14.7376 29.2209 14.6915C29.1864 14.6454 29.1406 14.6089 29.0878 14.5856L23.1147 11.1591C22.9724 11.0876 22.8152 11.0503 22.6559 11.0503C22.4966 11.0503 22.3395 11.0876 22.1971 11.1591L5.03048 21.0157C4.97774 21.039 4.93188 21.0755 4.89735 21.1216C4.86282 21.1678 4.84077 21.222 4.83334 21.2792V22.2684C4.84061 22.3256 4.86259 22.38 4.89714 22.4262C4.93169 22.4723 4.97763 22.5088 5.03048 22.5319L11.0018 25.953C11.1442 26.0246 11.3013 26.0618 11.4606 26.0618C11.6199 26.0618 11.777 26.0246 11.9194 25.953L29.086 16.0964C29.1389 16.0733 29.1848 16.0369 29.2194 15.9907C29.2539 15.9445 29.2759 15.8902 29.2832 15.8329L29.285 15.8383Z" fill="#F0F0F0"/>
<path d="M5.03047 21.5372L11.0018 24.9638C11.1439 25.0362 11.3011 25.0739 11.4606 25.0739C11.6201 25.0739 11.7773 25.0362 11.9194 24.9638L29.086 15.1071C29.3387 14.962 29.3387 14.7272 29.086 14.5803L23.1147 11.1591C22.9724 11.0876 22.8152 11.0503 22.6559 11.0503C22.4966 11.0503 22.3395 11.0876 22.1971 11.1591L5.03047 21.0157C4.77779 21.1573 4.77779 21.3921 5.03047 21.5372Z" fill="#FAFAFA"/>
<path d="M11.4606 25.0748V26.0622C11.3009 26.0646 11.1432 26.027 11.0018 25.9529L5.03048 22.5354C4.97763 22.5122 4.93169 22.4758 4.89714 22.4297C4.86259 22.3835 4.84061 22.3291 4.83334 22.2719V21.2809C4.83685 21.2408 4.84975 21.2021 4.87098 21.168C4.80109 21.2952 4.85306 21.4422 5.03048 21.5443L11.0018 24.9655C11.1429 25.0406 11.3008 25.0782 11.4606 25.0748Z" fill="#E0E0E0"/>
<path d="M14.6685 16.7164L19.7276 19.5999L28.0842 14.8042L23.0269 11.9189L14.6685 16.7164Z" fill="#E0E0E0"/>
<path d="M19.785 19.3812L14.905 16.5802C15.0318 16.1664 15.0224 15.7229 14.8781 15.3149L19.7276 18.0856C19.7276 18.0856 19.8208 18.392 19.785 19.3812Z" fill="white"/>
<path d="M19.4785 17.6968C19.6147 17.7848 19.7282 17.9037 19.8098 18.0438C19.8914 18.184 19.9388 18.3414 19.948 18.5033V19.4459C19.948 19.7434 19.7366 19.8635 19.4785 19.7165L14.6756 16.9495V16.7165L19.4212 19.4226C19.5771 19.5122 19.7025 19.4387 19.7025 19.2613V18.3868C19.6971 18.2896 19.6688 18.1952 19.6199 18.1111C19.571 18.027 19.5029 17.9556 19.4212 17.9029L14.6756 15.1878V14.9226L19.4785 17.6968Z" fill="#EBEBEB"/>
<path d="M14.6756 14.9315L23.0269 10.134L27.8351 12.8939C27.9717 12.982 28.0854 13.1011 28.167 13.2416C28.2486 13.3821 28.2958 13.5399 28.3047 13.7021V14.6502C28.311 14.7081 28.3016 14.7667 28.2773 14.8198C28.253 14.8728 28.2148 14.9182 28.1667 14.9512L19.8101 19.7487C19.8572 19.715 19.8947 19.6693 19.9186 19.6165C19.9425 19.5636 19.952 19.5054 19.9463 19.4477V18.5032C19.9375 18.3412 19.8904 18.1836 19.8088 18.0433C19.7271 17.9031 19.6133 17.7843 19.4767 17.6968L14.6756 14.9315Z" fill="#FAFAFA"/>
<path d="M19.81 18.0391C19.8952 18.1774 19.9428 18.3355 19.948 18.4979V19.4423C19.9538 19.5001 19.9443 19.5583 19.9204 19.6112C19.8965 19.664 19.859 19.7096 19.8118 19.7434L28.1685 14.9459C28.2165 14.9129 28.2548 14.8675 28.279 14.8144C28.3033 14.7614 28.3128 14.7028 28.3065 14.6448V13.7022C28.3012 13.5398 28.2537 13.3817 28.1685 13.2434L19.81 18.0391Z" fill="#F0F0F0"/>
<path d="M9.52509 9.53906L9.4767 10.1771L15.1254 13.2075L15.2527 12.8348L9.52509 9.53906Z" fill="#EBEBEB"/>
<path d="M15.1774 12.9834L9.7061 9.82568L8.75449 10.3741L14.3333 13.6375L15.1774 12.9834Z" fill="white"/>
<path d="M13.3065 13.2988L12.7688 19.6393C12.7715 19.7109 12.7912 19.7808 12.8265 19.8432C12.8617 19.9055 12.9114 19.9585 12.9713 19.9978L16.1452 21.8347C16.1958 21.8627 16.2522 21.8786 16.31 21.8813L14.3387 13.8508C14.2812 13.8477 14.225 13.8324 14.1738 13.806L13.9462 13.6734L13.3065 13.2988Z" fill="#E0E0E0"/>
<path d="M14.5753 13.7989L15.1416 13.3133L15.5556 12.9548C15.5986 12.8867 15.6487 12.8366 15.6219 12.7756L17.5681 20.747C17.595 20.8025 17.6022 20.9262 17.5251 20.9728L16.5448 21.8115C16.4706 21.8508 16.3864 21.867 16.3029 21.8581L14.3315 13.8276C14.4138 13.8418 14.4985 13.8319 14.5753 13.7989Z" fill="#F0F0F0"/>
<path d="M15.5574 12.7236C15.6685 12.7881 15.6416 12.8598 15.5574 12.9565L14.5753 13.797C14.5128 13.8297 14.4433 13.8468 14.3728 13.8468C14.3022 13.8468 14.2328 13.8297 14.1703 13.797L13.3065 13.2988C13.1936 13.2343 13.1738 13.1411 13.2617 13.0909C13.3194 13.0675 13.3817 13.0576 13.4438 13.062C13.5059 13.0663 13.5662 13.0848 13.6201 13.116L14.3011 13.5103C14.3219 13.5208 14.3449 13.5263 14.3683 13.5263C14.3916 13.5263 14.4147 13.5208 14.4355 13.5103L15.1523 12.8866C15.19 12.8651 15.19 12.8311 15.1523 12.8096L9.5251 9.53897L9.79392 9.38306L15.5574 12.7236Z" fill="#FAFAFA"/>
<path d="M7.89427 9.84546L13.276 12.953V23.1931L7.89427 20.0838V9.84546Z" fill="#EBEBEB"/>
<path d="M13.1022 13.1233L7.89427 10.134C7.57576 10.4717 7.15862 10.7001 6.70251 10.7864L11.8674 13.7631C11.8674 13.7631 12.2007 13.6842 13.1022 13.1233Z" fill="white"/>
<path d="M11.3674 13.754C11.5226 13.8318 11.6938 13.8722 11.8674 13.8722C12.041 13.8722 12.2122 13.8318 12.3674 13.754L13.2419 13.2415C13.5179 13.082 13.5179 12.8257 13.2419 12.6662L8.11112 9.71997L7.89428 9.84542L12.9427 12.7612C12.9799 12.772 13.0126 12.7947 13.0359 12.8257C13.0591 12.8567 13.0717 12.8945 13.0717 12.9332C13.0717 12.972 13.0591 13.0097 13.0359 13.0408C13.0126 13.0718 12.9799 13.0944 12.9427 13.1053L12.1273 13.5748C12.0341 13.6216 11.9313 13.646 11.8271 13.646C11.7228 13.646 11.62 13.6216 11.5269 13.5748L6.4803 10.6572L6.23299 10.7988L11.3674 13.754Z" fill="#FAFAFA"/>
<path d="M6.23477 10.7988V21.0372L11.3674 23.9834C11.5226 24.0612 11.6938 24.1016 11.8674 24.1016C12.041 24.1016 12.2122 24.0612 12.3674 23.9834L13.2455 23.4798C13.3026 23.4547 13.3519 23.4146 13.3881 23.3638C13.4244 23.313 13.4463 23.2535 13.4516 23.1913V12.9529C13.4461 13.0153 13.4236 13.0749 13.3866 13.1255C13.3497 13.176 13.2997 13.2155 13.2419 13.2397L12.3674 13.754C12.2122 13.8318 12.041 13.8722 11.8674 13.8722C11.6938 13.8722 11.5226 13.8318 11.3674 13.754L6.23477 10.7988Z" fill="#EBEBEB"/>
<path d="M11.8674 13.8633C12.0414 13.8667 12.2134 13.826 12.3674 13.745L13.242 13.2396C13.299 13.2149 13.3483 13.1752 13.3846 13.1247C13.4209 13.0742 13.4428 13.0148 13.448 12.9529V23.1912C13.4427 23.2534 13.4208 23.313 13.3845 23.3637C13.3483 23.4145 13.299 23.4546 13.242 23.4798L12.3638 23.9833C12.2098 24.0644 12.0378 24.1051 11.8638 24.1016L11.8674 13.8633Z" fill="#F0F0F0"/>
<path d="M55.1004 51.0301C55.0735 50.5767 55.0125 50.0337 54.9391 49.4029C54.6649 47.0086 54.2903 43.729 55.2832 40.5875C55.8871 38.6753 57.3423 36.4083 59.6147 35.7792C60.1201 35.6394 61.3423 35.4333 61.8118 36.5176C61.8778 36.6742 61.9172 36.8408 61.9283 37.0104C61.9767 37.6986 61.6667 38.3061 61.3226 38.8599C60.9265 39.5032 60.4677 40.1143 60.0233 40.7093C59.6039 41.2721 59.1685 41.8527 58.7885 42.4548C58.3782 43.1091 58.0187 43.7939 57.7133 44.5032L57.5681 44.4405C57.873 43.724 58.2325 43.032 58.6434 42.3706C59.0251 41.7631 59.4624 41.1789 59.8853 40.6143C60.3262 40.0229 60.7814 39.4136 61.1756 38.7774C61.5054 38.2398 61.8029 37.6645 61.7581 37.0212C61.7483 36.8694 61.7132 36.7204 61.6541 36.5803C61.2348 35.6108 60.1093 35.8043 59.6452 35.9316C57.4337 36.5445 56.0125 38.7631 55.4211 40.6341C54.4391 43.7452 54.8118 47.005 55.0842 49.385C55.1559 50.0176 55.2186 50.5642 55.2455 51.0212L55.1004 51.0301Z" fill="#0AAD0A"/>
<path d="M55.2617 53.6357C55.2498 53.6374 55.2377 53.6374 55.2258 53.6357C55.1914 53.629 55.159 53.6144 55.1313 53.5929C55.1036 53.5714 55.0814 53.5437 55.0663 53.5121C55.035 53.4234 55.035 53.3266 55.0663 53.2379C55.0916 53.0662 55.0916 52.8917 55.0663 52.72C55.0663 52.6232 55.0502 52.521 55.0502 52.4296V51.3167C55.1933 49.3176 55.7791 47.3753 56.7652 45.6304C57.6398 44.1089 58.6075 43.0963 59.8118 42.4404C60.4611 42.0837 61.173 41.8555 61.9086 41.7684C62.558 41.6966 63.2109 41.8691 63.7401 42.2522C64.2867 42.6841 64.5323 43.4243 64.3262 44.0103C64.181 44.4207 63.8495 44.7271 63.5108 45.0049C62.9068 45.4977 62.2473 45.9386 61.6111 46.3651C61.0824 46.7235 60.5358 47.082 60.0251 47.4762C58.4625 48.6823 57.1516 50.1832 56.1667 51.8938C56.0054 52.1716 55.8531 52.4583 55.7133 52.7451L55.6559 52.858C55.6 52.9603 55.5509 53.0663 55.509 53.1752C55.5 53.1985 55.491 53.2468 55.4785 53.3024C55.4694 53.4046 55.4369 53.5033 55.3835 53.5909C55.3499 53.6206 55.3064 53.6366 55.2617 53.6357ZM62.1667 41.9171C62.086 41.9171 62.0054 41.9171 61.9229 41.9278C61.209 42.0111 60.5181 42.2327 59.8889 42.5802C58.7133 43.22 57.7652 44.2146 56.905 45.7092C55.9321 47.4325 55.3537 49.3501 55.2115 51.3239V52.4261C55.2115 52.5121 55.2115 52.6053 55.2276 52.7038C55.2564 52.8915 55.2564 53.0825 55.2276 53.2701C55.2083 53.3283 55.2083 53.3912 55.2276 53.4494C55.2322 53.4584 55.2388 53.4664 55.2468 53.4726C55.2549 53.4788 55.2642 53.4831 55.2742 53.4852C55.3062 53.419 55.3279 53.3483 55.3387 53.2755C55.3473 53.2258 55.3592 53.1767 55.3746 53.1286C55.4183 53.0135 55.4697 52.9015 55.5287 52.7934L55.5842 52.6823C55.7276 52.392 55.8817 52.1035 56.043 51.8221C56.378 51.2422 56.7498 50.6843 57.1559 50.1519C57.9588 49.1029 58.8957 48.1636 59.9427 47.358C60.4588 46.9637 61.0072 46.5963 61.5376 46.2415C62.172 45.8167 62.8262 45.3777 63.4265 44.8902C63.7455 44.6304 64.0591 44.3382 64.1918 43.9655C64.371 43.4404 64.1505 42.7755 63.6541 42.383C63.2255 42.0635 62.701 41.8992 62.1667 41.9171Z" fill="#0AAD0A"/>
<path d="M55.1273 52.1054H55.1075C55.0974 52.1031 55.0879 52.0988 55.0795 52.0927C55.0711 52.0867 55.064 52.079 55.0587 52.0701C55.0533 52.0612 55.0498 52.0514 55.0484 52.0411C55.0469 52.0309 55.0475 52.0204 55.0502 52.0104C56.5287 46.1144 60.6165 43.4836 62.7993 42.8581C62.8193 42.8526 62.8406 42.8551 62.8587 42.8651C62.8768 42.8752 62.8902 42.892 62.8961 42.9119C62.9017 42.9321 62.8992 42.9536 62.8892 42.972C62.8791 42.9904 62.8623 43.0042 62.8423 43.0104C60.6918 43.6251 56.6649 46.2219 55.2043 52.0481C55.1993 52.0646 55.1891 52.0791 55.1753 52.0895C55.1614 52.0998 55.1445 52.1054 55.1273 52.1054Z" fill="#0AAD0A"/>
<path d="M55.1183 47.2667C55.0972 47.2649 55.0777 47.2548 55.0639 47.2387C55.0502 47.2226 55.0433 47.2018 55.0448 47.1807C55.5161 40.8133 59.681 37.324 60.1541 36.9495C60.1621 36.9428 60.1714 36.9377 60.1815 36.9347C60.1915 36.9317 60.202 36.9307 60.2124 36.9319C60.2228 36.9331 60.2328 36.9363 60.2419 36.9415C60.251 36.9467 60.2589 36.9537 60.2652 36.962C60.2717 36.9701 60.2766 36.9795 60.2795 36.9894C60.2824 36.9994 60.2832 37.0099 60.2821 37.0202C60.2809 37.0305 60.2777 37.0405 60.2727 37.0496C60.2676 37.0587 60.2608 37.0667 60.2527 37.0731C59.785 37.4441 55.6685 40.8921 55.2043 47.1932C55.2021 47.2141 55.1919 47.2334 55.1759 47.247C55.1599 47.2607 55.1393 47.2677 55.1183 47.2667Z" fill="#0AAD0A"/>
<path d="M54.6219 25.0605L44.6559 19.3096C44.5789 19.2543 44.4885 19.2204 44.3941 19.2112C44.2997 19.2021 44.2045 19.2181 44.1183 19.2577L43.4014 19.6716C43.3226 19.7265 43.2599 19.8015 43.2199 19.8888C43.1799 19.9761 43.164 20.0725 43.1738 20.1681V47.4458C43.1885 47.7116 43.2655 47.9702 43.3988 48.2006C43.5321 48.431 43.7178 48.6268 43.9409 48.772L53.905 54.5157C53.9819 54.5713 54.0722 54.6056 54.1666 54.6151C54.261 54.6245 54.3563 54.6088 54.4426 54.5695L55.1595 54.1537C55.2374 54.0986 55.2992 54.0237 55.3385 53.9368C55.3779 53.8498 55.3934 53.754 55.3835 53.6591V26.3867C55.3696 26.1214 55.2934 25.863 55.1611 25.6326C55.0288 25.4022 54.844 25.2062 54.6219 25.0605Z" fill="#263238"/>
<path d="M45.3208 47.9136L44.6039 48.3276V50.5964C44.6076 50.6628 44.6268 50.7275 44.6601 50.7851C44.6935 50.8427 44.7399 50.8916 44.7957 50.9279L45.1308 51.1215C45.1903 51.1515 45.256 51.1672 45.3226 51.1672C45.3892 51.1672 45.4549 51.1515 45.5143 51.1215L45.8495 50.9279C45.9685 50.851 46.0606 50.7389 46.1129 50.6071L46.7599 48.7433L45.3208 47.9136Z" fill="#263238"/>
<path d="M44.6039 50.5962C44.6076 50.6627 44.6268 50.7273 44.6601 50.7849C44.6935 50.8425 44.7399 50.8915 44.7957 50.9277L45.1308 51.1213C45.154 51.1353 45.18 51.1439 45.207 51.1464C45.2339 51.1489 45.2611 51.1453 45.2864 51.1358C45.3118 51.1263 45.3346 51.1112 45.3533 51.0917C45.372 51.0721 45.386 51.0485 45.3943 51.0227L46.0376 49.1571L44.6039 48.3274V50.5962Z" fill="#37474F"/>
<path d="M52.5107 52.0515L51.7939 52.4673V54.7343C51.7972 54.8009 51.8161 54.8657 51.8491 54.9236C51.8821 54.9816 51.9283 55.0309 51.9839 55.0676L52.3208 55.2612C52.3799 55.2912 52.4453 55.3069 52.5116 55.3069C52.578 55.3069 52.6434 55.2912 52.7025 55.2612L53.0394 55.0676C53.1585 54.9907 53.2506 54.8786 53.3029 54.7469L53.948 52.8813L52.5107 52.0515Z" fill="#263238"/>
<path d="M51.7939 54.7343C51.7972 54.8009 51.8161 54.8657 51.8491 54.9236C51.8821 54.9816 51.9283 55.0309 51.9839 55.0676L52.3208 55.2612C52.3439 55.2752 52.37 55.2838 52.3969 55.2863C52.4239 55.2888 52.451 55.2852 52.4764 55.2757C52.5017 55.2662 52.5246 55.2511 52.5433 55.2315C52.562 55.212 52.576 55.1884 52.5842 55.1626L53.2312 53.297L51.7975 52.4673L51.7939 54.7343Z" fill="#37474F"/>
<path d="M43.9874 19.7451L53.9516 25.4798C54.1747 25.6254 54.3604 25.8215 54.4937 26.0522C54.6269 26.2829 54.704 26.5418 54.7186 26.8078V54.0856C54.7376 54.1814 54.7261 54.2807 54.6857 54.3696C54.6454 54.4586 54.5782 54.5326 54.4936 54.5815C54.409 54.6303 54.3112 54.6514 54.214 54.6418C54.1168 54.6323 54.0251 54.5926 53.9516 54.5282L43.9874 48.7827C43.7646 48.6374 43.5792 48.4416 43.4462 48.2111C43.3133 47.9807 43.2365 47.7222 43.2222 47.4565V20.1859C43.2031 20.0903 43.2144 19.991 43.2546 19.9022C43.2949 19.8133 43.362 19.7393 43.4465 19.6906C43.531 19.6419 43.6287 19.621 43.7257 19.6308C43.8228 19.6405 43.9143 19.6805 43.9874 19.7451Z" fill="#37474F"/>
<path d="M29.5179 57.0301L40.2957 63.2523L55.3853 54.5408L54.6667 54.1251L43.8889 47.9028L29.5179 56.2003V57.0301Z" fill="#455A64"/>
<path d="M40.2957 63.2524V62.4227L55.3853 53.7112V54.5409L40.2957 63.2524Z" fill="#263238"/>
<path d="M40.3638 62.0444L40.2545 61.9709C42.1667 59.0767 42.1541 54.0767 41.9982 52.8222C41.9857 52.738 41.9767 52.686 41.9749 52.6663L42.1057 52.6448C42.1057 52.6842 42.1201 52.7308 42.1272 52.7863C42.267 53.6734 43.0574 58.4924 43.9928 59.9548L43.8817 60.0265C43.1416 58.8778 42.509 55.7774 42.1918 53.9889C42.2115 56.0193 41.9158 59.7093 40.3638 62.0444Z" fill="#FAFAFA"/>
<path d="M46.6577 57.625C46.4946 57.5766 42.6846 56.4225 42.3333 54.7415L42.4642 54.7146C42.7975 56.3185 46.6559 57.487 46.6953 57.4995L46.6577 57.625Z" fill="#FAFAFA"/>
<path d="M42.8118 56.944L42.7151 56.5336C42.7018 56.4583 42.6634 56.3896 42.6061 56.3388C42.5488 56.2881 42.4761 56.2582 42.3996 56.2541C42.3365 56.2448 42.2721 56.2552 42.2151 56.2837C42.158 56.3122 42.1111 56.3576 42.0806 56.4136L41.957 56.3616C41.9985 56.2796 42.0643 56.2125 42.1455 56.1695C42.2267 56.1265 42.3193 56.1097 42.4104 56.1215C42.4763 56.1256 42.5406 56.1437 42.599 56.1746C42.6574 56.2055 42.7086 56.2485 42.7491 56.3007C42.7706 56.1307 42.8574 55.9759 42.991 55.8688C43.0417 55.8423 43.0984 55.8294 43.1555 55.8312C43.2127 55.8331 43.2684 55.8498 43.3172 55.8795L43.2581 55.9978C43.2282 55.9786 43.1939 55.9673 43.1584 55.9651C43.123 55.9629 43.0876 55.9699 43.0556 55.9853C42.9032 56.0713 42.8441 56.4028 42.8351 56.5229L42.8118 56.944Z" fill="#FAFAFA"/>
<path d="M43.1864 58.3114L43.0681 57.9386C42.9337 57.5175 42.7097 57.2755 42.4444 57.2594C42.3336 57.2573 42.2246 57.2875 42.1307 57.3464C42.0368 57.4053 41.9621 57.4903 41.9158 57.591L41.7957 57.5336C41.8524 57.4078 41.9452 57.3016 42.0622 57.2286C42.1793 57.1555 42.3155 57.1188 42.4534 57.1232C42.6129 57.1322 42.8871 57.2182 43.0914 57.634C43.1362 57.306 43.2706 56.7791 43.6165 56.5587C43.7406 56.4907 43.8802 56.4558 44.0218 56.4573C44.1633 56.4589 44.3021 56.4969 44.4247 56.5677L44.3692 56.6877C44.2665 56.627 44.15 56.5937 44.0308 56.5908C43.9115 56.588 43.7936 56.6158 43.6882 56.6716C43.2276 56.9583 43.1971 57.9064 43.1971 57.9171L43.1864 58.3114Z" fill="#FAFAFA"/>
<path d="M41.5681 59.2216L41.4498 59.1607C41.715 58.65 42.2975 58.2826 42.8029 58.3077C42.9101 58.3089 43.0156 58.3342 43.1118 58.3816C43.2079 58.4291 43.2922 58.4975 43.3584 58.5819C43.4071 58.324 43.5074 58.0786 43.6534 57.8606C43.7994 57.6425 43.988 57.4563 44.2079 57.313C44.4438 57.1563 44.7161 57.0629 44.9986 57.0419C45.2811 57.0209 45.5642 57.0729 45.8208 57.193L45.7688 57.313C45.5325 57.2036 45.2721 57.1564 45.0124 57.1759C44.7528 57.1953 44.5023 57.2808 44.2849 57.4241C44.0525 57.5748 43.8585 57.7777 43.7185 58.0167C43.5785 58.2557 43.4963 58.5241 43.4785 58.8005V59.1392L43.353 58.8238C43.3115 58.7117 43.2367 58.6149 43.1387 58.5464C43.0408 58.4779 42.9242 58.4408 42.8047 58.4403C42.3405 58.417 41.8118 58.7539 41.5681 59.2216Z" fill="#FAFAFA"/>
<path d="M40.8405 61.2001L40.724 61.1356C40.8853 60.8417 41.7437 59.365 42.7599 59.098C42.9033 59.0569 43.0538 59.0466 43.2014 59.068C43.3491 59.0893 43.4905 59.1416 43.6165 59.2216L43.5484 59.3345C43.4373 59.2644 43.3128 59.2184 43.1828 59.1995C43.0528 59.1807 42.9203 59.1894 42.7939 59.2252C42.0484 59.4223 41.2778 60.4116 40.8405 61.2001Z" fill="#FAFAFA"/>
<path d="M53.948 45.4134V46.2431L40.2957 54.1249L29.5179 47.9026V47.0729L43.1703 39.1912L53.948 45.4134Z" fill="#263238"/>
<path d="M53.948 45.4134L40.2957 53.2951L29.5179 47.0729L43.1703 39.1912L53.948 45.4134Z" fill="#455A64"/>
<path d="M53.948 36.288V37.1159L40.2957 44.9995L29.5179 38.7754V37.9475L43.1703 30.064L53.948 36.288Z" fill="#263238"/>
<path d="M53.948 36.288L40.2957 44.1697L29.5179 37.9475L43.1703 30.064L53.948 36.288Z" fill="#455A64"/>
<path d="M40.2491 33.3472L30.2849 27.6035C30.2081 27.5478 30.1178 27.5136 30.0234 27.5041C29.9289 27.4947 29.8337 27.5104 29.7473 27.5497C29.6183 27.6232 29.1595 27.8902 29.0305 27.9637C28.952 28.0188 28.8897 28.0938 28.8499 28.1811C28.8102 28.2684 28.7946 28.3647 28.8047 28.4601V55.7307C28.8193 55.9965 28.8964 56.2551 29.0296 56.4855C29.1629 56.7159 29.3486 56.9116 29.5717 57.0569L39.5358 62.8024C39.6127 62.858 39.703 62.8923 39.7974 62.9017C39.8918 62.9112 39.9871 62.8954 40.0735 62.8561C40.2025 62.7809 40.6649 62.5156 40.7903 62.4386C40.8692 62.3841 40.932 62.3095 40.9724 62.2225C41.0127 62.1355 41.029 62.0394 41.0197 61.944V34.6751C41.005 34.4087 40.9275 34.1496 40.7935 33.9188C40.6596 33.688 40.4731 33.4922 40.2491 33.3472Z" fill="#263238"/>
<path opacity="0.2" d="M40.2957 37.5335L41.0161 37.1177V34.6267L40.2939 35.0425L40.2957 37.5335Z" fill="black"/>
<path opacity="0.2" d="M54.6685 29.2361L55.3889 28.8221V26.3311L54.6667 26.7468L54.6685 29.2361Z" fill="black"/>
<path d="M30.9552 56.2002L30.2384 56.6142V58.883C30.242 58.9494 30.2612 59.0141 30.2946 59.0717C30.3279 59.1293 30.3743 59.1783 30.4301 59.2145L30.7652 59.4081C30.8247 59.4382 30.8904 59.4538 30.957 59.4538C31.0236 59.4538 31.0893 59.4382 31.1488 59.4081L31.4839 59.2145C31.6025 59.1379 31.6945 59.0265 31.7473 58.8955L32.3943 57.0299L30.9552 56.2002Z" fill="#263238"/>
<path d="M30.2366 58.8831C30.2402 58.9495 30.2594 59.0142 30.2928 59.0718C30.3261 59.1294 30.3725 59.1783 30.4283 59.2146L30.7634 59.4082C30.7866 59.4222 30.8126 59.4308 30.8396 59.4333C30.8665 59.4358 30.8937 59.4322 30.919 59.4227C30.9444 59.4132 30.9673 59.3981 30.9859 59.3785C31.0046 59.3589 31.0186 59.3354 31.0269 59.3096L31.6738 57.444L30.2401 56.6143L30.2366 58.8831Z" fill="#37474F"/>
<path d="M38.1398 60.3489L37.4229 60.7629V63.0317C37.4262 63.098 37.4451 63.1626 37.4782 63.2202C37.5112 63.2778 37.5573 63.3268 37.6129 63.3632L37.9498 63.5568C38.009 63.5868 38.0744 63.6025 38.1407 63.6025C38.207 63.6025 38.2724 63.5868 38.3315 63.5568L38.6685 63.3632C38.7866 63.2861 38.8785 63.1748 38.9319 63.0442L39.5771 61.1786L38.1398 60.3489Z" fill="#263238"/>
<path d="M37.4229 63.0227C37.4262 63.0891 37.4451 63.1537 37.4782 63.2113C37.5112 63.2689 37.5573 63.3179 37.6129 63.3543L37.9498 63.5478C37.973 63.5618 37.999 63.5704 38.026 63.5729C38.0529 63.5754 38.0801 63.5718 38.1054 63.5623C38.1308 63.5529 38.1536 63.5378 38.1723 63.5182C38.191 63.4986 38.205 63.475 38.2133 63.4492L38.8584 61.5837L37.4247 60.7539L37.4229 63.0227Z" fill="#37474F"/>
<path d="M29.5645 28.0192L39.5305 33.7629C39.7534 33.9087 39.9388 34.1048 40.0717 34.3355C40.2047 34.5662 40.2814 34.825 40.2957 35.0909V63.2522C40.2957 63.2522 39.7419 62.9242 39.5305 62.8024L29.5663 57.0569C29.3432 56.9116 29.1575 56.7159 29.0243 56.4855C28.891 56.255 28.8139 55.9965 28.7993 55.7307V28.4601C28.7801 28.3644 28.7915 28.2652 28.8317 28.1763C28.8719 28.0875 28.939 28.0135 29.0236 27.9648C29.1081 27.9161 29.2057 27.8952 29.3028 27.9049C29.3999 27.9147 29.4914 27.9547 29.5645 28.0192Z" fill="#37474F"/>
<path opacity="0.2" d="M39.5305 33.7629L29.5645 28.0192C29.4914 27.9547 29.3999 27.9147 29.3028 27.9049C29.2057 27.8952 29.1081 27.9161 29.0236 27.9648C28.939 28.0135 28.8719 28.0875 28.8317 28.1763C28.7915 28.2652 28.7801 28.3644 28.7993 28.4601V30.8956L40.2957 37.5264V35.0909C40.2814 34.825 40.2047 34.5662 40.0717 34.3355C39.9388 34.1048 39.7534 33.9087 39.5305 33.7629Z" fill="black"/>
<path d="M53.2294 36.3545C53.2119 36.354 53.1953 36.3469 53.183 36.3345C53.1707 36.3222 53.1635 36.3056 53.1631 36.2881V28.1054L45.3584 32.6107C45.3511 32.6155 45.3429 32.6186 45.3343 32.62C45.3257 32.6214 45.3169 32.621 45.3085 32.6188C45.3001 32.6166 45.2922 32.6127 45.2853 32.6073C45.2785 32.6019 45.2729 32.5951 45.2688 32.5874C45.2643 32.5799 45.2613 32.5716 45.26 32.5629C45.2588 32.5542 45.2592 32.5454 45.2614 32.5369C45.2635 32.5284 45.2674 32.5204 45.2727 32.5134C45.2779 32.5064 45.2845 32.5005 45.2921 32.496L53.2061 27.9333C53.216 27.9271 53.2275 27.9238 53.2392 27.9238C53.251 27.9238 53.2624 27.9271 53.2724 27.9333C53.2823 27.9392 53.2905 27.9476 53.2961 27.9577C53.3018 27.9678 53.3047 27.9791 53.3047 27.9907V36.2881C53.3047 36.2977 53.3028 36.3071 53.2989 36.3158C53.295 36.3245 53.2893 36.3322 53.2822 36.3385C53.275 36.3448 53.2666 36.3495 53.2575 36.3522C53.2484 36.355 53.2388 36.3557 53.2294 36.3545Z" fill="#FAFAFA"/>
<path d="M51.7921 34.2791H51.7724C51.7553 34.2753 51.7405 34.2648 51.7311 34.2501C51.7217 34.2353 51.7185 34.2174 51.7222 34.2003L53.0591 28.41L50.4068 33.0032C50.4027 33.0108 50.3971 33.0176 50.3903 33.023C50.3835 33.0284 50.3757 33.0324 50.3674 33.0348C50.359 33.0371 50.3502 33.0378 50.3416 33.0366C50.333 33.0355 50.3247 33.0327 50.3172 33.0282C50.3095 33.024 50.3027 33.0182 50.2973 33.0112C50.2918 33.0043 50.2878 32.9963 50.2854 32.9878C50.2831 32.9793 50.2825 32.9704 50.2836 32.9617C50.2848 32.9529 50.2877 32.9445 50.2921 32.9368L53.1595 27.9584C53.1677 27.9447 53.1805 27.9343 53.1955 27.9291C53.2106 27.9238 53.227 27.924 53.2419 27.9297C53.2567 27.9357 53.2687 27.9467 53.276 27.9609C53.2832 27.975 53.2851 27.9913 53.2814 28.0067L51.8477 34.2308C51.8445 34.2435 51.8374 34.255 51.8275 34.2637C51.8176 34.2723 51.8052 34.2777 51.7921 34.2791Z" fill="#FAFAFA"/>
<path d="M48.9194 32.2127C48.9102 32.2128 48.9012 32.2109 48.8929 32.2072C48.8845 32.2035 48.8771 32.198 48.871 32.1912C48.8587 32.1788 48.8518 32.1621 48.8518 32.1446C48.8518 32.1272 48.8587 32.1105 48.871 32.0981L53.1828 27.9493C53.1952 27.937 53.2119 27.9302 53.2294 27.9302C53.2468 27.9302 53.2636 27.937 53.276 27.9493C53.2884 27.962 53.2953 27.9791 53.2953 27.9968C53.2953 28.0145 53.2884 28.0316 53.276 28.0443L48.9642 32.1912C48.9585 32.1976 48.9516 32.2028 48.9439 32.2065C48.9362 32.2102 48.9279 32.2123 48.9194 32.2127Z" fill="#FAFAFA"/>
<path d="M53.2294 35.03C53.2119 35.0295 53.1953 35.0224 53.183 35.01C53.1707 34.9977 53.1635 34.9811 53.1631 34.9637C53.1631 33.8776 51.9516 33.8042 51.8996 33.8024C51.8899 33.8017 51.8803 33.7989 51.8717 33.7943C51.863 33.7896 51.8555 33.7832 51.8495 33.7755C51.8438 33.7679 51.8399 33.7591 51.8381 33.7498C51.8362 33.7405 51.8364 33.7309 51.8387 33.7217C51.8829 33.4999 51.8679 33.2703 51.7953 33.056C51.7226 32.8418 51.5948 32.6505 51.4247 32.5013C51.3626 32.4393 51.2879 32.3912 51.2057 32.3603C51.1235 32.3294 51.0357 32.3164 50.948 32.3221C50.9013 32.33 50.8568 32.3479 50.8175 32.3744C50.7782 32.401 50.7451 32.4357 50.7204 32.4762C50.713 32.4893 50.7012 32.4994 50.6872 32.505C50.6732 32.5105 50.6578 32.5111 50.6434 32.5067C50.6291 32.5022 50.6166 32.4931 50.6082 32.4807C50.5997 32.4684 50.5957 32.4535 50.5968 32.4386C50.5968 32.3973 50.6702 31.4314 49.8208 31.3364C49.8099 31.3351 49.7994 31.3311 49.7904 31.3249C49.7813 31.3186 49.7739 31.3103 49.7688 31.3006C49.7639 31.2912 49.7614 31.2807 49.7614 31.2701C49.7614 31.2595 49.7639 31.2491 49.7688 31.2396C49.7688 31.2396 50.1452 30.5353 50 30.1895C49.9832 30.1488 49.9571 30.1127 49.9238 30.0841C49.8905 30.0555 49.8509 30.0351 49.8082 30.0246C49.7998 30.0223 49.7918 30.0184 49.7849 30.013C49.778 30.0075 49.7723 30.0007 49.7681 29.993C49.7639 29.9853 49.7613 29.9768 49.7605 29.9681C49.7597 29.9593 49.7607 29.9505 49.7634 29.9421C49.7688 29.9255 49.7804 29.9116 49.7957 29.9033C49.8111 29.8949 49.829 29.8928 49.8459 29.8973C49.9076 29.9132 49.9648 29.9434 50.0127 29.9854C50.0606 30.0274 50.098 30.0801 50.1219 30.1393C50.2599 30.4672 50.0269 31.0102 49.9265 31.2145C50.586 31.3418 50.7079 31.9637 50.7258 32.2719C50.7847 32.23 50.852 32.2013 50.9229 32.1877C51.0307 32.1772 51.1393 32.1913 51.2408 32.2289C51.3423 32.2664 51.434 32.3265 51.509 32.4045C51.687 32.5615 51.8233 32.7603 51.9056 32.9831C51.9878 33.2058 52.0135 33.4454 51.9803 33.6805C52.2706 33.7181 53.2957 33.9206 53.2939 34.9672C53.293 34.9839 53.2859 34.9996 53.2739 35.0112C53.262 35.0228 53.2461 35.0295 53.2294 35.03Z" fill="#FAFAFA"/>
<path d="M53.2294 33.2415C53.2127 33.2416 53.1966 33.2354 53.1843 33.2241C53.172 33.2128 53.1644 33.1972 53.1631 33.1806C53.1344 32.8007 52.914 32.3096 52.6362 32.1878C52.5812 32.1632 52.5202 32.1552 52.4606 32.1647C52.4011 32.1743 52.3457 32.201 52.3011 32.2415C52.2901 32.2486 52.2774 32.2523 52.2643 32.2523C52.2513 32.2523 52.2386 32.2486 52.2276 32.2415C52.2162 32.2353 52.207 32.2259 52.2009 32.2144C52.1949 32.2029 52.1923 32.1899 52.1936 32.177C52.1936 32.177 52.2527 31.505 51.9498 31.2272C51.8841 31.1723 51.8062 31.134 51.7227 31.1153C51.6392 31.0966 51.5524 31.0981 51.4695 31.1197C51.4581 31.1221 51.4463 31.1214 51.4352 31.1176C51.4242 31.1138 51.4143 31.1071 51.4068 31.0982C51.3991 31.0892 51.394 31.0783 51.3918 31.0667C51.3896 31.0551 51.3904 31.0431 51.3943 31.0319C51.4552 30.8652 51.5735 30.3975 51.414 30.2308C51.3387 30.1537 51.2007 30.1466 51.0018 30.2111C50.9882 30.2156 50.9736 30.2156 50.96 30.211C50.9464 30.2065 50.9347 30.1977 50.9265 30.186C50.9183 30.1745 50.914 30.1607 50.914 30.1466C50.914 30.1324 50.9183 30.1187 50.9265 30.1071C51.0376 29.9673 51.3118 29.5587 51.2437 29.3634C51.2325 29.3364 51.2143 29.3129 51.191 29.2953C51.1677 29.2776 51.1401 29.2665 51.1111 29.263C51.1026 29.261 51.0946 29.2572 51.0876 29.252C51.0806 29.2468 51.0747 29.2403 51.0702 29.2328C51.0657 29.2253 51.0627 29.217 51.0614 29.2083C51.0601 29.1997 51.0606 29.1909 51.0627 29.1824C51.0644 29.1739 51.0678 29.1658 51.0728 29.1586C51.0777 29.1514 51.0841 29.1454 51.0915 29.1409C51.0989 29.1363 51.1072 29.1333 51.1158 29.1322C51.1244 29.131 51.1332 29.1316 51.1416 29.134C51.1919 29.1413 51.2394 29.1618 51.2793 29.1932C51.3193 29.2247 51.3503 29.266 51.3692 29.3132C51.4427 29.5265 51.2634 29.8509 51.138 30.0301C51.2026 30.0147 51.27 30.0153 51.3343 30.0319C51.3987 30.0484 51.458 30.0804 51.5072 30.1251C51.7043 30.3294 51.6093 30.7613 51.5502 30.9638C51.6376 30.9533 51.7262 30.9615 51.8102 30.9877C51.8942 31.014 51.9717 31.0577 52.0376 31.1161C52.3047 31.3598 52.3333 31.8329 52.3298 32.0498C52.3858 32.0234 52.447 32.0098 52.509 32.0098C52.5709 32.0098 52.6321 32.0234 52.6882 32.0498C53.0269 32.1985 53.2617 32.7272 53.2957 33.1555C53.2964 33.1641 53.2954 33.1728 53.2927 33.181C53.2901 33.1893 53.2857 33.1969 53.2801 33.2034C53.2744 33.2099 53.2674 33.2152 53.2597 33.219C53.2519 33.2228 53.2434 33.225 53.2348 33.2254L53.2294 33.2415Z" fill="#FAFAFA"/>
<path d="M57.0896 25.0873C57.0811 24.9922 57.0474 24.901 56.992 24.8232C56.9365 24.7454 56.8613 24.6838 56.7742 24.6447L46.0914 18.4762C45.8539 18.3561 45.5914 18.2935 45.3253 18.2935C45.0591 18.2935 44.7966 18.3561 44.5591 18.4762L28.129 27.9637C28.0419 28.0028 27.9667 28.0644 27.9113 28.1422C27.8558 28.22 27.8221 28.3112 27.8136 28.4063V29.2361C27.8221 29.3312 27.8558 29.4224 27.9113 29.5002C27.9667 29.578 28.0419 29.6396 28.129 29.6787L38.8118 35.8454C39.0491 35.9664 39.3116 36.0295 39.578 36.0295C39.8443 36.0295 40.1068 35.9664 40.3441 35.8454L56.7742 26.3597C56.8613 26.3206 56.9365 26.259 56.992 26.1812C57.0474 26.1034 57.0811 26.0122 57.0896 25.9171V25.0873Z" fill="#37474F"/>
<path d="M38.8118 35.0156L28.129 28.849C27.7061 28.6035 27.7061 28.2074 28.129 27.9637L44.5591 18.4762C44.7966 18.3561 45.0591 18.2935 45.3253 18.2935C45.5914 18.2935 45.8539 18.3561 46.0914 18.4762L56.7742 24.6447C57.1989 24.8902 57.1989 25.2845 56.7742 25.53L40.3441 35.0156C40.1068 35.1366 39.8443 35.1997 39.578 35.1997C39.3116 35.1997 39.0491 35.1366 38.8118 35.0156Z" fill="#455A64"/>
<path opacity="0.1" d="M54.6667 27.5747L49.638 33.7987L41.0161 38.7772L41.0143 35.4582L54.6667 27.5747Z" fill="black"/>
<path opacity="0.1" d="M53.948 37.116L49.638 42.9242L41.0161 47.9045V44.5837L53.948 37.116Z" fill="black"/>
<path opacity="0.1" d="M53.948 46.2432L49.638 52.0514L41.0161 57.0317V53.7109L53.948 46.2432Z" fill="black"/>
<path d="M34.1703 64.3705L20.9516 72.0031L6.06631 63.3884L19.285 55.7576L34.1703 64.3705Z" fill="#0AAD0A"/>
<path opacity="0.5" d="M34.1703 64.3705L20.9516 72.0031L6.06631 63.3884L19.285 55.7576L34.1703 64.3705Z" fill="black"/>
<path d="M19.285 45.4116V55.7575L6.06631 63.3883V53.0442L19.285 45.4116Z" fill="#0AAD0A"/>
<path opacity="0.23" d="M19.285 45.4116V55.7575L6.06631 63.3883V53.0442L19.285 45.4116Z" fill="black"/>
<path d="M20.9516 61.6571V72.003L6.06631 63.3883V53.0442L20.9516 61.6571Z" fill="#0AAD0A"/>
<path opacity="0.38" d="M20.9516 61.6571V72.003L6.06631 63.3883V53.0442L20.9516 61.6571Z" fill="black"/>
<path d="M34.1702 54.0245V64.3704L19.2849 55.7575V45.4116L34.1702 54.0245Z" fill="#0AAD0A"/>
<path opacity="0.4" d="M34.1702 54.0245V64.3704L19.2849 55.7575V45.4116L34.1702 54.0245Z" fill="black"/>
<path d="M34.1703 64.3705V54.0247L20.9516 61.6573V72.0032L34.1703 64.3705Z" fill="#0AAD0A"/>
<path opacity="0.23" d="M34.1703 64.3705V54.0247L20.9516 61.6573V72.0032L34.1703 64.3705Z" fill="black"/>
<path d="M19.2849 45.4117L19.3029 39.6841L34.1523 48.3077L34.1702 54.0246L19.2849 45.4117Z" fill="#0AAD0A"/>
<path opacity="0.2" d="M19.2849 45.4117L19.3029 39.6841L34.1523 48.3077L34.1702 54.0246L19.2849 45.4117Z" fill="black"/>
<path d="M20.9516 61.6572L22.1918 56.6465L35.2903 49.0837L34.1702 54.0246L20.9516 61.6572Z" fill="#0AAD0A"/>
<path opacity="0.3" d="M20.9516 61.6572L22.1918 56.6465L35.2903 49.0837L34.1702 54.0246L20.9516 61.6572Z" fill="black"/>
<path d="M6.06632 53.0443L4.48926 47.8471L17.7079 40.2163L19.285 45.4116L6.06632 53.0443Z" fill="#0AAD0A"/>
<path opacity="0.1" d="M6.06632 53.0443L4.48926 47.8471L17.7079 40.2163L19.285 45.4116L6.06632 53.0443Z" fill="black"/>
<path d="M6.06631 53.0442L2.9552 48.7485L17.8423 57.3614L20.9516 61.6571L6.06631 53.0442Z" fill="#0AAD0A"/>
<path opacity="0.45" d="M6.06631 53.0442L2.9552 48.7485L17.8423 57.3614L20.9516 61.6571L6.06631 53.0442Z" fill="black"/>
<g opacity="0.7">
<path d="M24.8441 68.926C24.8225 68.926 24.8018 68.9176 24.7864 68.9025C24.771 68.8874 24.7621 68.8669 24.7616 68.8454V67.0246C24.7621 67.0029 24.7709 66.9821 24.7863 66.9668C24.8017 66.9514 24.8224 66.9426 24.8441 66.9421C24.8656 66.9426 24.8861 66.9515 24.9012 66.9669C24.9163 66.9823 24.9247 67.003 24.9247 67.0246V68.8454C24.9247 68.8668 24.9162 68.8873 24.9011 68.9024C24.886 68.9175 24.8655 68.926 24.8441 68.926Z" fill="white"/>
<path d="M24.6057 67.6554C24.595 67.6571 24.5842 67.6571 24.5735 67.6554C24.5539 67.6464 24.5386 67.6302 24.5306 67.6102C24.5226 67.5902 24.5225 67.5679 24.5305 67.5479L24.8208 66.8794L25.1434 67.2522C25.1549 67.2688 25.1599 67.2892 25.1574 67.3093C25.1548 67.3295 25.145 67.3479 25.1297 67.3613C25.1144 67.3746 25.0947 67.3818 25.0744 67.3815C25.0541 67.3812 25.0346 67.3734 25.0197 67.3597L24.8674 67.1805L24.6882 67.6106C24.6804 67.6254 24.6684 67.6375 24.6538 67.6455C24.6391 67.6535 24.6224 67.6569 24.6057 67.6554Z" fill="white"/>
<path d="M25.595 68.4977C25.5734 68.4972 25.5529 68.4883 25.5379 68.4729C25.5228 68.4575 25.5143 68.4368 25.5143 68.4153V66.5963C25.5143 66.5749 25.5228 66.5544 25.538 66.5392C25.5531 66.5241 25.5736 66.5156 25.595 66.5156C25.6164 66.5156 25.6369 66.5241 25.652 66.5392C25.6671 66.5544 25.6756 66.5749 25.6756 66.5963V68.4135C25.6759 68.4243 25.674 68.4351 25.6701 68.4452C25.6661 68.4553 25.6602 68.4645 25.6528 68.4723C25.6453 68.4801 25.6363 68.4864 25.6264 68.4907C25.6165 68.4951 25.6058 68.4975 25.595 68.4977Z" fill="white"/>
<path d="M25.3566 67.2271C25.3459 67.2288 25.3351 67.2288 25.3244 67.2271C25.3145 67.2228 25.3057 67.2166 25.2982 67.2089C25.2908 67.2011 25.285 67.192 25.2812 67.182C25.2774 67.172 25.2756 67.1613 25.2759 67.1506C25.2762 67.1399 25.2787 67.1293 25.2832 67.1196L25.5717 66.4421L25.8943 66.8131C25.9092 66.8285 25.9175 66.8491 25.9175 66.8705C25.9175 66.8919 25.9092 66.9124 25.8943 66.9278C25.8868 66.9354 25.8778 66.9414 25.868 66.9455C25.8582 66.9496 25.8476 66.9517 25.8369 66.9517C25.8263 66.9517 25.8157 66.9496 25.8058 66.9455C25.796 66.9414 25.7871 66.9354 25.7796 66.9278L25.6272 66.7486L25.448 67.1787C25.4406 67.196 25.4275 67.2102 25.4109 67.219C25.3942 67.2278 25.3751 67.2307 25.3566 67.2271Z" fill="white"/>
</g>
<g opacity="0.7">
<path d="M22.6774 70.1609C22.6468 70.1613 22.6166 70.1539 22.5896 70.1394C22.5572 70.1186 22.531 70.0895 22.5136 70.0552C22.4963 70.0208 22.4885 69.9824 22.491 69.944V69.72C22.4915 69.6985 22.5004 69.6779 22.5158 69.6629C22.5312 69.6478 22.5519 69.6394 22.5735 69.6394C22.5949 69.6394 22.6154 69.6479 22.6305 69.663C22.6456 69.6781 22.6541 69.6986 22.6541 69.72V69.944C22.6541 69.9763 22.6541 69.9942 22.6703 69.9978C22.6864 70.0014 22.6953 69.9978 22.7222 69.9834C22.7727 69.9369 22.8124 69.8799 22.8387 69.8165C22.865 69.753 22.8772 69.6847 22.8746 69.6161V68.6842C22.8746 68.6628 22.8831 68.6423 22.8982 68.6271C22.9133 68.612 22.9338 68.6035 22.9552 68.6035C22.9766 68.6035 22.9971 68.612 23.0122 68.6271C23.0274 68.6423 23.0358 68.6628 23.0358 68.6842V69.6161C23.0399 69.7128 23.021 69.8092 22.9808 69.8973C22.9407 69.9854 22.8803 70.0628 22.8047 70.1232C22.7664 70.1469 22.7224 70.1599 22.6774 70.1609Z" fill="white"/>
<path d="M21.8226 69.41V69.2702C21.8439 68.9113 21.9488 68.5623 22.129 68.2511C22.3091 67.94 22.5595 67.6753 22.8602 67.4781C23.1541 67.3096 23.4337 67.2845 23.6488 67.41C23.7635 67.4886 23.8549 67.5967 23.9135 67.7228C23.9722 67.8489 23.9959 67.9884 23.9821 68.1268V68.1734L21.8226 69.41ZM23.3477 67.4853C23.2042 67.4919 23.0648 67.535 22.9427 67.6107C22.685 67.7802 22.4668 68.0032 22.303 68.2645C22.1391 68.5258 22.0333 68.8193 21.9928 69.125L23.8154 68.0713C23.8232 67.9675 23.804 67.8634 23.7597 67.7692C23.7155 67.675 23.6476 67.5939 23.5627 67.5336C23.4965 67.4989 23.4224 67.4823 23.3477 67.4853Z" fill="white"/>
</g>
<path opacity="0.7" d="M2.9552 48.7485L17.8423 57.3614L20.9516 61.6571L17.6774 57.5138L2.9552 48.7485Z" fill="white"/>
<path opacity="0.7" d="M34.1703 54.0247L20.9516 61.6573V72.0032L21.1989 61.8652L34.1703 54.0247Z" fill="white"/>
<path d="M14.7724 49.8866C16.1362 49.6895 17.3817 48.8113 18.1774 47.7074C18.5485 47.1916 18.8218 46.6121 18.9839 45.9977C19.156 45.4232 19.1843 44.8151 19.0663 44.2271C18.8208 43.2432 17.9104 42.6608 16.948 42.5389C16.4597 42.4747 15.9631 42.5231 15.4964 42.6805C15.0125 42.8466 14.5926 43.1599 14.2957 43.5765C14.1095 43.7985 13.9924 44.0701 13.9588 44.3579C13.9559 44.4706 13.9957 44.5803 14.0701 44.665C14.1445 44.7497 14.2481 44.8032 14.3602 44.8149C14.6488 44.8392 14.9372 44.766 15.1792 44.607C15.4744 44.4415 15.7343 44.2199 15.9445 43.9547C16.3952 43.3984 16.7325 42.7591 16.9373 42.073C17.081 41.4842 17.081 40.8696 16.9373 40.2808C16.8281 39.665 16.5466 39.0927 16.1255 38.6303C15.6426 38.1912 15.0299 37.9213 14.3799 37.8615C13.7331 37.7726 13.0745 37.834 12.4552 38.0407C12.1832 38.1232 11.9312 38.2611 11.7151 38.4457C11.5609 38.5891 11.3853 38.8257 11.448 39.0586C11.5108 39.2916 11.8513 39.3955 12.0824 39.3651C12.4246 39.301 12.738 39.1311 12.9785 38.8794C13.2465 38.6156 13.4742 38.3136 13.6541 37.9834C13.7878 37.746 13.8576 37.478 13.8566 37.2056C13.8333 36.0694 12.5771 35.3346 11.5932 35.1267C11.3276 35.0712 11.0556 35.0531 10.785 35.073C10.6936 35.073 10.7491 35.2235 10.8226 35.2181C11.352 35.1941 11.8782 35.3129 12.3459 35.5622C12.8073 35.7743 13.1949 36.1194 13.4588 36.5533C13.5764 36.7671 13.6345 37.0087 13.6269 37.2527C13.6193 37.4967 13.5464 37.7342 13.4158 37.9403C13.2403 38.246 13.0218 38.5248 12.767 38.7683C12.5538 38.9619 12.2294 39.1859 11.9301 39.1644C11.8807 39.1642 11.8323 39.1502 11.7905 39.1239C11.7487 39.0976 11.7151 39.0601 11.6936 39.0156C11.6845 38.9568 11.6894 38.8966 11.7077 38.84C11.7261 38.7834 11.7575 38.7318 11.7993 38.6895C11.9575 38.519 12.1533 38.3877 12.371 38.3059C12.9086 38.0824 13.4908 37.9867 14.0717 38.0264C14.6703 38.0372 15.2525 38.2242 15.7455 38.564C16.175 38.9206 16.48 39.4045 16.6165 39.9457C16.7894 40.4956 16.8432 41.076 16.7742 41.6482C16.6678 42.2241 16.4465 42.7726 16.1237 43.2611C15.7921 43.8095 15.3764 44.3364 14.7527 44.5515C14.5986 44.607 14.276 44.6877 14.2151 44.4636C14.1541 44.2396 14.3298 43.9636 14.4427 43.7898C14.6923 43.3969 15.0563 43.0898 15.4857 42.9099C15.9 42.7438 16.3472 42.6763 16.7921 42.7127C17.6362 42.7755 18.4928 43.2163 18.7867 44.055C18.9342 44.5563 18.9502 45.087 18.8333 45.5963C18.7279 46.1544 18.5273 46.6903 18.2402 47.1805C17.6226 48.2219 16.6873 49.0379 15.5717 49.5084C15.3065 49.6231 15.0341 49.7199 14.7563 49.8095C14.7276 49.8203 14.7402 49.892 14.7724 49.8866Z" fill="#E0E0E0"/>
<path d="M9.07527 34.3275C8.35843 34.2756 7.37097 34.8401 7.72223 35.2523C8.07348 35.6644 9.00538 34.9978 9.00538 34.9978C9.00538 34.9978 8.91757 35.8311 9.22223 35.9261C9.52689 36.0211 9.93907 35.2254 9.63441 34.7164C9.78134 34.7743 9.94052 34.7942 10.0972 34.7741C10.2538 34.7541 10.4029 34.6948 10.5305 34.6017C10.9642 34.2827 10.5054 33.9817 9.89427 34.0354C9.89427 34.0354 10.3315 32.6017 9.44803 32.8759C9.00538 33.0103 8.84947 33.5282 9.07527 34.3275Z" fill="#0AAD0A"/>
<path opacity="0.65" d="M9.07527 34.3275C8.35843 34.2756 7.37097 34.8401 7.72223 35.2523C8.07348 35.6644 9.00538 34.9978 9.00538 34.9978C9.00538 34.9978 8.91757 35.8311 9.22223 35.9261C9.52689 36.0211 9.93907 35.2254 9.63441 34.7164C9.78134 34.7743 9.94052 34.7942 10.0972 34.7741C10.2538 34.7541 10.4029 34.6948 10.5305 34.6017C10.9642 34.2827 10.5054 33.9817 9.89427 34.0354C9.89427 34.0354 10.3315 32.6017 9.44803 32.8759C9.00538 33.0103 8.84947 33.5282 9.07527 34.3275Z" fill="white"/>
<path d="M9.74193 34.6323C9.70227 34.5934 9.66038 34.5569 9.61648 34.5229C9.55376 34.4746 9.48745 34.428 9.42473 34.3814C9.36366 34.337 9.29959 34.2968 9.23297 34.2613C9.19463 34.24 9.15514 34.2209 9.11469 34.204C9.05884 34.1777 8.99673 34.1678 8.93548 34.1753C8.91943 34.1757 8.9038 34.1805 8.89022 34.1891C8.87663 34.1976 8.8656 34.2097 8.85828 34.224C8.85095 34.2382 8.8476 34.2542 8.84857 34.2703C8.84954 34.2863 8.8548 34.3018 8.8638 34.3151C8.91306 34.3684 8.97457 34.409 9.04301 34.4333L9.13978 34.4853C9.20609 34.5247 9.26523 34.5695 9.31899 34.6143C9.37276 34.6591 9.44444 34.7022 9.49821 34.747C9.59065 34.8219 9.69399 34.8824 9.80466 34.9262C9.80961 34.9288 9.81516 34.9302 9.82079 34.9302C9.82642 34.9302 9.83196 34.9288 9.83691 34.9262C9.92831 34.8545 9.7939 34.6842 9.74193 34.6323Z" fill="#455A64"/>
<path d="M66.8764 14.6124C66.0932 15.6662 65.0448 21.4601 64.6488 23.3185C62.7437 23.263 60.1954 23.1734 59.2312 23.073C58.1559 22.9601 55.8602 22.7397 54.733 22.8938C51.9355 23.2522 52.0448 25.0909 52.1129 25.5712C52.1864 26.1196 52.5789 26.3705 54.0842 26.0282C54.4211 25.9542 54.7645 25.914 55.1093 25.9081C55.2545 25.9081 55.5609 25.8347 55.6756 25.9583C55.8549 26.1375 55.3369 26.4386 55.2079 26.521C55.009 26.6501 54.8011 26.8132 54.7599 27.0461C54.7481 27.0887 54.7487 27.1338 54.7617 27.1761C54.7747 27.2183 54.7996 27.2559 54.8333 27.2845C54.9063 27.3143 54.988 27.3143 55.0609 27.2845C55.7481 27.1214 56.4108 26.869 57.0323 26.5336C57.2666 26.3923 57.5131 26.2724 57.7688 26.1752C58.1577 26.0497 58.5592 26.1232 58.9498 26.1232C59.7903 26.1232 64.233 26.5641 66.2079 26.7648C67.5753 26.9028 67.7204 25.5533 68.1918 24.1859C68.7706 22.4906 70.1416 13.5748 70.1416 13.5748C68.7581 13.3741 67.8083 13.3615 66.8764 14.6124Z" fill="#FFA8A7"/>
<path d="M70.1631 13.4349C69.5018 13.3131 68.0126 13.1285 67.2025 14.0335C66.3925 14.9385 66.2007 15.8883 65.8441 17.2593C65.4875 18.6303 64.8548 21.0855 64.8548 21.0855C64.8548 21.0855 65.8996 22.5855 69.1703 22.1607L70.1631 13.4349Z" fill="#37474F"/>
<path d="M78.3763 60.8222L76.0771 60.824L75.4158 55.833L78.3172 55.7183L78.3763 60.8222Z" fill="#FFA8A7"/>
<path d="M70.7419 58.3292C70.3513 59.0085 69.095 58.9529 68.0538 58.7128L67.9337 53.8059L71.0072 53.6841L70.7419 58.3292Z" fill="#FFA8A7"/>
<path d="M78.2204 29.2845C78.3029 31.4081 78.0215 43.9655 78.0215 43.9655C78.0986 44.5748 78.7294 45.6375 78.8602 47.8365C79.052 51.03 78.4014 57.84 78.4014 57.84C78.4014 57.84 77.0842 58.5282 75.6649 58.0013C75.6649 58.0013 74.2204 48.1447 73.6936 44.9942C73.2384 42.2522 72.6541 34.8974 72.6541 34.8974L71.5197 44.3239C71.7277 45.4397 71.8136 46.5748 71.776 47.7092C71.7294 49.1752 70.8943 56.2934 70.8943 56.2934C69.9415 56.6051 68.9181 56.6294 67.9516 56.3633C67.9516 56.3633 67.267 45.3167 67.1882 43.978C67.0986 42.4511 67.1595 28.9727 67.1595 28.9727L78.2204 29.2845Z" fill="#0AAD0A"/>
<path opacity="0.2" d="M72.6577 34.901C72.6577 34.901 70.6487 34.3311 69.2796 33.1089C69.2796 33.1089 69.9211 34.2039 71.7384 35.1752L71.6344 43.4028L72.6577 34.901Z" fill="black"/>
<path d="M73.457 64.9851C73.3835 65.0604 73.4265 65.5568 73.5161 65.6858C73.6057 65.8149 74.1541 66.2521 75.1057 66.2844C76.0143 66.3131 76.8172 66.1589 77.3351 65.8005C77.853 65.4421 78.0968 65.0604 78.1272 64.546C78.1577 64.0317 78.0806 63.5317 78.3064 63.1249C78.5197 62.7503 78.8656 62.322 78.9355 62.1195C79.0914 61.6804 78.9014 61.0693 78.9014 61.0693L73.457 64.9851Z" fill="#263238"/>
<path d="M75.7509 60.3848C75.7521 60.5808 75.7243 60.7758 75.6685 60.9637C75.474 61.5749 75.1817 62.1504 74.8029 62.668C74.5412 63.0031 74.2115 63.2845 73.9337 63.6089C73.6365 63.9165 73.4542 64.3171 73.4176 64.7433C73.4068 65.4601 74.1882 65.6662 74.785 65.7486C75.4319 65.834 76.0897 65.7727 76.7097 65.5694C77.0363 65.471 77.3274 65.2803 77.5481 65.0202C77.7688 64.7601 77.9095 64.4417 77.9534 64.1035C77.9785 63.9046 77.9534 63.7038 77.9749 63.5049C78.0356 63.048 78.2087 62.6133 78.4785 62.2397C78.6347 62.0234 78.768 61.7916 78.8764 61.5479C79.043 61.0999 78.8764 60.6106 78.7402 60.1787C78.6237 59.8042 78.491 59.3795 78.3602 59.4207C78.3602 59.6196 78.3602 59.6375 78.233 59.7791C78.0538 59.9583 78.0627 60.2074 77.8746 60.3633C77.929 60.1979 77.9662 60.0274 77.9857 59.8544C77.9945 59.7838 77.9773 59.7124 77.9373 59.6537C77.8726 59.6011 77.7965 59.5642 77.7151 59.5461C77.4316 59.4624 77.1404 59.4077 76.8459 59.383C76.5655 59.3462 76.281 59.3553 76.0036 59.4099C75.9216 59.4289 75.8483 59.475 75.7957 59.5408C75.7496 59.6141 75.7265 59.6996 75.7294 59.7863C75.7294 59.9028 75.7491 60.1949 75.7509 60.3848Z" fill="#455A64"/>
<path d="M75.0699 62.2719C75.328 62.064 75.9194 62.0372 76.2455 62.0604C76.576 62.0754 76.8973 62.1741 77.1792 62.3472C77.2208 62.3749 77.2709 62.3869 77.3205 62.381C77.3701 62.3751 77.416 62.3517 77.4498 62.3149C77.4696 62.294 77.4846 62.2691 77.4939 62.2418C77.5031 62.2145 77.5063 62.1856 77.5032 62.1569C77.5001 62.1283 77.4909 62.1007 77.4761 62.076C77.4613 62.0513 77.4413 62.0301 77.4176 62.0139C77.1061 61.8027 76.7416 61.6835 76.3656 61.6698C75.5663 61.6465 75.3387 61.7916 75.3387 61.7916C75.3387 61.7916 74.9821 62.0389 75.0699 62.2719Z" fill="#F5F5F5"/>
<path d="M74.4893 63.0247C74.8136 62.8151 75.4678 62.8168 75.7921 62.8455C76.1172 62.8661 76.4312 62.9718 76.7025 63.152C76.7438 63.1796 76.7936 63.1915 76.8429 63.1856C76.8922 63.1797 76.9378 63.1563 76.9713 63.1197C76.9915 63.0991 77.0069 63.0743 77.0164 63.047C77.026 63.0198 77.0294 62.9908 77.0265 62.9621C77.0236 62.9333 77.0144 62.9056 76.9996 62.8808C76.9848 62.856 76.9648 62.8348 76.9409 62.8186C76.6242 62.5965 76.2518 62.4674 75.8656 62.4459C75.0645 62.4208 74.8638 62.591 74.8638 62.591C74.7728 62.6305 74.6918 62.69 74.627 62.7651C74.5621 62.8402 74.515 62.9289 74.4893 63.0247Z" fill="#F5F5F5"/>
<path d="M76.6523 60.8957C76.3141 60.8495 75.9696 60.8915 75.6523 61.0175C75.5161 61.1018 75.4319 61.3276 75.5233 61.3759C75.8009 61.2513 76.105 61.1971 76.4086 61.2182C76.7085 61.2358 77.0031 61.3049 77.2796 61.4225C77.3495 61.4494 77.4319 61.4888 77.5036 61.5247C77.5265 61.5364 77.5516 61.5434 77.5773 61.5451C77.603 61.5468 77.6288 61.5433 77.6531 61.5348C77.6774 61.5262 77.6998 61.5128 77.7187 61.4954C77.7377 61.4779 77.7529 61.4568 77.7634 61.4333C77.7804 61.3925 77.7817 61.347 77.7672 61.3053C77.7526 61.2636 77.7232 61.2288 77.6846 61.2075C77.3669 61.0306 77.0148 60.9242 76.6523 60.8957Z" fill="#F5F5F5"/>
<path d="M62.7993 61.3903C62.7179 61.5952 62.7179 61.8235 62.7993 62.0283C62.8781 62.2201 63.828 62.8151 65.147 62.79C66.1278 62.7661 67.0844 62.4803 67.9176 61.962C68.4355 61.6538 68.9606 61.6161 69.6129 61.6036C70.2652 61.5911 71.1362 61.3133 71.2939 61.0158C71.4516 60.7183 71.3118 60.186 71.3118 60.186L62.7993 61.3903Z" fill="#263238"/>
<path d="M68.3011 57.5371L68.1989 57.5103C68.1409 57.4927 68.0799 57.4872 68.0197 57.4941C67.9552 57.5096 67.897 57.5447 67.8531 57.5945C67.7174 57.7534 67.5974 57.9251 67.4946 58.107C67.1989 58.5425 66.5986 58.8884 65.9534 59.1984C65.5126 59.4081 65.0842 59.5676 64.6308 59.745C64.1774 59.9224 63.5556 60.0228 63.1971 60.245C62.6595 60.5694 62.5574 61.4386 63.1273 61.8113C63.6219 62.1339 64.9409 62.5192 66.3531 62.1895C67.1255 62.0103 68.0108 61.2361 69.0143 61.2056C69.6541 61.1859 70.8656 61.064 71.2975 60.5999C71.4606 60.3938 71.2975 59.7038 71.1523 59.1088C71.0018 58.4601 71.0699 57.4959 70.7796 57.4959L70.7617 57.8203C70.7348 57.9171 70.5072 58.0121 70.4355 58.0873L70.1774 58.3597C70.0717 58.4859 69.9427 58.5905 69.7975 58.668C69.5412 58.7827 69.242 58.7146 68.9678 58.6429C68.957 58.6429 69.1057 58.1447 69.1219 58.0963C69.138 58.0584 69.143 58.0168 69.1362 57.9762C69.1225 57.9365 69.0952 57.9029 69.0592 57.8812C68.8329 57.7155 68.5748 57.5983 68.3011 57.5371Z" fill="#455A64"/>
<path d="M66.5663 58.8794C66.6165 58.7941 66.6872 58.7226 66.772 58.6716C66.8568 58.6206 66.9531 58.5916 67.052 58.5873C67.3441 58.5479 67.8441 58.7845 68.1505 59.0622C68.1794 59.0883 68.2015 59.121 68.2149 59.1575C68.2282 59.194 68.2324 59.2333 68.2271 59.2718C68.2218 59.3103 68.2072 59.347 68.1845 59.3786C68.1617 59.4101 68.1316 59.4357 68.0968 59.4529C68.0531 59.4746 68.0037 59.4821 67.9555 59.4743C67.9073 59.4666 67.8627 59.4441 67.828 59.4099C67.4924 59.0757 67.0398 58.8855 66.5663 58.8794Z" fill="#F5F5F5"/>
<path d="M65.6452 59.3401C65.7123 59.2542 65.7992 59.1858 65.8984 59.1406C65.9976 59.0953 66.1062 59.0746 66.2151 59.0802C66.2151 59.0802 66.9713 59.1376 67.4176 59.5964C67.4451 59.6215 67.4662 59.653 67.4789 59.688C67.4917 59.7231 67.4958 59.7607 67.4909 59.7977C67.4859 59.8346 67.4721 59.8699 67.4506 59.9004C67.4291 59.9308 67.4006 59.9557 67.3674 59.9727C67.3251 59.9933 67.2775 60.0004 67.231 59.9931C67.1845 59.9857 67.1414 59.9642 67.1075 59.9315C66.9239 59.7294 66.697 59.5712 66.4439 59.4688C66.1907 59.3665 65.9177 59.3225 65.6452 59.3401Z" fill="#F5F5F5"/>
<path d="M64.6326 59.7451C64.7088 59.6663 64.801 59.6049 64.9031 59.565C65.0052 59.5251 65.1146 59.5077 65.224 59.5139C65.6525 59.5612 66.0551 59.7425 66.3746 60.0319C66.4021 60.0572 66.4231 60.0888 66.4359 60.124C66.4486 60.1592 66.4527 60.1969 66.4478 60.234C66.4429 60.2711 66.4291 60.3064 66.4076 60.3371C66.3861 60.3677 66.3576 60.3927 66.3244 60.41C66.282 60.4309 66.2342 60.438 66.1875 60.4303C66.1409 60.4226 66.0979 60.4005 66.0645 60.367C65.8906 60.1592 65.6706 59.9948 65.4221 59.8869C65.1735 59.7789 64.9032 59.7304 64.6326 59.7451Z" fill="#F5F5F5"/>
<path d="M73.9946 13.4745C74.8405 13.5713 75.8405 13.6233 76.6487 13.729C77.69 13.8652 78.5018 14.9423 78.7563 16.6089C79.0358 18.444 77.8602 23.7057 77.8602 23.7057L78.2348 29.91C76.7097 31.0337 70.2151 31.6233 66.9785 29.2863C66.9785 29.2863 67.0538 18.7272 67.3065 17.1C67.6541 14.8688 68.2025 13.4835 70.7115 13.324L73.9946 13.4745Z" fill="#455A64"/>
<path d="M79.7778 26.9154C79.5036 27.3742 79.2276 27.8329 78.9445 28.2863C78.8405 28.4548 78.7348 28.6215 78.6255 28.7863C78.5662 28.867 78.497 28.9399 78.4194 29.0032C78.2832 29.0964 78 29.0372 77.8351 29.0426C77.0251 29.0701 76.2175 29.1298 75.4122 29.2218C75.3448 29.2197 75.2778 29.2324 75.2159 29.2591C75.1539 29.2857 75.0986 29.3256 75.0538 29.376C75.0207 29.4453 75.0141 29.5244 75.0352 29.5984C75.0563 29.6723 75.1037 29.7359 75.1685 29.7774C75.3004 29.8566 75.4502 29.901 75.604 29.9064L76.3029 29.9889C76.4026 29.9922 76.4994 30.0232 76.5824 30.0785C76.8369 30.2846 76.3513 30.5319 76.2061 30.6322C75.9142 30.835 75.6026 31.0079 75.276 31.1484C73.819 31.7613 73.6416 32.2057 73.9104 32.7111C74.1434 33.1501 75.1506 34.7469 77.7097 33.3724C78.7402 32.8186 80.3083 31.0695 81.0233 30.2236C82.052 29.0032 83.7921 26.281 83.7921 26.281C84.7814 24.9225 84.9086 24.3652 84.9319 23.8007C84.9552 23.2362 81.8853 18.8939 80.8423 17.3688C79.7993 15.8437 79.3029 13.9889 76.6488 13.7344C76.6488 13.7344 75.638 16.9387 77.3118 19.0122L81.1774 24.4046C81.1774 24.4046 80.1541 26.2863 79.7778 26.9154Z" fill="#FFA8A7"/>
<path d="M82.5824 19.4369C82.086 18.72 81.5681 17.9817 81.0681 17.2505C78.9624 14.177 79.1398 13.6143 76.1039 13.5713C75.8351 13.9835 75.6756 15.7577 76.0807 17.539C76.4194 19.0354 77.6936 20.091 77.6936 20.091L79.2133 22.1501C79.2133 22.1501 80.1434 22.1215 81.2581 21.3043C81.9018 20.8533 82.3697 20.1935 82.5824 19.4369Z" fill="#37474F"/>
<path d="M75.9964 5.39728C75.8438 5.16987 75.6324 4.98811 75.3846 4.87134C75.1369 4.75457 74.8622 4.70718 74.5896 4.73419L74.4319 8.58186L74.1738 10.003L74.2186 11.5854C74.3684 11.5643 74.5105 11.5055 74.6314 11.4146C74.7524 11.3237 74.8483 11.2037 74.9104 11.0657C75.147 10.6105 75.8065 8.40982 75.8065 8.40982C76.3979 6.60158 76.2724 5.78437 75.9964 5.39728Z" fill="#263238"/>
<path d="M74.2527 8.59998C74.3192 8.36613 74.4473 8.15444 74.6237 7.98707C74.8441 7.75052 75.7222 7.49424 76.1219 8.23976C76.5215 8.98528 75.8477 9.96915 75.328 10.2702C74.6631 10.6573 74.2724 10.1304 74.2724 10.1304L74.2885 13.6735C73.9785 14.3903 72.5789 15.0283 71.7455 14.9279C71.0825 14.8437 70.4713 14.3222 71.0645 13.5623L71.0161 12.5516C71.0161 12.5516 70.129 12.7308 69.69 12.686C68.9606 12.6107 68.4749 12.0606 68.2169 11.2864C67.8011 10.0426 67.6165 9.03188 67.7921 6.53725C67.9857 3.80428 71.1452 3.61969 72.9068 4.60894C74.6685 5.59819 74.2527 8.59998 74.2527 8.59998Z" fill="#FFA8A7"/>
<path d="M66.7867 3.69847C66.7061 3.1017 66.9122 2.46191 67.5376 2.25044C67.7672 2.15443 68.0191 2.12519 68.2645 2.16609C68.5099 2.20699 68.7388 2.31636 68.9247 2.48163C69.0032 2.27109 69.1387 2.08659 69.3162 1.94887C69.4937 1.81115 69.7061 1.72567 69.9295 1.70202C70.153 1.67838 70.3785 1.71751 70.5809 1.81502C70.7833 1.91254 70.9545 2.06457 71.0753 2.25403C71.2414 2.00169 71.498 1.82272 71.7921 1.75403C71.9735 1.71353 72.1611 1.70979 72.344 1.74303C72.5268 1.77627 72.7011 1.84583 72.8566 1.94758C73.1111 2.13575 73.4104 2.48521 73.3351 2.93861C73.8387 2.73611 74.3638 2.90456 74.7384 3.34901C74.9613 3.62117 75.0873 3.95971 75.0968 4.31137C75.1098 4.49403 75.0835 4.67735 75.0197 4.84901C74.948 5.01209 74.8011 5.11962 74.7581 5.30421C74.6955 5.46661 74.6633 5.63913 74.6631 5.81317C74.7043 6.11424 74.7706 6.41532 74.81 6.70922C74.8525 7.00196 74.877 7.29701 74.8835 7.59274C74.8742 7.66229 74.85 7.72901 74.8125 7.78838C74.7751 7.84775 74.7254 7.89838 74.6667 7.93682C74.4994 8.08315 74.3697 8.26754 74.2885 8.47446C74.2258 8.60349 74.1649 8.92249 74.0412 9.01209C73.6595 9.27912 73.6165 8.41532 73.5986 8.24865C73.574 7.86613 73.574 7.48243 73.5986 7.09991C73.4061 7.09742 73.2162 7.05468 73.0412 6.97443C72.8662 6.89418 72.7099 6.77821 72.5824 6.63396C72.4502 6.47185 72.3631 6.27776 72.3298 6.07123C72.3091 5.95291 72.2995 5.83291 72.3011 5.71281C72.052 6.12499 71.4731 6.29345 71.0609 6.25044C70.3692 6.18772 70.1308 5.89202 70.0197 5.67517C69.976 5.88892 69.882 6.08918 69.7455 6.2594C69.5688 6.42545 69.3559 6.54816 69.1237 6.61783C68.9233 6.67128 68.7122 6.66917 68.513 6.6117C68.3138 6.55424 68.1339 6.4436 67.9928 6.29166C67.7115 6.69489 66.9982 6.51568 66.8405 6.40277C66.4821 6.14292 66.3656 5.83288 66.3262 5.39023C66.2867 4.94758 66.466 4.4422 66.957 4.26836C66.8685 4.08937 66.8109 3.89668 66.7867 3.69847Z" fill="#263238"/>
<path d="M71.0161 12.5462C71.0161 12.5462 72.6183 12.1412 73.1667 11.8114C73.491 11.6215 73.7503 11.3379 73.9104 10.9978C73.8412 11.3332 73.7053 11.6514 73.5108 11.9333C73.1237 12.4835 71.0341 12.9781 71.0341 12.9781L71.0161 12.5462Z" fill="#F28F8F"/>
<path d="M71.1057 8.48156C71.1118 8.54944 71.1377 8.61405 71.1801 8.66735C71.2226 8.72065 71.2798 8.7603 71.3446 8.78135C71.4094 8.80241 71.479 8.80396 71.5447 8.78579C71.6104 8.76763 71.6693 8.73057 71.7141 8.6792C71.7589 8.62784 71.7876 8.56444 71.7966 8.49689C71.8057 8.42934 71.7947 8.36062 71.765 8.29928C71.7353 8.23793 71.6883 8.18666 71.6297 8.15183C71.5711 8.11701 71.5036 8.10018 71.4355 8.10342C71.342 8.11077 71.2551 8.15448 71.1934 8.22517C71.1318 8.29587 71.1003 8.38792 71.1057 8.48156Z" fill="#263238"/>
<path d="M70.5699 11.0748C70.5781 11.1622 70.6118 11.2453 70.6668 11.3138C70.7219 11.3822 70.7958 11.4329 70.8794 11.4597C70.9631 11.4865 71.0527 11.4881 71.1373 11.4643C71.2218 11.4405 71.2975 11.3924 71.3549 11.326C71.4123 11.2596 71.449 11.1777 71.4603 11.0906C71.4716 11.0035 71.457 10.9151 71.4184 10.8362C71.3799 10.7573 71.319 10.6915 71.2433 10.6469C71.1676 10.6024 71.0805 10.581 70.9928 10.5856C70.8722 10.5952 70.7602 10.6519 70.6811 10.7435C70.6019 10.835 70.562 10.954 70.5699 11.0748Z" fill="#F28F8F"/>
<path d="M71.3943 7.28808L72.1326 7.64651C72.1786 7.5453 72.184 7.43031 72.1476 7.32526C72.1113 7.22021 72.036 7.13312 71.9373 7.08199C71.8883 7.05857 71.8351 7.04533 71.7808 7.04307C71.7266 7.04081 71.6724 7.04958 71.6217 7.06885C71.5709 7.08811 71.5246 7.11747 71.4855 7.15516C71.4464 7.19284 71.4154 7.23806 71.3943 7.28808Z" fill="#263238"/>
<path d="M68.1828 7.59812L68.8118 7.06049C68.779 7.0176 68.7378 6.98187 68.6907 6.95549C68.6436 6.92912 68.5916 6.91266 68.5379 6.90712C68.4842 6.90158 68.4299 6.90708 68.3784 6.92329C68.3269 6.93949 68.2792 6.96605 68.2384 7.00135C68.1545 7.07479 68.1019 7.17763 68.0916 7.28866C68.0812 7.39969 68.1139 7.51045 68.1828 7.59812Z" fill="#263238"/>
<path d="M68.371 8.41184C68.3753 8.47813 68.3991 8.54167 68.4395 8.59445C68.4798 8.64724 68.5348 8.68693 68.5977 8.70852C68.6605 8.73011 68.7283 8.73265 68.7926 8.71581C68.8568 8.69897 68.9147 8.66351 68.9589 8.61389C69.003 8.56426 69.0315 8.50269 69.0408 8.4369C69.0501 8.37112 69.0397 8.30406 69.0109 8.24416C68.9822 8.18427 68.9364 8.1342 68.8793 8.10026C68.8222 8.06632 68.7563 8.05003 68.69 8.05342C68.6004 8.05942 68.5168 8.10034 68.4572 8.16738C68.3975 8.23442 68.3665 8.32221 68.371 8.41184Z" fill="#263238"/>
<path d="M70.0341 8.01392L70.0233 10.134L68.9014 9.81141L70.0341 8.01392Z" fill="#F28F8F"/>
<path d="M67.2186 10.9799C67.229 10.9776 67.2388 10.9733 67.2474 10.9671C67.256 10.9609 67.2633 10.9531 67.2688 10.9441C67.2752 10.9352 67.2797 10.9252 67.2821 10.9145C67.2844 10.9039 67.2846 10.8928 67.2826 10.8821C67.2806 10.8714 67.2764 10.8612 67.2704 10.8521C67.2643 10.8431 67.2565 10.8353 67.2473 10.8294L66.2724 10.1806C66.2634 10.1746 66.2532 10.1704 66.2425 10.1683C66.2319 10.1662 66.2209 10.1662 66.2102 10.1684C66.1995 10.1706 66.1894 10.1748 66.1804 10.1809C66.1714 10.187 66.1637 10.1948 66.1577 10.2039C66.1514 10.2129 66.147 10.2231 66.1448 10.2338C66.1426 10.2445 66.1425 10.2556 66.1447 10.2663C66.1469 10.277 66.1512 10.2872 66.1575 10.2962C66.1637 10.3052 66.1717 10.3128 66.181 10.3186L67.1541 10.9674C67.1633 10.9741 67.1738 10.9787 67.185 10.9809C67.1961 10.983 67.2076 10.9827 67.2186 10.9799Z" fill="#E0E0E0"/>
<path d="M67.1147 11.3992C67.1299 11.3955 67.1437 11.3876 67.1548 11.3766C67.1658 11.3655 67.1737 11.3517 67.1774 11.3365C67.1823 11.3149 67.1784 11.2922 67.1667 11.2735C67.1549 11.2547 67.1363 11.2413 67.1147 11.2362L65.9749 10.9727C65.9643 10.97 65.9533 10.9695 65.9425 10.9711C65.9317 10.9728 65.9213 10.9765 65.912 10.9822C65.9027 10.9879 65.8945 10.9953 65.8881 11.0042C65.8817 11.013 65.8771 11.023 65.8746 11.0336C65.8697 11.0553 65.8736 11.0779 65.8853 11.0967C65.8971 11.1155 65.9157 11.1289 65.9373 11.134L67.0771 11.3992C67.0896 11.401 67.1022 11.401 67.1147 11.3992Z" fill="#E0E0E0"/>
<path d="M66.0556 12.1572H66.0663L67.1649 11.7557C67.1856 11.7481 67.2024 11.7326 67.2116 11.7126C67.2208 11.6926 67.2218 11.6698 67.2142 11.6491C67.2066 11.6284 67.1911 11.6116 67.1711 11.6024C67.1511 11.5931 67.1282 11.5922 67.1075 11.5998L66.009 12.0013C65.9987 12.005 65.9892 12.0108 65.9812 12.0183C65.9731 12.0258 65.9666 12.0348 65.9621 12.0448C65.9576 12.0549 65.9552 12.0657 65.9549 12.0767C65.9546 12.0876 65.9566 12.0986 65.9606 12.1088C65.9681 12.1268 65.9818 12.1415 65.9992 12.1504C66.0166 12.1593 66.0366 12.1617 66.0556 12.1572Z" fill="#E0E0E0"/>
<path d="M56.7617 20.7541C56.7843 20.7995 56.8198 20.8374 56.8637 20.8629C56.9077 20.8884 56.9581 20.9005 57.0089 20.8976C57.0596 20.8947 57.1084 20.8771 57.1491 20.8468C57.1899 20.8165 57.2209 20.7749 57.2384 20.7272L58.0556 18.7111C58.0688 18.6787 58.0754 18.6441 58.075 18.6091C58.0746 18.5742 58.0671 18.5397 58.053 18.5077C58.0389 18.4758 58.0186 18.4469 57.9931 18.423C57.9676 18.3991 57.9376 18.3806 57.9048 18.3685C57.872 18.3564 57.8372 18.3511 57.8023 18.3529C57.7674 18.3546 57.7332 18.3633 57.7017 18.3786C57.6703 18.3938 57.6423 18.4153 57.6193 18.4416C57.5963 18.4679 57.5789 18.4986 57.5681 18.5318L56.7491 20.548C56.737 20.5814 56.7319 20.6169 56.734 20.6523C56.7362 20.6878 56.7456 20.7224 56.7617 20.7541Z" fill="#E0E0E0"/>
<path d="M55.4158 20.7432C55.4419 20.7961 55.4851 20.8384 55.5385 20.8635C55.5919 20.8885 55.6521 20.8946 55.7094 20.8808C55.7667 20.8671 55.8176 20.8343 55.8538 20.7878C55.89 20.7413 55.9093 20.6839 55.9086 20.6249L55.8817 18.116C55.8763 18.051 55.8467 17.9905 55.7987 17.9463C55.7508 17.9022 55.688 17.8777 55.6228 17.8777C55.5576 17.8777 55.4948 17.9022 55.4468 17.9463C55.3988 17.9905 55.3692 18.051 55.3638 18.116L55.3889 20.6249C55.3884 20.6659 55.3976 20.7065 55.4158 20.7432Z" fill="#E0E0E0"/>
<path d="M53.1344 19.3473L53.1505 19.3778L54.3853 21.1699C54.4236 21.2266 54.4827 21.266 54.5498 21.2794C54.6169 21.2928 54.6866 21.2792 54.7437 21.2416C54.7994 21.2024 54.8378 21.1432 54.8509 21.0764C54.8639 21.0096 54.8505 20.9403 54.8136 20.8831L53.5789 19.091C53.5429 19.0354 53.4869 18.9958 53.4226 18.9803C53.3582 18.9648 53.2903 18.9747 53.233 19.0078C53.1757 19.041 53.1333 19.0949 53.1146 19.1584C53.0959 19.2219 53.1024 19.2902 53.1326 19.3491L53.1344 19.3473Z" fill="#E0E0E0"/>
<path fill-rule="evenodd" clip-rule="evenodd" d="M62.355 7.24424C63.4394 6.54388 64 5.77052 64 5C64 2.51472 58.1677 0 47.7377 0C37.3077 0 32 2.51472 32 5C32 7.48528 37.3077 10 47.7377 10C51.4273 10 54.5416 9.68531 57.0258 9.16856C58.7808 9.61391 60.4423 10.004 62.275 10.4343C63.4004 10.6985 64.5904 10.9778 65.9062 11.2945C63.9107 9.74249 62.9231 8.43464 62.355 7.24424Z" fill="#EBEBEB" fill-opacity="0.5"/>
<path d="M39.7285 6.7998C39.7285 6.8291 39.7253 6.8584 39.7188 6.8877C39.7139 6.91536 39.7041 6.94059 39.6895 6.96338C39.6764 6.98454 39.6585 7.00163 39.6357 7.01465C39.613 7.02767 39.5837 7.03418 39.5479 7.03418C39.5039 7.03418 39.4681 7.02441 39.4404 7.00488C39.4144 6.98698 39.39 6.96094 39.3672 6.92676C39.3363 6.88281 39.3086 6.83236 39.2842 6.77539C39.2598 6.7168 39.2378 6.65739 39.2183 6.59717C39.1987 6.53532 39.18 6.47428 39.1621 6.41406C39.1458 6.35221 39.1296 6.29525 39.1133 6.24316C39.0254 5.96973 38.9432 5.6971 38.8667 5.42529C38.7918 5.15348 38.7113 4.88086 38.625 4.60742C38.6169 4.96061 38.6104 5.31217 38.6055 5.66211C38.6022 6.01204 38.6006 6.36361 38.6006 6.7168C38.6006 6.7347 38.5998 6.75505 38.5981 6.77783C38.5965 6.80062 38.5924 6.82259 38.5859 6.84375C38.5794 6.86328 38.5688 6.88037 38.5542 6.89502C38.5412 6.90967 38.5225 6.91699 38.498 6.91699C38.415 6.91699 38.3516 6.89502 38.3076 6.85107C38.2653 6.8055 38.2441 6.74121 38.2441 6.6582C38.2441 6.20085 38.245 5.74756 38.2466 5.29834C38.2482 4.84912 38.249 4.39746 38.249 3.94336V3.59668C38.249 3.55924 38.2555 3.52832 38.2686 3.50391C38.2832 3.47786 38.3141 3.46484 38.3613 3.46484C38.3939 3.46484 38.4272 3.46973 38.4614 3.47949C38.4956 3.48763 38.5257 3.50065 38.5518 3.51855C38.5794 3.53646 38.6014 3.56006 38.6177 3.58936C38.6356 3.61702 38.6445 3.65039 38.6445 3.68945C38.7129 3.81966 38.7699 3.95394 38.8154 4.09229C38.8626 4.23063 38.9082 4.36979 38.9521 4.50977C39.0156 4.71322 39.0783 4.91667 39.1401 5.12012C39.202 5.32357 39.2646 5.52865 39.3281 5.73535C39.3184 5.42773 39.3078 5.12093 39.2964 4.81494C39.2866 4.50732 39.2663 4.20052 39.2354 3.89453C39.2272 3.8278 39.2174 3.7627 39.2061 3.69922C39.1963 3.63574 39.1914 3.57064 39.1914 3.50391C39.1914 3.46973 39.2028 3.44694 39.2256 3.43555C39.2484 3.42253 39.2744 3.41602 39.3037 3.41602C39.3542 3.41602 39.3973 3.42008 39.4331 3.42822C39.4689 3.43636 39.499 3.4502 39.5234 3.46973C39.5479 3.48926 39.5666 3.51611 39.5796 3.55029C39.5926 3.58285 39.6032 3.62435 39.6113 3.6748C39.6211 3.7627 39.6284 3.8514 39.6333 3.94092C39.6398 4.02881 39.6455 4.11589 39.6504 4.20215C39.665 4.42025 39.6756 4.63672 39.6821 4.85156C39.6886 5.06641 39.6943 5.28288 39.6992 5.50098C39.7041 5.71745 39.7098 5.93392 39.7163 6.15039C39.7244 6.36523 39.7285 6.58171 39.7285 6.7998ZM41.0713 5.99902C41.0713 6.14062 41.0591 6.28223 41.0347 6.42383C41.0119 6.5638 40.9639 6.69645 40.8906 6.82178C40.8678 6.85921 40.8418 6.89583 40.8125 6.93164C40.7832 6.96582 40.7507 6.99674 40.7148 7.02441C40.6807 7.05371 40.6424 7.0765 40.6001 7.09277C40.5594 7.11068 40.5163 7.11963 40.4707 7.11963C40.3991 7.11963 40.3364 7.10254 40.2827 7.06836C40.2306 7.03581 40.1851 6.99268 40.146 6.93896C40.1086 6.88363 40.0768 6.82178 40.0508 6.75342C40.0264 6.68343 40.0068 6.61263 39.9922 6.54102C39.9792 6.46777 39.9694 6.39697 39.9629 6.32861C39.958 6.26025 39.9556 6.20003 39.9556 6.14795C39.9556 6.08936 39.958 6.02507 39.9629 5.95508C39.9678 5.88509 39.9759 5.81348 39.9873 5.74023C40.0003 5.66699 40.0166 5.59456 40.0361 5.52295C40.0573 5.45133 40.0841 5.3846 40.1167 5.32275C40.1493 5.25928 40.1883 5.20312 40.2339 5.1543C40.2795 5.10384 40.3324 5.06396 40.3926 5.03467V5.03711C40.4447 5.00944 40.4967 4.99561 40.5488 4.99561C40.5814 4.99561 40.6066 5.00293 40.6245 5.01758C40.6424 5.0306 40.6506 5.05339 40.6489 5.08594C40.7384 5.10221 40.8109 5.14535 40.8662 5.21533C40.9215 5.28532 40.9639 5.3667 40.9932 5.45947C41.0241 5.55225 41.0444 5.64746 41.0542 5.74512C41.0656 5.84277 41.0713 5.92741 41.0713 5.99902ZM40.5195 5.38867C40.4919 5.38867 40.4658 5.37809 40.4414 5.35693C40.4105 5.40413 40.3844 5.45866 40.3633 5.52051C40.3421 5.58073 40.325 5.64339 40.312 5.7085C40.3006 5.77197 40.2925 5.83626 40.2876 5.90137C40.2827 5.96647 40.2803 6.02751 40.2803 6.08447C40.2803 6.13167 40.2827 6.19271 40.2876 6.26758C40.2925 6.34082 40.3014 6.41488 40.3145 6.48975C40.3291 6.56462 40.3486 6.6346 40.373 6.69971C40.3991 6.76481 40.4325 6.81283 40.4731 6.84375C40.5236 6.81445 40.5651 6.76807 40.5977 6.70459C40.6318 6.63949 40.6587 6.56868 40.6782 6.49219C40.6978 6.41569 40.7108 6.33838 40.7173 6.26025C40.7254 6.18213 40.7295 6.1154 40.7295 6.06006C40.7295 6.01937 40.7271 5.96647 40.7222 5.90137C40.7173 5.83626 40.7091 5.77035 40.6978 5.70361C40.6864 5.63525 40.6701 5.57178 40.6489 5.51318C40.6294 5.45459 40.6042 5.41064 40.5732 5.38135C40.5586 5.38623 40.5407 5.38867 40.5195 5.38867ZM43.5786 4.37305C43.5786 4.53418 43.5526 4.69613 43.5005 4.85889C43.45 5.02165 43.3784 5.17383 43.2856 5.31543C43.1945 5.45703 43.0846 5.58317 42.9561 5.69385C42.8275 5.80452 42.6867 5.88835 42.5337 5.94531C42.5435 6.0804 42.5549 6.21468 42.5679 6.34814C42.5809 6.48161 42.5988 6.61589 42.6216 6.75098C42.6265 6.77539 42.6313 6.80062 42.6362 6.82666C42.6427 6.8527 42.646 6.87956 42.646 6.90723C42.646 6.94954 42.6354 6.97803 42.6143 6.99268C42.5931 7.00732 42.563 7.01465 42.5239 7.01465C42.4963 7.01465 42.4629 7.01139 42.4238 7.00488C42.3848 6.99837 42.3514 6.98861 42.3237 6.97559C42.2912 6.95768 42.2692 6.93978 42.2578 6.92188C42.248 6.90234 42.2407 6.8763 42.2358 6.84375C42.2082 6.7054 42.1911 6.56706 42.1846 6.42871C42.1797 6.29036 42.1724 6.15202 42.1626 6.01367C42.13 6.01042 42.1032 6.00228 42.082 5.98926C42.0609 5.97461 42.0503 5.9502 42.0503 5.91602C42.0503 5.88346 42.0592 5.84928 42.0771 5.81348C42.0967 5.77767 42.1187 5.75 42.1431 5.73047C42.1284 5.42773 42.1219 5.12744 42.1235 4.82959C42.1268 4.53174 42.1268 4.23145 42.1235 3.92871C42.1154 3.93197 42.1081 3.93441 42.1016 3.93604C42.0951 3.93766 42.0877 3.93848 42.0796 3.93848C42.0617 3.93848 42.047 3.93441 42.0356 3.92627C42.0243 3.9165 42.0145 3.90511 42.0063 3.89209C41.9998 3.87907 41.995 3.86523 41.9917 3.85059C41.9884 3.83431 41.9868 3.81966 41.9868 3.80664C41.9868 3.75781 41.999 3.72282 42.0234 3.70166C42.0479 3.67887 42.0812 3.65853 42.1235 3.64062C42.1235 3.62272 42.1235 3.60238 42.1235 3.57959C42.1252 3.55518 42.1284 3.5332 42.1333 3.51367C42.1398 3.49251 42.1496 3.47542 42.1626 3.4624C42.1756 3.44775 42.1951 3.44043 42.2212 3.44043C42.2635 3.44043 42.3042 3.44857 42.3433 3.46484C42.3823 3.48112 42.4116 3.50879 42.4312 3.54785C42.4881 3.53809 42.5435 3.52913 42.5972 3.521C42.6509 3.51286 42.7062 3.50879 42.7632 3.50879C42.8918 3.50879 43.0065 3.53076 43.1074 3.57471C43.2083 3.61702 43.2938 3.67725 43.3638 3.75537C43.4338 3.83187 43.4867 3.92301 43.5225 4.02881C43.5599 4.1346 43.5786 4.24935 43.5786 4.37305ZM43.2124 4.3291C43.2124 4.25423 43.2026 4.18424 43.1831 4.11914C43.1636 4.05241 43.1343 3.99544 43.0952 3.94824C43.0562 3.89941 43.0065 3.86117 42.9463 3.8335C42.8861 3.80583 42.8153 3.79199 42.7339 3.79199C42.6899 3.79199 42.6452 3.79525 42.5996 3.80176C42.5557 3.80827 42.5125 3.81803 42.4702 3.83105C42.4702 4.12891 42.4718 4.42432 42.4751 4.71729C42.48 5.01025 42.4914 5.30404 42.5093 5.59863C42.6134 5.54492 42.7087 5.47005 42.7949 5.37402C42.8812 5.27799 42.9552 5.1722 43.0171 5.05664C43.0789 4.93945 43.127 4.8182 43.1611 4.69287C43.1953 4.56592 43.2124 4.44466 43.2124 4.3291ZM43.7764 7.03906C43.752 7.03906 43.7251 7.03581 43.6958 7.0293C43.6681 7.02279 43.6413 7.01221 43.6152 6.99756C43.5908 6.98291 43.5697 6.96501 43.5518 6.94385C43.5355 6.92106 43.5273 6.89421 43.5273 6.86328C43.5273 6.81771 43.529 6.77295 43.5322 6.729C43.5371 6.68343 43.542 6.63867 43.5469 6.59473V6.59717L43.5615 6.43359C43.5664 6.375 43.5705 6.31071 43.5737 6.24072C43.577 6.17074 43.5794 6.09993 43.5811 6.02832C43.5843 5.95508 43.5868 5.88346 43.5884 5.81348C43.59 5.74349 43.5908 5.6792 43.5908 5.62061C43.5908 5.58643 43.59 5.55225 43.5884 5.51807C43.5884 5.48226 43.5884 5.44645 43.5884 5.41064C43.5868 5.37972 43.5859 5.34554 43.5859 5.30811C43.5859 5.26904 43.5859 5.23324 43.5859 5.20068C43.5859 5.1665 43.59 5.13883 43.5981 5.11768C43.6079 5.09489 43.634 5.0835 43.6763 5.0835C43.7137 5.0835 43.7528 5.09326 43.7935 5.11279C43.8358 5.13232 43.8651 5.15999 43.8813 5.1958H43.8789C43.887 5.2137 43.8927 5.243 43.896 5.28369C43.9009 5.32275 43.9041 5.35775 43.9058 5.38867C43.9334 5.34635 43.9644 5.3016 43.9985 5.25439C44.0343 5.20719 44.0726 5.16406 44.1133 5.125C44.154 5.08431 44.1971 5.05094 44.2427 5.0249C44.2882 4.99886 44.3371 4.98584 44.3892 4.98584C44.4575 4.98584 44.5096 5.00293 44.5454 5.03711C44.5812 5.07129 44.6073 5.11442 44.6235 5.1665C44.6398 5.21696 44.6488 5.27148 44.6504 5.33008C44.652 5.38704 44.6528 5.43913 44.6528 5.48633V5.50586C44.6528 5.52539 44.652 5.54492 44.6504 5.56445C44.6504 5.58236 44.6471 5.59945 44.6406 5.61572C44.6357 5.63037 44.626 5.64258 44.6113 5.65234C44.5983 5.66211 44.5796 5.66699 44.5552 5.66699C44.5291 5.66699 44.5015 5.66374 44.4722 5.65723C44.4429 5.64909 44.4152 5.6377 44.3892 5.62305C44.3647 5.6084 44.3436 5.59049 44.3257 5.56934C44.3078 5.54655 44.298 5.52051 44.2964 5.49121C44.2964 5.47819 44.2964 5.46517 44.2964 5.45215C44.2964 5.43913 44.2972 5.42611 44.2988 5.41309C44.2988 5.40495 44.2988 5.39518 44.2988 5.38379C44.3005 5.37077 44.3013 5.35856 44.3013 5.34717C44.2492 5.39925 44.2028 5.46354 44.1621 5.54004C44.123 5.61654 44.0872 5.69792 44.0547 5.78418C44.0238 5.87044 43.9969 5.95752 43.9741 6.04541C43.9513 6.13167 43.9318 6.2098 43.9155 6.27979V6.28711C43.9106 6.33757 43.9074 6.38721 43.9058 6.43604C43.9041 6.48486 43.9025 6.53532 43.9009 6.5874C43.8993 6.646 43.8968 6.7054 43.8936 6.76562C43.8919 6.82585 43.8879 6.88444 43.8813 6.94141C43.8781 6.97233 43.8683 6.99593 43.8521 7.01221C43.8374 7.03011 43.8122 7.03906 43.7764 7.03906ZM45.8174 5.99902C45.8174 6.14062 45.8052 6.28223 45.7808 6.42383C45.758 6.5638 45.71 6.69645 45.6367 6.82178C45.6139 6.85921 45.5879 6.89583 45.5586 6.93164C45.5293 6.96582 45.4967 6.99674 45.4609 7.02441C45.4268 7.05371 45.3885 7.0765 45.3462 7.09277C45.3055 7.11068 45.2624 7.11963 45.2168 7.11963C45.1452 7.11963 45.0825 7.10254 45.0288 7.06836C44.9767 7.03581 44.9312 6.99268 44.8921 6.93896C44.8547 6.88363 44.8229 6.82178 44.7969 6.75342C44.7725 6.68343 44.7529 6.61263 44.7383 6.54102C44.7253 6.46777 44.7155 6.39697 44.709 6.32861C44.7041 6.26025 44.7017 6.20003 44.7017 6.14795C44.7017 6.08936 44.7041 6.02507 44.709 5.95508C44.7139 5.88509 44.722 5.81348 44.7334 5.74023C44.7464 5.66699 44.7627 5.59456 44.7822 5.52295C44.8034 5.45133 44.8302 5.3846 44.8628 5.32275C44.8953 5.25928 44.9344 5.20312 44.98 5.1543C45.0256 5.10384 45.0785 5.06396 45.1387 5.03467V5.03711C45.1908 5.00944 45.2428 4.99561 45.2949 4.99561C45.3275 4.99561 45.3527 5.00293 45.3706 5.01758C45.3885 5.0306 45.3966 5.05339 45.395 5.08594C45.4845 5.10221 45.557 5.14535 45.6123 5.21533C45.6676 5.28532 45.71 5.3667 45.7393 5.45947C45.7702 5.55225 45.7905 5.64746 45.8003 5.74512C45.8117 5.84277 45.8174 5.92741 45.8174 5.99902ZM45.2656 5.38867C45.238 5.38867 45.2119 5.37809 45.1875 5.35693C45.1566 5.40413 45.1305 5.45866 45.1094 5.52051C45.0882 5.58073 45.0711 5.64339 45.0581 5.7085C45.0467 5.77197 45.0386 5.83626 45.0337 5.90137C45.0288 5.96647 45.0264 6.02751 45.0264 6.08447C45.0264 6.13167 45.0288 6.19271 45.0337 6.26758C45.0386 6.34082 45.0475 6.41488 45.0605 6.48975C45.0752 6.56462 45.0947 6.6346 45.1191 6.69971C45.1452 6.76481 45.1785 6.81283 45.2192 6.84375C45.2697 6.81445 45.3112 6.76807 45.3438 6.70459C45.3779 6.63949 45.4048 6.56868 45.4243 6.49219C45.4438 6.41569 45.4569 6.33838 45.4634 6.26025C45.4715 6.18213 45.4756 6.1154 45.4756 6.06006C45.4756 6.01937 45.4731 5.96647 45.4683 5.90137C45.4634 5.83626 45.4552 5.77035 45.4438 5.70361C45.4325 5.63525 45.4162 5.57178 45.395 5.51318C45.3755 5.45459 45.3503 5.41064 45.3193 5.38135C45.3047 5.38623 45.2868 5.38867 45.2656 5.38867ZM47.0869 6.92432C47.0869 6.94222 47.0828 6.95768 47.0747 6.9707C47.0666 6.9821 47.056 6.99186 47.043 7C47.0316 7.00651 47.0186 7.01139 47.0039 7.01465C46.9909 7.0179 46.9779 7.01953 46.9648 7.01953C46.9453 7.01953 46.9242 7.01709 46.9014 7.01221C46.8786 7.00732 46.8558 7.00081 46.833 6.99268C46.8102 6.98291 46.7891 6.97152 46.7695 6.9585C46.7516 6.94385 46.7378 6.92757 46.728 6.90967C46.7183 6.89176 46.7109 6.86979 46.7061 6.84375C46.7028 6.81608 46.6995 6.78841 46.6963 6.76074C46.68 6.7998 46.6605 6.83805 46.6377 6.87549C46.6165 6.91292 46.5905 6.94629 46.5596 6.97559C46.5286 7.00326 46.4937 7.02523 46.4546 7.0415C46.4172 7.05941 46.3748 7.06836 46.3276 7.06836C46.2446 7.06836 46.1771 7.04883 46.125 7.00977C46.0745 6.9707 46.0347 6.92188 46.0054 6.86328C45.9777 6.80306 45.959 6.73796 45.9492 6.66797C45.9411 6.59635 45.937 6.52799 45.937 6.46289C45.937 6.40918 45.9395 6.34814 45.9443 6.27979C45.9492 6.21143 45.9557 6.14144 45.9639 6.06982C45.972 5.99821 45.9818 5.92904 45.9932 5.8623C46.0046 5.79395 46.0168 5.73372 46.0298 5.68164C46.0461 5.62142 46.0656 5.5555 46.0884 5.48389C46.1128 5.41064 46.1429 5.3431 46.1787 5.28125C46.2161 5.21777 46.2617 5.16406 46.3154 5.12012C46.3691 5.07617 46.4334 5.05176 46.5083 5.04688C46.5034 4.91504 46.4961 4.79378 46.4863 4.68311C46.4782 4.5708 46.4692 4.45605 46.4595 4.33887L46.4351 4.06787L46.4253 3.97021C46.422 3.94417 46.4196 3.91813 46.418 3.89209C46.4163 3.86442 46.4155 3.83757 46.4155 3.81152C46.4155 3.77409 46.4253 3.74805 46.4448 3.7334C46.466 3.71875 46.4928 3.71143 46.5254 3.71143C46.597 3.71143 46.6515 3.72201 46.689 3.74316C46.7264 3.76432 46.7524 3.79281 46.7671 3.82861C46.7834 3.86442 46.7923 3.90674 46.7939 3.95557C46.7956 4.00277 46.7964 4.05404 46.7964 4.10938C46.7964 4.14518 46.8005 4.18587 46.8086 4.23145L46.8208 4.32178L46.8403 4.5708C46.8436 4.60986 46.8468 4.64893 46.8501 4.68799C46.8534 4.72705 46.8566 4.76611 46.8599 4.80518L46.9111 5.33008L47.0088 6.31152L47.0161 6.40186C47.0226 6.46859 47.0283 6.53776 47.0332 6.60938C47.0397 6.68099 47.0511 6.75179 47.0674 6.82178C47.0723 6.83968 47.0763 6.85677 47.0796 6.87305C47.0845 6.88932 47.0869 6.90641 47.0869 6.92432ZM46.5181 5.49609C46.5181 5.47819 46.5173 5.45866 46.5156 5.4375C46.5156 5.41471 46.5156 5.39355 46.5156 5.37402V5.30811C46.5042 5.32438 46.4896 5.34717 46.4717 5.37646C46.4538 5.40413 46.4399 5.42936 46.4302 5.45215C46.4041 5.50911 46.3805 5.58236 46.3594 5.67188C46.3382 5.75977 46.3195 5.85254 46.3032 5.9502C46.2886 6.04622 46.2772 6.14062 46.269 6.2334C46.2609 6.32454 46.2568 6.40104 46.2568 6.46289C46.2568 6.48568 46.2568 6.51172 46.2568 6.54102C46.2585 6.57031 46.2617 6.60042 46.2666 6.63135C46.2715 6.66064 46.2788 6.68913 46.2886 6.7168C46.2983 6.74447 46.3114 6.76725 46.3276 6.78516C46.3521 6.75423 46.374 6.70703 46.3936 6.64355C46.4131 6.57845 46.4294 6.50521 46.4424 6.42383C46.457 6.34082 46.4692 6.25374 46.479 6.1626C46.4888 6.07145 46.4961 5.98356 46.501 5.89893C46.5075 5.81266 46.5116 5.73454 46.5132 5.66455C46.5164 5.59294 46.5181 5.53678 46.5181 5.49609ZM48.2881 5.38867C48.2881 5.40495 48.2865 5.42204 48.2832 5.43994C48.2799 5.45785 48.2767 5.47412 48.2734 5.48877C48.2702 5.50667 48.2669 5.52376 48.2637 5.54004C48.2604 5.55469 48.2588 5.56934 48.2588 5.58398C48.2588 5.73535 48.2612 5.88753 48.2661 6.04053C48.2726 6.19189 48.2889 6.34408 48.3149 6.49707C48.3231 6.55566 48.3328 6.61263 48.3442 6.66797C48.3556 6.72331 48.3687 6.77946 48.3833 6.83643L48.3882 6.85107V6.84619C48.3931 6.85758 48.3971 6.86979 48.4004 6.88281C48.4053 6.89421 48.4077 6.90641 48.4077 6.91943C48.4077 6.93734 48.4028 6.95199 48.3931 6.96338C48.3849 6.97477 48.3743 6.98372 48.3613 6.99023C48.3483 6.99674 48.3337 7.00081 48.3174 7.00244C48.3027 7.00407 48.2889 7.00488 48.2759 7.00488C48.2222 7.00488 48.179 6.99919 48.1465 6.98779C48.1156 6.97477 48.0903 6.95768 48.0708 6.93652C48.0513 6.91374 48.0366 6.88688 48.0269 6.85596C48.0187 6.82503 48.0114 6.79085 48.0049 6.75342L47.9976 6.70947C47.991 6.68669 47.987 6.66227 47.9854 6.63623C47.9837 6.62321 47.9821 6.61751 47.9805 6.61914C47.9805 6.61914 47.9797 6.61263 47.978 6.59961C47.9552 6.6403 47.9284 6.68424 47.8975 6.73145C47.8682 6.77702 47.834 6.82015 47.7949 6.86084C47.7575 6.8999 47.7168 6.93327 47.6729 6.96094C47.6289 6.98698 47.5817 7 47.5312 7C47.4613 7 47.4067 6.97884 47.3677 6.93652C47.3302 6.89421 47.3026 6.84294 47.2847 6.78271C47.2668 6.72087 47.2562 6.65739 47.2529 6.59229C47.2497 6.52555 47.248 6.46777 47.248 6.41895C47.248 6.2334 47.2537 6.04948 47.2651 5.86719C47.2782 5.6849 47.292 5.50179 47.3066 5.31787C47.3066 5.31299 47.3066 5.30648 47.3066 5.29834C47.3083 5.2902 47.3091 5.28369 47.3091 5.27881C47.3107 5.25602 47.3123 5.23486 47.314 5.21533C47.3156 5.1958 47.3197 5.17708 47.3262 5.15918V5.16162C47.3327 5.13558 47.3416 5.11686 47.353 5.10547C47.366 5.09408 47.3856 5.08838 47.4116 5.08838C47.436 5.08838 47.4604 5.09326 47.4849 5.10303C47.5093 5.11117 47.5312 5.12337 47.5508 5.13965C47.5703 5.1543 47.5858 5.1722 47.5972 5.19336C47.6102 5.21452 47.6167 5.23812 47.6167 5.26416C47.6167 5.27718 47.6167 5.29264 47.6167 5.31055C47.6167 5.32845 47.6159 5.34391 47.6143 5.35693C47.6143 5.36833 47.6134 5.38298 47.6118 5.40088C47.6118 5.41715 47.6118 5.43099 47.6118 5.44238C47.5988 5.59863 47.589 5.75407 47.5825 5.90869C47.576 6.06169 47.5728 6.21712 47.5728 6.375C47.5728 6.41895 47.5728 6.46289 47.5728 6.50684C47.5744 6.55078 47.5793 6.59473 47.5874 6.63867C47.6411 6.57031 47.6875 6.48324 47.7266 6.37744C47.7656 6.27002 47.7982 6.1569 47.8242 6.03809C47.8519 5.91764 47.8739 5.79883 47.8901 5.68164C47.908 5.56283 47.9211 5.45785 47.9292 5.3667C47.9292 5.36182 47.9292 5.35612 47.9292 5.34961C47.9308 5.3431 47.9316 5.3374 47.9316 5.33252C47.9333 5.31462 47.9349 5.29753 47.9365 5.28125C47.9382 5.26497 47.9438 5.24951 47.9536 5.23486C47.9536 5.22021 47.9544 5.20475 47.9561 5.18848C47.9577 5.1722 47.9618 5.15755 47.9683 5.14453C47.9748 5.12988 47.9837 5.11849 47.9951 5.11035C48.0081 5.10221 48.026 5.09814 48.0488 5.09814C48.1139 5.09814 48.1652 5.11849 48.2026 5.15918C48.2401 5.19824 48.2604 5.2487 48.2637 5.31055C48.2718 5.32357 48.2775 5.33659 48.2808 5.34961C48.2856 5.361 48.2881 5.37402 48.2881 5.38867ZM49.5332 6.45312C49.5332 6.4873 49.5275 6.5223 49.5161 6.55811C49.5047 6.59391 49.4917 6.62809 49.4771 6.66064C49.4575 6.70785 49.4339 6.75423 49.4062 6.7998C49.3786 6.84375 49.3468 6.88363 49.311 6.91943C49.2752 6.95361 49.2345 6.98128 49.189 7.00244C49.1434 7.0236 49.0921 7.03418 49.0352 7.03418C48.9342 7.03418 48.8504 7.00895 48.7837 6.9585C48.717 6.90804 48.6641 6.84456 48.625 6.76807C48.5859 6.69157 48.5583 6.60775 48.542 6.5166C48.5273 6.42546 48.52 6.33919 48.52 6.25781C48.52 6.19759 48.5225 6.12679 48.5273 6.04541C48.5322 5.9624 48.5412 5.87695 48.5542 5.78906C48.5688 5.70117 48.5892 5.6141 48.6152 5.52783C48.6429 5.44157 48.6779 5.36507 48.7202 5.29834C48.7625 5.22998 48.8138 5.17464 48.874 5.13232C48.9359 5.09001 49.0091 5.06885 49.0938 5.06885C49.1117 5.06885 49.1377 5.0721 49.1719 5.07861C49.2061 5.08512 49.2394 5.09489 49.272 5.10791C49.3062 5.1193 49.3354 5.13558 49.3599 5.15674C49.3859 5.17627 49.3989 5.19906 49.3989 5.2251C49.3989 5.24951 49.3875 5.26823 49.3647 5.28125C49.3436 5.29427 49.3175 5.30404 49.2866 5.31055C49.2573 5.31543 49.2264 5.31868 49.1938 5.32031C49.1629 5.32031 49.1377 5.32031 49.1182 5.32031H49.0742C49.0286 5.361 48.9912 5.42122 48.9619 5.50098C48.9326 5.5791 48.9098 5.66292 48.8936 5.75244C48.8773 5.84196 48.8659 5.93066 48.8594 6.01855C48.8529 6.10482 48.8496 6.17562 48.8496 6.23096C48.8496 6.30908 48.8553 6.38639 48.8667 6.46289C48.8797 6.53776 48.9049 6.60856 48.9424 6.67529C48.9505 6.68994 48.9619 6.70703 48.9766 6.72656C48.9928 6.74447 49.0107 6.75342 49.0303 6.75342C49.0449 6.75342 49.0596 6.74121 49.0742 6.7168C49.0905 6.69238 49.1051 6.6639 49.1182 6.63135C49.1312 6.5988 49.1418 6.56706 49.1499 6.53613C49.158 6.50521 49.1637 6.48242 49.167 6.46777C49.1686 6.46126 49.1694 6.45394 49.1694 6.4458C49.1694 6.43766 49.1694 6.42952 49.1694 6.42139C49.1694 6.40674 49.1694 6.3929 49.1694 6.37988C49.1711 6.36523 49.1735 6.35384 49.1768 6.3457C49.1882 6.31803 49.2028 6.29932 49.2207 6.28955C49.2402 6.27979 49.2638 6.2749 49.2915 6.2749C49.3159 6.2749 49.342 6.27816 49.3696 6.28467C49.3973 6.29118 49.4233 6.30176 49.4478 6.31641C49.4722 6.33105 49.4925 6.34977 49.5088 6.37256C49.5251 6.39535 49.5332 6.4222 49.5332 6.45312ZM50.1826 6.93896C50.1826 6.95687 50.1785 6.97233 50.1704 6.98535C50.1623 6.99674 50.1517 7.0057 50.1387 7.01221C50.1273 7.01872 50.1143 7.02279 50.0996 7.02441C50.0866 7.02767 50.0736 7.0293 50.0605 7.0293C50.0426 7.0293 50.0215 7.02686 49.9971 7.02197C49.9743 7.01872 49.9515 7.01302 49.9287 7.00488C49.9059 6.99674 49.8848 6.98698 49.8652 6.97559C49.8473 6.96257 49.8335 6.9471 49.8237 6.9292C49.814 6.91292 49.805 6.88281 49.7969 6.83887C49.7904 6.79329 49.7847 6.74121 49.7798 6.68262C49.7749 6.6224 49.7708 6.55892 49.7676 6.49219C49.7643 6.42383 49.7611 6.35872 49.7578 6.29688C49.7562 6.23503 49.7546 6.17969 49.7529 6.13086C49.7529 6.0804 49.7529 6.04297 49.7529 6.01855C49.7529 5.90462 49.7546 5.79476 49.7578 5.68896C49.7627 5.58154 49.7676 5.47168 49.7725 5.35938C49.7643 5.35938 49.7562 5.36019 49.748 5.36182C49.7399 5.36344 49.7318 5.36426 49.7236 5.36426C49.7025 5.36751 49.6805 5.36995 49.6577 5.37158C49.6366 5.37321 49.6146 5.37402 49.5918 5.37402C49.5641 5.37402 49.5397 5.36914 49.5186 5.35938C49.4974 5.34961 49.4868 5.32764 49.4868 5.29346C49.4868 5.25277 49.4958 5.22021 49.5137 5.1958C49.5316 5.17139 49.5544 5.15267 49.582 5.13965C49.6097 5.125 49.6398 5.11523 49.6724 5.11035C49.7049 5.10384 49.7367 5.09896 49.7676 5.0957C49.7725 5.0957 49.7757 5.0957 49.7773 5.0957C49.779 5.09408 49.7822 5.09326 49.7871 5.09326C49.7887 5.07373 49.7904 5.05013 49.792 5.02246C49.7936 4.99316 49.7952 4.96143 49.7969 4.92725C49.7985 4.87354 49.8009 4.81657 49.8042 4.75635C49.8075 4.6945 49.8107 4.6359 49.814 4.58057C49.8172 4.5236 49.8213 4.47396 49.8262 4.43164C49.8311 4.3877 49.8359 4.35677 49.8408 4.33887C49.849 4.31771 49.8579 4.30062 49.8677 4.2876C49.8791 4.27458 49.8994 4.26807 49.9287 4.26807C49.9938 4.26807 50.0443 4.28923 50.0801 4.33154C50.1159 4.37386 50.1338 4.42594 50.1338 4.48779C50.1338 4.55941 50.1313 4.63102 50.1265 4.70264C50.1232 4.77425 50.12 4.84668 50.1167 4.91992L50.1094 5.04443C50.1501 5.03955 50.1908 5.03223 50.2314 5.02246C50.2705 5.01432 50.3096 5.007 50.3486 5.00049C50.3893 4.99398 50.4284 4.99072 50.4658 4.99072C50.4984 4.99072 50.5236 4.99967 50.5415 5.01758C50.5594 5.03385 50.5684 5.05827 50.5684 5.09082C50.5684 5.12663 50.5618 5.16162 50.5488 5.1958C50.5358 5.22998 50.513 5.25602 50.4805 5.27393H50.4829C50.4764 5.27718 50.4569 5.28206 50.4243 5.28857C50.3918 5.29346 50.3543 5.29834 50.312 5.30322C50.2713 5.30811 50.2306 5.31299 50.1899 5.31787C50.1509 5.32275 50.1216 5.32601 50.1021 5.32764H50.0996C50.0964 5.41878 50.0939 5.50911 50.0923 5.59863C50.0907 5.68652 50.0898 5.77604 50.0898 5.86719C50.0898 5.99251 50.0931 6.12598 50.0996 6.26758C50.1077 6.40755 50.1208 6.54102 50.1387 6.66797L50.1582 6.77783C50.1647 6.8055 50.1704 6.83317 50.1753 6.86084C50.1802 6.88688 50.1826 6.91292 50.1826 6.93896ZM51.4448 5.21045C51.4448 5.22998 51.4375 5.24626 51.4229 5.25928C51.4098 5.2723 51.3936 5.28369 51.374 5.29346C51.3545 5.3016 51.3341 5.30729 51.313 5.31055C51.2935 5.3138 51.2772 5.31543 51.2642 5.31543C51.2446 5.31543 51.2259 5.3138 51.208 5.31055C51.1901 5.30566 51.1722 5.30078 51.1543 5.2959C51.1364 5.29102 51.1193 5.28695 51.103 5.28369C51.0868 5.27881 51.0697 5.27637 51.0518 5.27637C51.0273 5.27637 51.0029 5.28044 50.9785 5.28857C50.9541 5.29671 50.9321 5.30811 50.9126 5.32275C50.8931 5.3374 50.8768 5.35531 50.8638 5.37646C50.8524 5.39762 50.8467 5.42122 50.8467 5.44727C50.8467 5.48633 50.8548 5.52539 50.8711 5.56445C50.8874 5.60189 50.9085 5.64014 50.9346 5.6792C50.9622 5.71826 50.9932 5.75814 51.0273 5.79883C51.0632 5.83789 51.1006 5.87777 51.1396 5.91846C51.1868 5.97054 51.234 6.02344 51.2812 6.07715C51.3301 6.13086 51.3732 6.18701 51.4106 6.24561C51.4497 6.3042 51.4814 6.36605 51.5059 6.43115C51.5303 6.49626 51.5425 6.56462 51.5425 6.63623C51.5425 6.69808 51.5319 6.75342 51.5107 6.80225C51.4912 6.85107 51.4627 6.89258 51.4253 6.92676C51.3895 6.96094 51.3455 6.98698 51.2935 7.00488C51.243 7.02441 51.1877 7.03418 51.1274 7.03418C51.1112 7.03418 51.0859 7.03092 51.0518 7.02441C51.0192 7.0179 50.9818 7.00895 50.9395 6.99756C50.8971 6.98454 50.8532 6.9707 50.8076 6.95605C50.7637 6.94141 50.723 6.92594 50.6855 6.90967C50.6497 6.89176 50.6196 6.87467 50.5952 6.8584C50.5724 6.84049 50.561 6.82422 50.561 6.80957C50.561 6.79004 50.57 6.77051 50.5879 6.75098C50.6058 6.72982 50.627 6.7111 50.6514 6.69482C50.6758 6.67692 50.701 6.66227 50.7271 6.65088C50.7547 6.63949 50.7775 6.63379 50.7954 6.63379C50.8198 6.63379 50.8451 6.63949 50.8711 6.65088C50.8988 6.66227 50.9264 6.67529 50.9541 6.68994C50.985 6.70622 51.016 6.72087 51.0469 6.73389C51.0794 6.74691 51.1128 6.75342 51.147 6.75342C51.173 6.75342 51.1877 6.74447 51.1909 6.72656C51.1958 6.70866 51.1982 6.68831 51.1982 6.66553C51.1982 6.60856 51.1885 6.55485 51.1689 6.50439C51.1494 6.45231 51.1242 6.40186 51.0933 6.35303C51.0623 6.3042 51.0265 6.257 50.9858 6.21143C50.9451 6.16423 50.9045 6.11784 50.8638 6.07227C50.8215 6.02669 50.7799 5.98112 50.7393 5.93555C50.7002 5.88997 50.6652 5.84359 50.6343 5.79639C50.6034 5.74756 50.5781 5.69792 50.5586 5.64746C50.5407 5.59701 50.5317 5.54329 50.5317 5.48633C50.5317 5.41634 50.5472 5.35368 50.5781 5.29834C50.609 5.24137 50.6489 5.19255 50.6978 5.15186C50.7482 5.11117 50.8044 5.08024 50.8662 5.05908C50.9297 5.0363 50.9932 5.0249 51.0566 5.0249C51.0778 5.0249 51.1104 5.02979 51.1543 5.03955C51.1982 5.04769 51.2414 5.0599 51.2837 5.07617C51.326 5.09245 51.3634 5.11198 51.396 5.13477C51.4285 5.15755 51.4448 5.18278 51.4448 5.21045ZM53.8716 3.67969C53.8716 3.72852 53.8586 3.76676 53.8325 3.79443C53.8065 3.8221 53.7739 3.84245 53.7349 3.85547C53.6958 3.86849 53.6543 3.87663 53.6104 3.87988C53.5664 3.88314 53.5265 3.88477 53.4907 3.88477C53.4191 3.88477 53.3475 3.88395 53.2759 3.88232C53.2043 3.8807 53.1326 3.87988 53.061 3.87988C53.0269 3.87988 52.9927 3.87988 52.9585 3.87988C52.9243 3.87988 52.8901 3.88151 52.856 3.88477C52.8429 3.91243 52.8348 3.94092 52.8315 3.97021C52.8283 3.99788 52.8267 4.02637 52.8267 4.05566C52.8267 4.20866 52.8324 4.36003 52.8438 4.50977C52.8551 4.65951 52.8674 4.81087 52.8804 4.96387C52.978 4.95573 53.0757 4.94596 53.1733 4.93457C53.271 4.92318 53.3703 4.91016 53.4712 4.89551C53.4842 4.89551 53.4964 4.89469 53.5078 4.89307C53.5192 4.89144 53.5314 4.89062 53.5444 4.89062C53.6095 4.89062 53.6421 4.92643 53.6421 4.99805C53.6421 5.01758 53.6396 5.03711 53.6348 5.05664C53.6315 5.07617 53.6258 5.0957 53.6177 5.11523C53.6063 5.14779 53.5876 5.1722 53.5615 5.18848C53.5355 5.20312 53.5062 5.2137 53.4736 5.22021C53.4411 5.2251 53.4069 5.22754 53.3711 5.22754C53.3369 5.22591 53.3068 5.22591 53.2808 5.22754L52.8999 5.24219C52.9097 5.39681 52.9202 5.5498 52.9316 5.70117C52.943 5.85254 52.9552 6.00553 52.9683 6.16016C52.9813 6.27734 52.9919 6.39535 53 6.51416C53.0098 6.63298 53.0236 6.75098 53.0415 6.86816V6.90723C53.0415 6.94466 53.0309 6.96989 53.0098 6.98291C52.9886 6.9943 52.9618 7 52.9292 7C52.869 7 52.812 6.99023 52.7583 6.9707C52.7225 6.95768 52.6956 6.94222 52.6777 6.92432C52.6598 6.90479 52.6468 6.88363 52.6387 6.86084C52.6322 6.83643 52.6281 6.81038 52.6265 6.78271C52.6248 6.75505 52.6232 6.72493 52.6216 6.69238C52.6069 6.44661 52.5907 6.20247 52.5728 5.95996C52.5549 5.71582 52.5386 5.47005 52.5239 5.22266C52.5142 5.04036 52.5036 4.8597 52.4922 4.68066C52.4808 4.50163 52.4751 4.32096 52.4751 4.13867C52.4751 4.04264 52.4808 3.96126 52.4922 3.89453C52.5052 3.82617 52.5288 3.77083 52.563 3.72852C52.5972 3.6862 52.646 3.65527 52.7095 3.63574C52.7729 3.61621 52.856 3.60645 52.9585 3.60645C53.0643 3.60645 53.1693 3.60726 53.2734 3.60889C53.3776 3.61051 53.4826 3.61133 53.5884 3.61133C53.6258 3.61133 53.6616 3.61051 53.6958 3.60889C53.73 3.60563 53.7642 3.60807 53.7983 3.61621C53.8179 3.61947 53.835 3.62516 53.8496 3.6333C53.8643 3.63981 53.8716 3.65527 53.8716 3.67969ZM54.709 5.99902C54.709 6.14062 54.6968 6.28223 54.6724 6.42383C54.6496 6.5638 54.6016 6.69645 54.5283 6.82178C54.5055 6.85921 54.4795 6.89583 54.4502 6.93164C54.4209 6.96582 54.3883 6.99674 54.3525 7.02441C54.3184 7.05371 54.2801 7.0765 54.2378 7.09277C54.1971 7.11068 54.154 7.11963 54.1084 7.11963C54.0368 7.11963 53.9741 7.10254 53.9204 7.06836C53.8683 7.03581 53.8228 6.99268 53.7837 6.93896C53.7463 6.88363 53.7145 6.82178 53.6885 6.75342C53.6641 6.68343 53.6445 6.61263 53.6299 6.54102C53.6169 6.46777 53.6071 6.39697 53.6006 6.32861C53.5957 6.26025 53.5933 6.20003 53.5933 6.14795C53.5933 6.08936 53.5957 6.02507 53.6006 5.95508C53.6055 5.88509 53.6136 5.81348 53.625 5.74023C53.638 5.66699 53.6543 5.59456 53.6738 5.52295C53.695 5.45133 53.7218 5.3846 53.7544 5.32275C53.7869 5.25928 53.826 5.20312 53.8716 5.1543C53.9172 5.10384 53.9701 5.06396 54.0303 5.03467V5.03711C54.0824 5.00944 54.1344 4.99561 54.1865 4.99561C54.2191 4.99561 54.2443 5.00293 54.2622 5.01758C54.2801 5.0306 54.2882 5.05339 54.2866 5.08594C54.3761 5.10221 54.4486 5.14535 54.5039 5.21533C54.5592 5.28532 54.6016 5.3667 54.6309 5.45947C54.6618 5.55225 54.6821 5.64746 54.6919 5.74512C54.7033 5.84277 54.709 5.92741 54.709 5.99902ZM54.1572 5.38867C54.1296 5.38867 54.1035 5.37809 54.0791 5.35693C54.0482 5.40413 54.0221 5.45866 54.001 5.52051C53.9798 5.58073 53.9627 5.64339 53.9497 5.7085C53.9383 5.77197 53.9302 5.83626 53.9253 5.90137C53.9204 5.96647 53.918 6.02751 53.918 6.08447C53.918 6.13167 53.9204 6.19271 53.9253 6.26758C53.9302 6.34082 53.9391 6.41488 53.9521 6.48975C53.9668 6.56462 53.9863 6.6346 54.0107 6.69971C54.0368 6.76481 54.0701 6.81283 54.1108 6.84375C54.1613 6.81445 54.2028 6.76807 54.2354 6.70459C54.2695 6.63949 54.2964 6.56868 54.3159 6.49219C54.3354 6.41569 54.3485 6.33838 54.355 6.26025C54.3631 6.18213 54.3672 6.1154 54.3672 6.06006C54.3672 6.01937 54.3647 5.96647 54.3599 5.90137C54.355 5.83626 54.3468 5.77035 54.3354 5.70361C54.3241 5.63525 54.3078 5.57178 54.2866 5.51318C54.2671 5.45459 54.2419 5.41064 54.2109 5.38135C54.1963 5.38623 54.1784 5.38867 54.1572 5.38867ZM55.915 5.38867C55.915 5.40495 55.9134 5.42204 55.9102 5.43994C55.9069 5.45785 55.9036 5.47412 55.9004 5.48877C55.8971 5.50667 55.8939 5.52376 55.8906 5.54004C55.8874 5.55469 55.8857 5.56934 55.8857 5.58398C55.8857 5.73535 55.8882 5.88753 55.8931 6.04053C55.8996 6.19189 55.9159 6.34408 55.9419 6.49707C55.95 6.55566 55.9598 6.61263 55.9712 6.66797C55.9826 6.72331 55.9956 6.77946 56.0103 6.83643L56.0151 6.85107V6.84619C56.02 6.85758 56.0241 6.86979 56.0273 6.88281C56.0322 6.89421 56.0347 6.90641 56.0347 6.91943C56.0347 6.93734 56.0298 6.95199 56.02 6.96338C56.0119 6.97477 56.0013 6.98372 55.9883 6.99023C55.9753 6.99674 55.9606 7.00081 55.9443 7.00244C55.9297 7.00407 55.9159 7.00488 55.9028 7.00488C55.8491 7.00488 55.806 6.99919 55.7734 6.98779C55.7425 6.97477 55.7173 6.95768 55.6978 6.93652C55.6782 6.91374 55.6636 6.88688 55.6538 6.85596C55.6457 6.82503 55.6383 6.79085 55.6318 6.75342L55.6245 6.70947C55.618 6.68669 55.6139 6.66227 55.6123 6.63623C55.6107 6.62321 55.609 6.61751 55.6074 6.61914C55.6074 6.61914 55.6066 6.61263 55.605 6.59961C55.5822 6.6403 55.5553 6.68424 55.5244 6.73145C55.4951 6.77702 55.4609 6.82015 55.4219 6.86084C55.3844 6.8999 55.3438 6.93327 55.2998 6.96094C55.2559 6.98698 55.2087 7 55.1582 7C55.0882 7 55.0337 6.97884 54.9946 6.93652C54.9572 6.89421 54.9295 6.84294 54.9116 6.78271C54.8937 6.72087 54.8831 6.65739 54.8799 6.59229C54.8766 6.52555 54.875 6.46777 54.875 6.41895C54.875 6.2334 54.8807 6.04948 54.8921 5.86719C54.9051 5.6849 54.9189 5.50179 54.9336 5.31787C54.9336 5.31299 54.9336 5.30648 54.9336 5.29834C54.9352 5.2902 54.936 5.28369 54.936 5.27881C54.9377 5.25602 54.9393 5.23486 54.9409 5.21533C54.9425 5.1958 54.9466 5.17708 54.9531 5.15918V5.16162C54.9596 5.13558 54.9686 5.11686 54.98 5.10547C54.993 5.09408 55.0125 5.08838 55.0386 5.08838C55.063 5.08838 55.0874 5.09326 55.1118 5.10303C55.1362 5.11117 55.1582 5.12337 55.1777 5.13965C55.1973 5.1543 55.2127 5.1722 55.2241 5.19336C55.2371 5.21452 55.2437 5.23812 55.2437 5.26416C55.2437 5.27718 55.2437 5.29264 55.2437 5.31055C55.2437 5.32845 55.2428 5.34391 55.2412 5.35693C55.2412 5.36833 55.2404 5.38298 55.2388 5.40088C55.2388 5.41715 55.2388 5.43099 55.2388 5.44238C55.2257 5.59863 55.216 5.75407 55.2095 5.90869C55.203 6.06169 55.1997 6.21712 55.1997 6.375C55.1997 6.41895 55.1997 6.46289 55.1997 6.50684C55.2013 6.55078 55.2062 6.59473 55.2144 6.63867C55.2681 6.57031 55.3145 6.48324 55.3535 6.37744C55.3926 6.27002 55.4251 6.1569 55.4512 6.03809C55.4788 5.91764 55.5008 5.79883 55.5171 5.68164C55.535 5.56283 55.548 5.45785 55.5562 5.3667C55.5562 5.36182 55.5562 5.35612 55.5562 5.34961C55.5578 5.3431 55.5586 5.3374 55.5586 5.33252C55.5602 5.31462 55.5618 5.29753 55.5635 5.28125C55.5651 5.26497 55.5708 5.24951 55.5806 5.23486C55.5806 5.22021 55.5814 5.20475 55.583 5.18848C55.5846 5.1722 55.5887 5.15755 55.5952 5.14453C55.6017 5.12988 55.6107 5.11849 55.6221 5.11035C55.6351 5.10221 55.653 5.09814 55.6758 5.09814C55.7409 5.09814 55.7922 5.11849 55.8296 5.15918C55.867 5.19824 55.8874 5.2487 55.8906 5.31055C55.8988 5.32357 55.9045 5.33659 55.9077 5.34961C55.9126 5.361 55.915 5.37402 55.915 5.38867ZM56.5986 6.98779C56.5986 7.02523 56.5872 7.04964 56.5645 7.06104C56.5433 7.07243 56.5173 7.07812 56.4863 7.07812C56.4587 7.07812 56.431 7.07568 56.4033 7.0708C56.3773 7.06755 56.3521 7.06022 56.3276 7.04883C56.3049 7.03743 56.2845 7.02197 56.2666 7.00244C56.2503 6.98291 56.2389 6.95768 56.2324 6.92676C56.2096 6.8291 56.1966 6.73389 56.1934 6.64111C56.1901 6.54671 56.1885 6.44987 56.1885 6.35059V6.05029C56.1885 5.91357 56.1942 5.77197 56.2056 5.62549C56.217 5.47738 56.2292 5.33496 56.2422 5.19824C56.2422 5.19336 56.243 5.18766 56.2446 5.18115C56.2463 5.17464 56.2471 5.16976 56.2471 5.1665C56.2487 5.1486 56.2511 5.12907 56.2544 5.10791C56.2576 5.08675 56.2625 5.06803 56.269 5.05176C56.2772 5.03385 56.2878 5.01921 56.3008 5.00781C56.3154 4.99642 56.3341 4.99072 56.3569 4.99072C56.383 4.99072 56.4074 4.99642 56.4302 5.00781C56.4546 5.01758 56.4757 5.03141 56.4937 5.04932C56.5116 5.06559 56.5254 5.08594 56.5352 5.11035C56.5465 5.13477 56.5522 5.15999 56.5522 5.18604C56.5522 5.2137 56.5514 5.24463 56.5498 5.27881C56.5482 5.31136 56.5457 5.34229 56.5425 5.37158C56.5425 5.37972 56.5417 5.38867 56.54 5.39844C56.54 5.4082 56.5392 5.41715 56.5376 5.42529C56.5604 5.37972 56.5864 5.33252 56.6157 5.28369C56.645 5.23324 56.6784 5.18766 56.7158 5.14697C56.7549 5.10465 56.7972 5.07048 56.8428 5.04443C56.89 5.01839 56.9421 5.00537 56.999 5.00537C57.0462 5.00537 57.0853 5.0127 57.1162 5.02734C57.1471 5.04199 57.1715 5.06315 57.1895 5.09082C57.209 5.11686 57.222 5.14779 57.2285 5.18359C57.2367 5.2194 57.2407 5.25765 57.2407 5.29834C57.2407 5.35368 57.2391 5.40983 57.2358 5.4668C57.2326 5.52214 57.2293 5.57747 57.2261 5.63281C57.2212 5.68978 57.2171 5.74593 57.2139 5.80127C57.2106 5.85661 57.209 5.91276 57.209 5.96973C57.209 6.03809 57.2106 6.10889 57.2139 6.18213C57.2171 6.25374 57.222 6.32292 57.2285 6.38965C57.235 6.45475 57.2424 6.51416 57.2505 6.56787C57.2586 6.61995 57.2668 6.66064 57.2749 6.68994C57.2814 6.71436 57.2879 6.74284 57.2944 6.77539C57.3026 6.80632 57.3099 6.83887 57.3164 6.87305C57.3245 6.9056 57.3311 6.93734 57.3359 6.96826C57.3408 6.99919 57.3433 7.02686 57.3433 7.05127C57.3433 7.08708 57.3286 7.10986 57.2993 7.11963C57.2716 7.12939 57.244 7.13428 57.2163 7.13428C57.1886 7.13428 57.1569 7.13184 57.1211 7.12695C57.0869 7.1237 57.056 7.11475 57.0283 7.1001C56.9941 7.07568 56.9714 7.0415 56.96 6.99756C56.9502 6.95361 56.9437 6.91048 56.9404 6.86816L56.9331 6.80225C56.9282 6.76318 56.9217 6.71191 56.9136 6.64844C56.9054 6.58496 56.8973 6.51497 56.8892 6.43848C56.8826 6.36198 56.877 6.28304 56.8721 6.20166C56.8672 6.11865 56.8647 6.03809 56.8647 5.95996C56.8647 5.88997 56.8672 5.82243 56.8721 5.75732C56.8786 5.69222 56.8851 5.6263 56.8916 5.55957C56.8949 5.52539 56.8973 5.49772 56.8989 5.47656C56.9006 5.4554 56.903 5.42773 56.9062 5.39355C56.8737 5.44564 56.8411 5.50667 56.8086 5.57666C56.776 5.64665 56.7451 5.71989 56.7158 5.79639C56.6865 5.87126 56.6597 5.9445 56.6353 6.01611C56.6125 6.08773 56.5946 6.15039 56.5815 6.2041L56.5669 6.25781C56.5588 6.28385 56.5514 6.3099 56.5449 6.33594C56.54 6.36198 56.5376 6.38639 56.5376 6.40918C56.5376 6.43848 56.5392 6.47266 56.5425 6.51172C56.5457 6.54915 56.5498 6.58496 56.5547 6.61914C56.5596 6.65983 56.5653 6.70133 56.5718 6.74365C56.5718 6.74691 56.5734 6.75749 56.5767 6.77539C56.5799 6.79329 56.5832 6.81445 56.5864 6.83887C56.5897 6.86328 56.5921 6.88932 56.5938 6.91699C56.597 6.94303 56.5986 6.96663 56.5986 6.98779ZM58.6201 6.92432C58.6201 6.94222 58.616 6.95768 58.6079 6.9707C58.5998 6.9821 58.5892 6.99186 58.5762 7C58.5648 7.00651 58.5518 7.01139 58.5371 7.01465C58.5241 7.0179 58.5111 7.01953 58.498 7.01953C58.4785 7.01953 58.4574 7.01709 58.4346 7.01221C58.4118 7.00732 58.389 7.00081 58.3662 6.99268C58.3434 6.98291 58.3223 6.97152 58.3027 6.9585C58.2848 6.94385 58.271 6.92757 58.2612 6.90967C58.2515 6.89176 58.2441 6.86979 58.2393 6.84375C58.236 6.81608 58.2327 6.78841 58.2295 6.76074C58.2132 6.7998 58.1937 6.83805 58.1709 6.87549C58.1497 6.91292 58.1237 6.94629 58.0928 6.97559C58.0618 7.00326 58.0269 7.02523 57.9878 7.0415C57.9504 7.05941 57.908 7.06836 57.8608 7.06836C57.7778 7.06836 57.7103 7.04883 57.6582 7.00977C57.6077 6.9707 57.5679 6.92188 57.5386 6.86328C57.5109 6.80306 57.4922 6.73796 57.4824 6.66797C57.4743 6.59635 57.4702 6.52799 57.4702 6.46289C57.4702 6.40918 57.4727 6.34814 57.4775 6.27979C57.4824 6.21143 57.4889 6.14144 57.4971 6.06982C57.5052 5.99821 57.515 5.92904 57.5264 5.8623C57.5378 5.79395 57.55 5.73372 57.563 5.68164C57.5793 5.62142 57.5988 5.5555 57.6216 5.48389C57.646 5.41064 57.6761 5.3431 57.7119 5.28125C57.7493 5.21777 57.7949 5.16406 57.8486 5.12012C57.9023 5.07617 57.9666 5.05176 58.0415 5.04688C58.0366 4.91504 58.0293 4.79378 58.0195 4.68311C58.0114 4.5708 58.0024 4.45605 57.9927 4.33887L57.9683 4.06787L57.9585 3.97021C57.9552 3.94417 57.9528 3.91813 57.9512 3.89209C57.9495 3.86442 57.9487 3.83757 57.9487 3.81152C57.9487 3.77409 57.9585 3.74805 57.978 3.7334C57.9992 3.71875 58.026 3.71143 58.0586 3.71143C58.1302 3.71143 58.1847 3.72201 58.2222 3.74316C58.2596 3.76432 58.2856 3.79281 58.3003 3.82861C58.3166 3.86442 58.3255 3.90674 58.3271 3.95557C58.3288 4.00277 58.3296 4.05404 58.3296 4.10938C58.3296 4.14518 58.3337 4.18587 58.3418 4.23145L58.354 4.32178L58.3735 4.5708C58.3768 4.60986 58.38 4.64893 58.3833 4.68799C58.3866 4.72705 58.3898 4.76611 58.3931 4.80518L58.4443 5.33008L58.542 6.31152L58.5493 6.40186C58.5558 6.46859 58.5615 6.53776 58.5664 6.60938C58.5729 6.68099 58.5843 6.75179 58.6006 6.82178C58.6055 6.83968 58.6095 6.85677 58.6128 6.87305C58.6177 6.88932 58.6201 6.90641 58.6201 6.92432ZM58.0513 5.49609C58.0513 5.47819 58.0505 5.45866 58.0488 5.4375C58.0488 5.41471 58.0488 5.39355 58.0488 5.37402V5.30811C58.0374 5.32438 58.0228 5.34717 58.0049 5.37646C57.987 5.40413 57.9731 5.42936 57.9634 5.45215C57.9373 5.50911 57.9137 5.58236 57.8926 5.67188C57.8714 5.75977 57.8527 5.85254 57.8364 5.9502C57.8218 6.04622 57.8104 6.14062 57.8022 6.2334C57.7941 6.32454 57.79 6.40104 57.79 6.46289C57.79 6.48568 57.79 6.51172 57.79 6.54102C57.7917 6.57031 57.7949 6.60042 57.7998 6.63135C57.8047 6.66064 57.812 6.68913 57.8218 6.7168C57.8315 6.74447 57.8446 6.76725 57.8608 6.78516C57.8853 6.75423 57.9072 6.70703 57.9268 6.64355C57.9463 6.57845 57.9626 6.50521 57.9756 6.42383C57.9902 6.34082 58.0024 6.25374 58.0122 6.1626C58.022 6.07145 58.0293 5.98356 58.0342 5.89893C58.0407 5.81266 58.0448 5.73454 58.0464 5.66455C58.0496 5.59294 58.0513 5.53678 58.0513 5.49609Z" fill="#088508"/>
</svg>
